<?xml version="1.0" encoding="utf-8" ?>
<svg baseProfile="full" height="200mm" version="1.1" viewBox="0,0,200,200" width="200mm" xmlns="http://www.w3.org/2000/svg" xmlns:ev="http://www.w3.org/2001/xml-events" xmlns:xlink="http://www.w3.org/1999/xlink"><defs /><rect fill="#1a1a1a" height="200" width="200" x="0" y="0" /><text alignment-baseline="middle" fill="#e1ed5e" style="dominant-baseline: central; font-size:9.0px; font-family:Arial;" text-anchor="middle" x="100.0" y="100.0">2023</text><line stroke="#e1ed5e" stroke-width="0.3" x1="100.0" x2="100.0" y1="15.0" y2="10.0" /><path d="M 100.0 14.0 a86.0,86.0 0 0,1 42.46469731375804,11.215312516191453" fill="none" id="id13" stroke="none" /><text fill="#e1ed5e" style="font-size:6.75px; font-family:Arial;" text-anchor="middle"><textPath startOffset="22.20632615414155" xlink:href="#id13">January</textPath></text><path d="M 102.88285421437855 79.19881850522331 l 0.8327936677806903 -6.009007373597325 a27.0664417007866,27.0664417007866 0 0,0 0.4609428162676505,0.06793098913176279 l -0.9361054644769965 5.993781900304593" fill="#ff0000" stroke="none" /><path d="M 104.66035177308747 79.52364482259891 l 1.6884942317315819 -7.41879782629016 a28.608519827006987,28.608519827006987 0 0,0 0.4792285536287649,0.11341791539034957 l -1.8159464723228704 7.388633998758942" fill="#ff1802" stroke="none" /><path d="M 105.01212808612495 79.60689891045804 l 3.4829176057491877 -14.17112444057718 a35.592857258219226,35.592857258219226 0 0,0 0.5937076916122326,0.15134931004514962 l -3.7263341860464454 14.109072134363164" fill="#ff820c" stroke="none" /><path d="M 106.0581310904928 79.89281104454417 l 2.96583828137365 -9.843740560267976 a31.280828027407438,31.280828027407438 0 0,0 0.5142190185134085,0.1597703521420377 l -3.1348426725977765 9.791230073243419" fill="#ff4206" stroke="none" /><path d="M 109.41281617654863 81.2277094730956 l 4.503240647487988 -8.980961718749537 a31.04673328613996,31.04673328613996 0 0,0 0.4756648014021249,0.2436539861992885 l -4.657165936478868 8.902115207237747" fill="#ff3e05" stroke="none" /><path d="M 110.36928655335952 81.73862282372117 l 5.122831313980595 -9.021831381903771 a31.37481769261532,31.37481769261532 0 0,0 0.46734026155022385,0.27071364421652455 l -5.277368307996147 8.932313580297198" fill="#ff4306" stroke="none" /><line stroke="#e1ed5e" stroke-width="0.3" x1="143.23703022742887" x2="145.7803849466894" y1="26.81831364943548" y2="22.513508569990506" /><path d="M 143.74570117128098 25.957352633546492 a86.0,86.0 0 0,1 28.547481713284135,27.462654790039103" fill="none" id="id14" stroke="none" /><text fill="#e1ed5e" style="font-size:6.75px; font-family:Arial;" text-anchor="middle"><textPath startOffset="19.985693538727396" xlink:href="#id14">February</textPath></text><path d="M 110.99172775467656 82.1063720568725 l 3.254683385313195 -5.298356625026027 a27.218162659869147,27.218162659869147 0 0,0 0.3971011307904916,0.2486646916708781 l -3.3454036684759503 5.241547592032204" fill="#ff0200" stroke="none" /><path d="M 111.90073688211348 82.69761687909136 l 10.190901009297347 -14.816466858882697 a38.98282940923555,38.98282940923555 0 0,0 0.5496000894760622,0.38502998530586985 l -10.44443223835706 14.63885203081289" fill="#ffb310" stroke="none" /><path d="M 112.77801427241765 83.33499621200491 l 7.349401401398185 -9.585041899520744 a33.078357884018914,33.078357884018914 0 0,0 0.4488692917014659,0.3503496020197215 l -7.513303248259081 9.457113908277798" fill="#ff5d08" stroke="none" /><path d="M 113.34407831869373 83.78471172551755 l 8.085443472155987 -9.825166909008068 a33.724319271823425,33.724319271823425 0 0,0 0.4450686146366786,0.37273216527007286 l -8.253369623751782 9.684533586344177" fill="#ff6709" stroke="none" /><path d="M 113.6212207817346 84.01681056812373 l 6.046318664425342 -7.094772056597757 a30.32168224768784,30.32168224768784 0 0,0 0.39433521225266055,0.3419636102217994 l -6.167547675324767 6.989643452956286" fill="#ff3304" stroke="none" /><path d="M 114.16331599549186 84.49514656593476 l 4.171934597563516 -4.567096751376401 a27.185742560338277,27.185742560338277 0 0,0 0.34278906205526055,0.31858507467879577 l -4.2499315434136244 4.4946070906229645" fill="#ff0200" stroke="none" /><path d="M 114.42810811169701 84.74124197986012 l 12.973900125446146 -13.720828888934683 a39.88341149963311,39.88341149963311 0 0,0 0.4947760475026475,0.4759741656869982 l -13.208159416561212 13.495471636485384" fill="#ffbf11" stroke="none" /><path d="M 114.94478906791727 85.2469230424477 l 8.48749381800962 -8.378616045016935 a32.92638914930109,32.92638914930109 0 0,0 0.39470232457606047,0.40677544078947214 l -8.630460406288789 8.231276408677349" fill="#ff5b08" stroke="none" /><path d="M 115.19652480421416 85.50635884689758 l 9.201161981953941 -8.775581369829194 a33.71503874145289,33.71503874145289 0 0,0 0.3969266341866186,0.42341365844106393 l -9.350855938111023 8.615898294510075" fill="#ff6609" stroke="none" /><path d="M 115.4437574822437 85.77008943001954 l 9.304469776568748 -8.573157987872253 a33.65196410475856,33.65196410475856 0 0,0 0.3888506236085982,0.429378570703583 l -9.45066404079338 8.411726629899121" fill="#ff6609" stroke="none" /><path d="M 115.9244219780498 86.31012108654704 l 38.636825839807706 -33.215238083757065 a71.9515098101744,71.9515098101744 0 0,0 0.7993106467757739,0.9461316902263429 l -39.20284710007059 32.545247443901616" fill="#3dffaa" stroke="none" /><path d="M 116.60985879189232 87.15038557335679 l 8.145978148904753 -6.301840349923996 a31.29903644999686,31.29903644999686 0 0,0 0.32599296759127444,0.42896853288397835 l -8.25324705672014 6.160687041158983" fill="#ff4206" stroke="none" /><path d="M 116.82858285166822 87.43820079747576 l 14.417664706936822 -10.762154520926128 a38.99147091079388,38.99147091079388 0 0,0 0.3968540536535246,0.5413084831898517 l -14.600781373103972 10.512383594064783" fill="#ffb310" stroke="none" /><path d="M 117.2510076193507 88.02491185347247 l 6.368640825271036 -4.420903227162622 a28.752675106390427,28.752675106390427 0 0,0 0.2787305332493686,0.40900266400212976 l -6.443795824189137 4.310622539890086" fill="#ff1b02" stroke="none" /><path d="M 117.45458315368197 88.32363383020206 l 14.950683304519686 -10.001364754186742 a38.98750200050948,38.98750200050948 0 0,0 0.36834531313765306,0.5610151826280125 l -15.120625253015264 9.742531507581056" fill="#ffb310" stroke="none" /><line stroke="#e1ed5e" stroke-width="0.3" x1="172.23445277983987" x2="176.4835382374775" y1="55.19839476539836" y2="52.563006222186495" /><path d="M 173.08426987136738 54.67131705675599 a86.0,86.0 0 0,1 12.851231095245387,41.99856678651699" fill="none" id="id15" stroke="none" /><text fill="#e1ed5e" style="font-size:6.75px; font-family:Arial;" text-anchor="middle"><textPath startOffset="22.20632615414155" xlink:href="#id15">March</textPath></text><path d="M 117.84615892207809 88.93136811851018 l 9.565606700731427 -5.9328273246812255 a32.25607709717565,32.25607709717565 0 0,0 0.28859082361051724,0.4743674341678484 l -9.666313322628168 5.767292117306296" fill="#ff5107" stroke="none" /><path d="M 118.3937258080291 89.86733742301442 l 26.082561737604106 -14.36825795865529 a50.77829517555347,50.77829517555347 0 0,0 0.4151534293874587,0.7692162537762488 l -26.32602326621003 13.917160721546582" fill="#b0ff20" stroke="none" /><path d="M 119.196687751892 91.48605970444005 l 16.771487604714128 -7.438337591347567 a39.346979658732224,39.346979658732224 0 0,0 0.2692631674567089,0.6214965147969057 l -16.897041482013517 7.148541931964059" fill="#ffb811" stroke="none" /><path d="M 119.47837535516314 92.15188598940014 l 10.021091561602748 -4.037640083020148 a31.80392583860315,31.80392583860315 0 0,0 0.20022305404511362,0.5095458331723193 l -10.089108165529563 3.8645452449520445" fill="#ff4a06" stroke="none" /><path d="M 119.61058180528143 92.48833698450437 l 11.490868278793368 -4.401477280113028 a33.3050012615981,33.3050012615981 0 0,0 0.20045711140064676,0.5371253975481972 l -11.564929978695641 4.203028745535497" fill="#ff6008" stroke="none" /><path d="M 119.7369772167798 92.82701384747503 l 17.477439100402176 -6.35180490263733 a39.595867902021524,39.595867902021524 0 0,0 0.22729332801192592,0.6425888459384362 l -17.58418550922391 6.050018430272279" fill="#ffbb11" stroke="none" /><path d="M 119.85752413597 93.16781622104841 l 14.150364575794432 -4.868577303948538 a35.964486713296274,35.964486713296274 0 0,0 0.19637073212646522,0.5871234945195727 l -14.232072601692666 4.624280706506651" fill="#ff880c" stroke="none" /><path d="M 120.08093135843002 93.85539295169968 l 28.772615554386565 -8.804194047468792 a51.0894871785149,51.0894871785149 0 0,0 0.2500808572161251,0.8431483286792003 l -28.91990230871439 8.307616332043063" fill="#acff20" stroke="none" /><path d="M 120.28053869075195 94.5502522615342 l 15.792449347652317 -4.2437169164766795 a37.352693651669576,37.352693651669576 0 0,0 0.16151245705221218,0.6223733820999022 l -15.863158136574832 3.971247108827927" fill="#ff9c0e" stroke="none" /><path d="M 120.37134235888165 94.90015583598534 l 19.538720694559963 -4.891402292054658 a41.141683712210934,41.141683712210934 0 0,0 0.1660697771828179,0.6884664405175519 l -19.6200232720036 4.5543506198777" fill="#ffd113" stroke="none" /><path d="M 120.45610955862082 95.25157060432595 l 11.774939613725932 -2.733289496415504 a33.08801366553279,33.08801366553279 0 0,0 0.12401011421098647,0.5559130260680518 l -11.820244114938955 2.530198300797488" fill="#ff5d08" stroke="none" /><path d="M 120.53481517161879 95.60439243477599 l 29.590691965954452 -6.334075489782429 a51.26102383156036,51.26102383156036 0 0,0 0.17726722108409698,0.8644179251782391 l -29.695338482953545 5.823781908440778" fill="#aaff21" stroke="none" /><path d="M 120.67395015179393 96.31383870115 l 17.839005718918738 -3.180691256786066 a39.120345524040395,39.120345524040395 0 0,0 0.11249546870868928,0.6639546243220428 l -17.891113049147652 2.8731508441481854" fill="#ffb510" stroke="none" /><path d="M 120.73433829027371 96.67025291283417 l 17.940450383541897 -2.881073973557376 a39.17031500017097,39.17031500017097 0 0,0 0.10117898766121258,0.6666431118544212 l -17.98738526464241 2.5718317493108724" fill="#ffb510" stroke="none" /><path d="M 120.78858239683441 97.02765380044208 l 32.501300648267645 -4.647027662515266 a53.83183531155797,53.83183531155797 0 0,0 0.12325952475425525,0.9184266288155682 l -32.57647617207973 4.086882691635034" fill="#8bff24" stroke="none" /><path d="M 120.87857604477298 97.74499172005257 l 29.345640406092784 -3.16950073387146 a50.51630643806432,50.51630643806432 0 0,0 0.08593274599452352,0.8653310249621344 l -29.395850277769537 2.663894178204891" fill="#b3ff20" stroke="none" /><path d="M 120.94382443527127 98.46500227214037 l 17.811019074267556 -1.3053907080992575 a38.858791822648996,38.858791822648996 0 0,0 0.04315066950412505,0.6675217582904238 l -17.8308503347761 0.9986098855557984" fill="#ffb110" stroke="none" /><path d="M 120.96714384426684 98.82574320788733 l 17.854766793292036 -0.9999493175768794 a38.88274575898697,38.88274575898697 0 0,0 0.031673499138599265,0.6685775065510406 l -17.869333900664135 0.6924607044028389" fill="#ffb110" stroke="none" /><line stroke="#e1ed5e" stroke-width="0.3" x1="184.98032266829074" x2="189.97916517819016" y1="98.17113171792111" y2="98.06355123074" /><path d="M 185.9800911702706 98.14961562048488 a86.0,86.0 0 0,1 -9.607161424134198,41.387399972396054" fill="none" id="id16" stroke="none" /><text fill="#e1ed5e" style="font-size:6.75px; font-family:Arial;" text-anchor="middle"><textPath startOffset="21.466115282336823" xlink:href="#id16">April</textPath></text><path d="M 120.99513854157772 99.54816195383933 l 53.13307888458684 -1.1434812160047907 a74.1453819352828,74.1453819352828 0 0,0 0.016477903321248894,1.276231771517309 l -53.144889795025804 0.22871318642701893" fill="#40ffc4" stroke="none" /><path d="M 120.99824983174949 100.27111621757518 l 18.163779354864076 0.2345193144675856 a39.16529327484268,39.16529327484268 0 0,0 -0.014505961715001212,0.674035040814051 l -18.157051330464068 -0.5471441710717514" fill="#ffb510" stroke="none" /><path d="M 120.9904718944345 100.63252640178507 l 6.349340130814102 0.19133087082802763 a27.35222225673018,27.35222225673018 0 0,0 -0.018232036827336772,0.470487858279088 l -6.3451059611355625 -0.3005959761211218" fill="#ff0500" stroke="none" /><path d="M 120.9764740272857 100.99374915477107 l 30.02633452102314 1.4224814195334528 a51.060010282055856,51.060010282055856 0 0,0 -0.04914805388193444,0.8775715178570503 l -29.997400116253676 -1.9391246537259264" fill="#acff20" stroke="none" /><path d="M 120.95626037817324 101.35467743843564 l 17.967097877015934 1.1614487360306447 a39.00459855949856,39.00459855949856 0 0,0 -0.04907789151704616,0.6696288371837433 l -17.94444342683455 -1.4705507097111583" fill="#ffb310" stroke="none" /><path d="M 120.89721153311464 102.0752229133903 l 18.110646756229986 1.7984997216154648 a39.19972876659415,39.19972876659415 0 0,0 -0.07245920250010453,0.6708822238015469 l -18.07700525222883 -2.1099782673018033" fill="#ffb610" stroke="none" /><path d="M 120.8583938346157 102.4346265915055 l 18.782762110377206 2.1923553874007573 a39.91027695830198,39.91027695830198 0 0,0 -0.08551915374589913,0.681671798400752 l -18.74224144738446 -2.5153449400889043" fill="#ffc011" stroke="none" /><path d="M 120.81339534386255 102.79330883721812 l 18.834072021059523 2.5276692701050063 a40.00293084851624,40.00293084851624 0 0,0 -0.0974660913800765,0.6816776161045763 l -18.787771878662845 -2.851492358189992" fill="#ffc111" stroke="none" /><path d="M 120.76222939487914 103.15116336523771 l 27.269238604040687 4.138757165845241 a48.58152796568635,48.58152796568635 0 0,0 -0.13260037873529265,0.8257026849616133 l -27.193956470944105 -4.607539080500058" fill="#cbff1d" stroke="none" /><path d="M 120.41448212921028 104.9243191809786 l 8.957241801740821 2.160638576761288 a30.21414888930292,30.21414888930292 0 0,0 -0.12630763908025,0.5045362319895536 l -8.91872284836551 -2.3145026481482374" fill="#ff3104" stroke="none" /><path d="M 120.32669344350535 105.2749913415812 l 16.085966540979975 4.174477981894597 a37.618802182433306,37.618802182433306 0 0,0 -0.1680520094501056,0.6253840440458543 l -16.011726455188093 -4.4507529591159996" fill="#ff9f0e" stroke="none" /><path d="M 120.23288151984713 105.62410040840565 l 10.626279888909274 2.9537693385108614 a32.02916939676622,32.02916939676622 0 0,0 -0.15222604477236565,0.5299188320335162 l -10.573861207250808 -3.13624564604896" fill="#ff4d07" stroke="none" /><path d="M 120.13307415673323 105.97154293290107 l 17.205778187238856 5.103296314274392 a38.946655295618484,38.946655295618484 0 0,0 -0.19616730622422313,0.641086106905138 l -17.1153841085085 -5.398709393731587" fill="#ffb210" stroke="none" /><path d="M 120.02730092923936 106.31721596034902 l 30.361300351507328 9.576871683066928 a52.83590787567347,52.83590787567347 0 0,0 -0.2810562063954491,0.86500205944421 l -30.19195189409563 -10.098072642488933" fill="#97ff23" stroke="none" /><path d="M 119.9155931802556 106.66101706037122 l 19.73750006630859 6.601451610344268 a41.812209691218484,41.812209691218484 0 0,0 -0.2341666303910285,0.680597838886313 l -19.620942604974335 -6.940222152319882" fill="#ffda14" stroke="none" /><path d="M 119.79798401119884 107.00284435728193 l 17.099589964637232 6.048381846755691 a39.13777549543731,39.13777549543731 0 0,0 -0.2301221786624119,0.6331974021359182 l -16.992943524969593 -6.34182704589774" fill="#ffb510" stroke="none" /><path d="M 119.67450827220406 107.3425965602758 l 16.69543774939274 6.230796830850436 a38.820226451736914,38.820226451736914 0 0,0 -0.23903225465166889,0.624037789538428 l -16.585711215147565 -6.517258187222008" fill="#ffb010" stroke="none" /><path d="M 119.41010516605496 108.01547362559984 l 58.230315498164885 24.046420876799505 a84.0,84.0 0 0,0 -0.5633960752307643,1.331701897335346 l -57.80776844174181 -25.045197299801014" fill="#4dd2ff" stroke="none" /><path d="M 119.12269723197855 108.67885076344098 l 9.344676116276482 4.241088402018469 a31.262056448482618,31.262056448482618 0 0,0 -0.22661326291643274,0.48810480785970856 l -9.270288236520217 -4.401313277157008" fill="#ff4106" stroke="none" /><path d="M 118.97047184881838 109.00673069616215 l 16.3190237015334 7.7478859184598345 a39.064890555347326,39.064890555347326 0 0,0 -0.29363170261258004,0.6049682782193693 l -16.183238742306106 -8.02764315264448" fill="#ffb410" stroke="none" /><line stroke="#e1ed5e" stroke-width="0.3" x1="174.80103733775053" x2="179.2010983576182" y1="140.37084112569926" y2="142.7455964860345" /><path d="M 175.68104954172406 140.8457921977663 a86.0,86.0 0 0,1 -30.038265399797805,32.042727171017184" fill="none" id="id17" stroke="none" /><text fill="#e1ed5e" style="font-size:6.75px; font-family:Arial;" text-anchor="middle"><textPath startOffset="22.206326154141568" xlink:href="#id17">May</textPath></text><path d="M 118.30583269289576 110.29060199501025 l 18.09600853234811 10.172649593644152 a41.759294895489205,41.759294895489205 0 0,0 -0.35763456328751714,0.6235660061988372 l -17.918221972908217 -10.482635445701304" fill="#ffd914" stroke="none" /><path d="M 118.12598468904814 110.60418214915192 l 19.402473799765787 11.350962159930463 a43.478886349345046,43.478886349345046 0 0,0 -0.38348196453533295,0.642737830402606 l -19.204210959532226 -11.683262084219173" fill="#fff016" stroke="none" /><path d="M 117.75023020441432 111.22182372390056 l 19.214473477153547 12.147528895403081 a43.73232168672813,43.73232168672813 0 0,0 -0.40774170949960564,0.6328241878992042 l -19.00252690427689 -12.476474683223739" fill="#fff417" stroke="none" /><path d="M 116.498646956653 112.99209946851258 l 6.946488633048777 5.470113489583397 a29.84171057646642,29.84171057646642 0 0,0 -0.3212702969039179,0.4008340929540345 l -6.851300424090006 -5.588875416115682" fill="#ff2c04" stroke="none" /><path d="M 116.0416608686014 113.55231037782055 l 35.48707951410075 29.980182221581963 a67.45582997299013,67.45582997299013 0 0,0 -0.7569748383930999,0.8805327519363239 l -34.96576216613687 -30.586592072679814" fill="#37ff74" stroke="none" /><path d="M 115.07121518719521 114.62390073753431 l 10.589539069562228 10.275240999882472 a35.755301261290825,35.755301261290825 0 0,0 -0.43239971234611607,0.4380186257167712 l -10.411098732160577 -10.456000119579908" fill="#ff850c" stroke="none" /><path d="M 114.55890576462653 115.13401014063108 l 20.405112607873768 21.21115323643297 a50.432662845203964,50.432662845203964 0 0,0 -0.6308025383659627,0.5964631727342644 l -20.036974235116997 -21.559251045913157" fill="#b4ff20" stroke="none" /><path d="M 113.48314897796784 116.09983520530334 l 9.108193298972013 10.875828144531786 a35.186008000872846,35.186008000872846 0 0,0 -0.4676888519194813,0.3848760850348032 l -8.91963431850784 -11.030999348423766" fill="#ff7c0b" stroke="none" /><path d="M 112.92097659922987 116.55440617244103 l 13.341336168923709 17.092972510808906 a42.68319533711535,42.68319533711535 0 0,0 -0.5830753580151838,0.4470773209172744 l -13.045132082415032 -17.32008917355355" fill="#ffe615" stroke="none" /><path d="M 111.45004920935366 117.60387380957326 l 9.540938497241182 14.66871227008588 a38.4985892880171,38.4985892880171 0 0,0 -0.5586295595990437,0.35654381557893333 l -9.287027135595206 -14.830770514488622" fill="#ffac0f" stroke="none" /><line stroke="#e1ed5e" stroke-width="0.3" x1="143.8653032363475" x2="146.44561519142675" y1="172.8068346515853" y2="177.08958963109032" /><path d="M 144.38136562736335 173.6633856474863 a86.0,86.0 0 0,1 -40.68145358897372,12.25698825130547" fill="none" id="id18" stroke="none" /><text fill="#e1ed5e" style="font-size:6.75px; font-family:Arial;" text-anchor="middle"><textPath startOffset="21.466115282336833" xlink:href="#id18">June</textPath></text><path d="M 110.21172684928248 118.3499491758327 l 14.635082415552148 26.29849216230986 a51.09645041065602,51.09645041065602 0 0,0 -0.7722308454679542,0.4210818288313018 l -14.180228758215545 -26.54651464290093" fill="#acff20" stroke="none" /><path d="M 109.57404056367764 118.69057910512821 l 10.864613054188423 21.21005320431967 a44.830782063275066,44.830782063275066 0 0,0 -0.6898520018701491,0.34590611483033296 l -10.497907144635514 -21.393927160059306" fill="#fcff18" stroke="none" /><path d="M 108.2653958097858 119.30500536409082 l 3.6165977626240267 8.447077528284158 a30.188737570823335,30.188737570823335 0 0,0 -0.47946693245766037,0.20041721665322165 l -3.470659370668905 -8.508079787957353" fill="#ff3104" stroke="none" /><path d="M 107.2578585660854 119.70592522655815 l 4.306563683007775 11.692818363438397 a33.46067783213111,33.46067783213111 0 0,0 -0.5421911502068794,0.19441045622704825 l -4.104652972171161 -11.765216360705406" fill="#ff6309" stroke="none" /><path d="M 106.91757812671514 119.82793768551818 l 5.973357090625427 17.121505532241954 a39.13358614898655,39.13358614898655 0 0,0 -0.6379338570241239,0.21642180034801342 l -5.6777535006640765 -17.22179031948809" fill="#ffb510" stroke="none" /><path d="M 105.53697534728816 120.25689768951611 l 4.764645042235274 17.43134492998803 a39.07079490356516,39.07079490356516 0 0,0 -0.6502674393213267,0.17174154091354799 l -4.46388716010245 -17.51077782020516" fill="#ffb410" stroke="none" /><line stroke="#e1ed5e" stroke-width="0.3" x1="102.19456741930631" x2="102.32365962044197" y1="184.97166512339345" y2="189.96999836594603" /><path d="M 102.22038585953345 185.97133177190398 a86.0,86.0 0 0,1 -42.740103519485714,-10.115201625700543" fill="none" id="id19" stroke="none" /><text fill="#e1ed5e" style="font-size:6.75px; font-family:Arial;" text-anchor="middle"><textPath startOffset="22.20632615414155" xlink:href="#id19">July</textPath></text><path d="M 95.16358092515715 120.4354850818985 l -5.8896413792829785 24.88570090423361 a46.573149690085806,46.573149690085806 0 0,0 -0.7785405341841611,-0.1913463215053776 l 6.31713519821035 -24.780633324414204" fill="#e5ff1a" stroke="none" /><path d="M 93.08242187328487 119.8279376855182 l -5.948201883638272 17.049402858810463 a39.0572213668253,39.0572213668253 0 0,0 -0.6328765927278734,-0.2269270294815741 l 6.240798036995872 -16.94448828828893" fill="#ffb410" stroke="none" /><line stroke="#e1ed5e" stroke-width="0.3" x1="58.666819895761336" x2="56.23545636021788" y1="174.27360380694188" y2="178.64263932499728" /><path d="M 58.180547188652646 175.14741091055294 a86.0,86.0 0 0,1 -31.652253787137756,-30.449443065178592" fill="none" id="id20" stroke="none" /><text fill="#e1ed5e" style="font-size:6.75px; font-family:Arial;" text-anchor="middle"><textPath startOffset="22.20632615414155" xlink:href="#id20">August</textPath></text><path d="M 89.4739219176387 118.17145234162733 l -4.525937072720358 7.813247172843788 a30.029448364666358,30.029448364666358 0 0,0 -0.44505376887516096,-0.26294561135837996 l 4.659758712623901 -7.734182989191658" fill="#ff2e04" stroke="none" /><path d="M 89.1626897886671 117.98757091392108 l -4.675125746613309 7.759688913469073 a30.05922583781095,30.05922583781095 0 0,0 -0.44089841866561646,-0.2708358193678209 l 4.808003365211234 -7.678064627272874" fill="#ff2f04" stroke="none" /><path d="M 88.8546689885994 117.79835938074946 l -5.125803845119667 8.185571057274734 a30.65802456987646,30.65802456987646 0 0,0 -0.4448599047492333,-0.2839306390288699 l 5.265945551915824 -8.09612598942206" fill="#ff3805" stroke="none" /><path d="M 88.54995079064634 117.60387380957326 l -6.769644245001142 10.4079869741827 a33.415888049536925,33.415888049536925 0 0,0 -0.4794786920665916,-0.31777233192778515 l 6.947797635807695 -10.289916621163597" fill="#ff6209" stroke="none" /><path d="M 87.65650970185807 116.9893568818739 l -5.469886516950776 7.52865290896009 a30.305926774476205,30.305926774476205 0 0,0 -0.41939799076462986,-0.3102606071777865 l 5.59866947813397 -7.433382353042537" fill="#ff3304" stroke="none" /><line stroke="#e1ed5e" stroke-width="0.3" x1="26.63291911575756" x2="22.317208475507996" y1="142.92168965132927" y2="145.44649492493687" /><path d="M 25.769776987707644 143.4266507060508 a86.0,86.0 0 0,1 -11.730757126820373,-40.83630448921669" fill="none" id="id21" stroke="none" /><text fill="#e1ed5e" style="font-size:6.75px; font-family:Arial;" text-anchor="middle"><textPath startOffset="21.46611528233685" xlink:href="#id21">September</textPath></text><line stroke="#e1ed5e" stroke-width="0.3" x1="15.007084014347285" x2="10.007500721073583" y1="101.09737516637583" y2="101.16192664675087" /><path d="M 14.007167355692545 101.11028546245083 a86.0,86.0 0 0,1 10.666146001902534,-42.60595125391555" fill="none" id="id22" stroke="none" /><text fill="#e1ed5e" style="font-size:6.75px; font-family:Arial;" text-anchor="middle"><textPath startOffset="22.20632615414155" xlink:href="#id22">October</textPath></text><line stroke="#e1ed5e" stroke-width="0.3" x1="26.266209847984243" x2="21.928928074336255" y1="57.711370442889674" y2="55.22380399835377" /><path d="M 25.398753493254645 57.213857153982495 a86.0,86.0 0 0,1 29.58750427330803,-30.492523968695096" fill="none" id="id23" stroke="none" /><text fill="#e1ed5e" style="font-size:6.75px; font-family:Arial;" text-anchor="middle"><textPath startOffset="21.46611528233685" xlink:href="#id23">November</textPath></text><line stroke="#e1ed5e" stroke-width="0.3" x1="56.762969772571076" x2="54.21961505331055" y1="26.818313649435495" y2="22.513508569990535" /><path d="M 56.25429882871897 25.957352633546506 a86.0,86.0 0 0,1 42.265352541879196,-11.944610805530505" fill="none" id="id24" stroke="none" /><text fill="#e1ed5e" style="font-size:6.75px; font-family:Arial;" text-anchor="middle"><textPath startOffset="22.20632615414155" xlink:href="#id24">December</textPath></text></svg>