<?xml version="1.0" encoding="utf-8" ?>
<svg baseProfile="full" height="200mm" version="1.1" viewBox="0,0,200,200" width="200mm" xmlns="http://www.w3.org/2000/svg" xmlns:ev="http://www.w3.org/2001/xml-events" xmlns:xlink="http://www.w3.org/1999/xlink"><defs /><rect fill="#1a1a1a" height="200" width="200" x="0" y="0" /><text alignment-baseline="middle" fill="#e1ed5e" style="dominant-baseline: central; font-size:9.0px; font-family:Arial;" text-anchor="middle" x="100.0" y="100.0">2024</text><line stroke="#e1ed5e" stroke-width="0.3" x1="100.0" x2="100.0" y1="15.0" y2="10.0" /><path d="M 100.0 14.0 a86.0,86.0 0 0,1 42.35913384403234,11.155469271406648" fill="none" id="id25" stroke="none" /><text fill="#e1ed5e" style="font-size:6.75px; font-family:Arial;" text-anchor="middle"><textPath startOffset="22.145653131862478" xlink:href="#id25">January</textPath></text><path d="M 101.08105385017728 79.02784411241856 l 0.6461327470282219 -12.534802676596508 a33.55144476416931,33.55144476416931 0 0,0 0.57493699488105,0.034586781917541304 l -0.8612140940417343 12.521863916854276" fill="#ff860c" stroke="none" /><path d="M 101.44090949804482 79.04949213459386 l 1.3193508881455294 -19.183072355918217 a40.22838921434773,40.22838921434773 0 0,0 0.6885395416136266,0.05329731514929777 l -1.6484594245343895 19.157597273773867" fill="#ffe015" stroke="none" /><path d="M 102.15924093988457 79.11130261209362 l 1.312694048917524 -12.699124143232298 a33.76678971673337,33.76678971673337 0 0,0 0.5760680225571891,0.06454962349044277 l -1.53049797307551 12.674718759234885" fill="#ff890c" stroke="none" /><path d="M 102.87502721639298 79.19773525538626 l 4.046510368775272 -29.2785332615724 a50.55683941346921,50.55683941346921 0 0,0 0.8586835885051672,0.12619691711689596 l -4.548519062888121 29.20475527115662" fill="#a0ff22" stroke="none" /><path d="M 103.58742460773223 79.30868818359171 l 3.13511445988339 -18.082507080360553 a39.352275199218745,39.352275199218745 0 0,0 0.66461357947158,0.12111473362290129 l -3.4450627729060237 18.026024172806284" fill="#ffd413" stroke="none" /><path d="M 104.29559338865022 79.4440306129975 l 4.572145217337379 -21.87937000015952 a43.351987461796355,43.351987461796355 0 0,0 0.7271523475381307,0.15847946973559107 l -4.947059981494644 21.79765907229021" fill="#f7ff19" stroke="none" /><path d="M 104.9986988182912 79.60360301121754 l 2.8140102071898 -11.482121928672194 a32.82191936324484,32.82191936324484 0 0,0 0.5460859472238418,0.13881291233181567 l -3.0107014476390366 11.43212378450511" fill="#ff7c0b" stroke="none" /><path d="M 105.3480935250658 79.69241777938227 l 5.36063692271704 -20.35521154458795 a42.04925331792374,42.04925331792374 0 0,0 0.6964529705134503,0.18982135410223647 l -5.709271294165183 20.26018969634157" fill="#fff717" stroke="none" /><path d="M 105.69591212413111 79.78721728523813 l 4.016992626686688 -14.254889710470122 a35.81006787359606,35.81006787359606 0 0,0 0.5902522119228784,0.17181381646284274 l -4.261104850991171 14.183832199704764" fill="#ffa50f" stroke="none" /><path d="M 107.06938296918511 80.22567764915836 l 5.262244189928054 -14.719433556515265 a36.63179254401424,36.63179254401424 0 0,0 0.590314094821427,0.21677151232063244 l -5.514147436403605 14.62693119518591" fill="#ffb010" stroke="none" /><line stroke="#e1ed5e" stroke-width="0.3" x1="143.13028292997686" x2="145.6673583964461" y1="26.7553504044142" y2="22.446841604673864" /><path d="M 143.63769802327073 25.89364864446614 a86.0,86.0 0 0,1 29.32050498858742,28.57503671076993" fill="none" id="id26" stroke="none" /><text fill="#e1ed5e" style="font-size:6.75px; font-family:Arial;" text-anchor="middle"><textPath startOffset="20.669276256404974" xlink:href="#id26">February</textPath></text><path d="M 115.8921839302757 86.27271002978787 l 11.179741796711419 -9.656794692842158 a35.77295875513232,35.77295875513232 0 0,0 0.39742979795277233,0.4681713026653564 l -11.343866158171302 9.46345660772725" fill="#ffa50f" stroke="none" /><path d="M 116.1254893667686 86.54754324733833 l 14.140165684783875 -11.796229126666443 a39.414540645966525,39.414540645966525 0 0,0 0.4289675539468594,0.5232706666665422 l -14.340580057969362 11.551756178301407" fill="#ffd513" stroke="none" /><path d="M 116.57777611688842 87.10902102172516 l 11.66069069424196 -9.067423612899676 a35.77125175611572,35.77125175611572 0 0,0 0.3727841768755813,0.4879864540629775 l -11.814626848471848 8.865916245595816" fill="#ffa40f" stroke="none" /><path d="M 116.7966241395341 87.39550010848427 l 12.588793213685397 -9.446865118731699 a36.739154206895655,36.739154206895655 0 0,0 0.3742109946215892,0.5076890835066185 l -12.749106227890813 9.229369725956206" fill="#ffb210" stroke="none" /><path d="M 117.01052211995028 87.68569379921539 l 15.29633475336 -11.073366741733423 a39.88378425749926,39.88378425749926 0 0,0 0.396720016422859,0.5580363857075361 l -15.48416986831282 10.809153129316382" fill="#ffdb14" stroke="none" /><path d="M 117.42321728460499 88.27688183743584 l 13.576117349985594 -9.134617635937195 a37.36313544695376,37.36313544695376 0 0,0 0.35348294755259574,0.5352182357517552 l -13.730924736458913 8.900219521846381" fill="#ffba11" stroke="none" /><line stroke="#e1ed5e" stroke-width="0.3" x1="172.87174338648825" x2="177.1583165268699" y1="56.24261187166439" y2="53.66864786411523" /><path d="M 173.72905801456457 55.72781907015455 a86.0,86.0 0 0,1 12.242430191666344,42.057860355516425" fill="none" id="id27" stroke="none" /><text fill="#e1ed5e" style="font-size:6.75px; font-family:Arial;" text-anchor="middle"><textPath startOffset="22.145653131862474" xlink:href="#id27">March</textPath></text><path d="M 118.00360718960297 89.18935116829356 l 16.193903067596693 -9.72397350346446 a39.88910154715667,39.88910154715667 0 0,0 0.34746501677515773,0.5900715615925671 l -16.35844179450162 9.444550773578337" fill="#ffdb14" stroke="none" /><path d="M 118.36410011445183 89.81374322990088 l 7.8361922223920635 -4.346603731174545 a29.960963817700545,29.960963817700545 0 0,0 0.24561520243922128,0.4519043082713783 l -7.909652774446625 4.211444589428563" fill="#ff5307" stroke="none" /><path d="M 118.8641267826498 90.77261029715802 l 17.002766031941192 -8.31690488569369 a39.927888408763636,39.927888408763636 0 0,0 0.2958860772507441,0.6182881014033144 l -17.14303136715185 8.023804282225273" fill="#ffdc14" stroke="none" /><path d="M 119.0197475246899 91.09779779509293 l 18.613043038445138 -8.711843969631145 a41.55095123107954,41.55095123107954 0 0,0 0.29682324689105033,0.6486123625242002 l -18.759850750191237 8.391042624892261" fill="#fff116" stroke="none" /><path d="M 119.58574465831526 92.42381321644754 l 14.115198122719615 -5.46006186285957 a36.1344340359949,36.1344340359949 0 0,0 0.21881863176712732,0.5804424179796629 l -14.206847438301184 5.216951164685749" fill="#ffa90f" stroke="none" /><path d="M 119.94978838288452 93.4421083053983 l 8.448808743531071 -2.777291248663831 a29.893577225429134,29.893577225429134 0 0,0 0.15606623026402072,0.4888752434738225 l -8.49523968957235 2.6318469714986215" fill="#ff5207" stroke="none" /><path d="M 120.35273937422433 94.82641323984039 l 17.458404247506028 -4.43785808915729 a39.013618828232026,39.013618828232026 0 0,0 0.15942167291434203,0.6504948282697811 l -17.532013446936663 4.137507436279415" fill="#ffd013" stroke="none" /><path d="M 120.51834098615036 95.52812308129327 l 21.50498986208616 -4.68691244902292 a43.00981002356073,43.00981002356073 0 0,0 0.1510305641974506,0.7227359233645092 l -21.582278137107977 4.317060074373006" fill="#fbff18" stroke="none" /><path d="M 120.592083275326 95.88100663000786 l 19.318304989838005 -3.8642020386530813 a40.70098893649582,40.70098893649582 0 0,0 0.13116127757693255,0.6862912277628863 l -19.381792559697093 3.5320082458568804" fill="#ffe615" stroke="none" /><path d="M 120.7213421655516 96.59031103205396 l 25.508879185273663 -4.197476362669808 a46.851919176418214,46.851919176418214 0 0,0 0.1237749793507753,0.7947241576111002 l -25.577175656762705 3.758964023127266" fill="#ccff1d" stroke="none" /><path d="M 120.82617615685814 97.30363454192243 l 11.754716286199725 -1.5218833608671618 a32.852825989321424,32.852825989321424 0 0,0 0.06761098093965587,0.5599159120244271 l -11.779109353399045 1.3198737719193216" fill="#ff7c0b" stroke="none" /><path d="M 120.86939407059847 97.66154086499901 l 16.929374570430404 -1.896971731912917 a38.03532286449577,38.03532286449577 0 0,0 0.06713706760829724,0.6494902272722287 l -16.959444030520366 1.6060769823577568" fill="#ffc312" stroke="none" /><path d="M 120.93736805541906 98.37931529534042 l 12.867243927700331 -0.9960060581420753 a33.90573494082366,33.90573494082366 0 0,0 0.03993778934396142,0.5806866919213042 l -12.88244567820936 0.774975942066437" fill="#ff8b0c" stroke="none" /><path d="M 120.98066250479742 99.09900007780936 l 12.707810124224952 -0.5457280450758905 a33.719522681788675,33.719522681788675 0 0,0 0.019870935595429223,0.5785206087684059 l -12.71530574681723 0.32750117174336457" fill="#ff880c" stroke="none" /><path d="M 120.99303781780057 99.45929381324524 l 11.928836560975453 -0.30724451531434366 a32.932792669390324,32.932792669390324 0 0,0 0.009705087622927239,0.5652726992110984 l -11.932353080197046 0.10242490013417893" fill="#ff7d0b" stroke="none" /><line stroke="#e1ed5e" stroke-width="0.3" x1="184.99686870605535" x2="189.99668451229388" y1="99.2704041080226" y2="99.22748670261217" /><path d="M 185.99683186730306 99.26182062694052 a86.0,86.0 0 0,1 -10.086455211305974,41.156179273409016" fill="none" id="id28" stroke="none" /><text fill="#e1ed5e" style="font-size:6.75px; font-family:Arial;" text-anchor="middle"><textPath startOffset="21.40746469413373" xlink:href="#id28">April</textPath></text><path d="M 120.99922638620191 99.81974689727618 l 21.952795931839105 -0.18843835041357146 a42.95360467524361,42.95360467524361 0 0,0 0.0,0.737382906274794 l -21.952795931839105 -0.1884383504135688" fill="#fcff18" stroke="none" /><path d="M 120.99922638620191 100.18025310272382 l 18.149588954296807 0.15579239263422154 a39.15025758714006,39.15025758714006 0 0,0 -0.011537335571798537,0.6719919565661863 l -18.14424018712634 -0.4673312651694788" fill="#ffd213" stroke="none" /><path d="M 120.98066250479742 100.90099992219065 l 28.963185311337195 1.2438037981851602 a49.98988015268843,49.98988015268843 0 0,0 -0.04417774851858674,0.8570365190802182 l -28.937565973362034 -1.740812110642109" fill="#a7ff21" stroke="none" /><path d="M 120.93736805541906 101.62068470465957 l 26.30007607325244 2.0357922213757553 a47.378749997440735,47.378749997440735 0 0,0 -0.06972883445382455,0.8103547524157781 l -26.261253616100877 -2.4869680211671907" fill="#c5ff1e" stroke="none" /><path d="M 120.82617615685814 102.69636545807757 l 11.683492778033717 1.5126620517907632 a32.78100802042397,32.78100802042397 0 0,0 -0.07704392850740746,0.5574514872895325 l -11.6558043329711 -1.713001847280381" fill="#ff7b0b" stroke="none" /><path d="M 120.77682067341334 103.0534771498775 l 10.375515034470927 1.5248434095842105 a31.48696617970539,31.48696617970539 0 0,0 -0.08318332860680429,0.5340966413493231 l -10.347810213725856 -1.7027282328649842" fill="#ff6909" stroke="none" /><path d="M 120.7213421655516 103.40968896794604 l 22.426473267635856 3.690267641915516 a43.72806147679459,43.72806147679459 0 0,0 -0.12823812603615203,0.73964343302068 l -22.35982032410747 -4.074704107856784" fill="#f2ff19" stroke="none" /><path d="M 120.592083275326 104.11899336999214 l 26.435943728798478 5.287929127543905 a47.95962379726629,47.95962379726629 0 0,0 -0.16841202127679533,0.805912487647432 l -26.341273996697318 -5.740958066476747" fill="#beff1e" stroke="none" /><path d="M 120.43855184770803 104.8234425847677 l 17.287967223915032 4.079913192149725 a38.762868641935,38.762868641935 0 0,0 -0.15839703035658828,0.6463139369740422 l -17.215382667042146 -4.376082953731867" fill="#ffcc13" stroke="none" /><path d="M 120.35273937422433 105.17358676015961 l 18.17524152880131 4.620075322892165 a39.753253067653645,39.753253067653645 0 0,0 -0.1737984192305824,0.6599409063802727 l -18.093253628765996 -4.931396733645241" fill="#ffd914" stroke="none" /><path d="M 120.05942366710727 106.21446072829308 l 16.648960688047502 5.157890579499727 a38.42962211931869,38.42962211931869 0 0,0 -0.200630597315438,0.6284724885386952 l -16.55796537495481 -5.442932101729806" fill="#ffc812" stroke="none" /><path d="M 119.71291397450082 107.23885506374661 l 21.90685694358848 8.044501311272201 a44.337188830146424,44.337188830146424 0 0,0 -0.2684919040533211,0.7122066742585533 l -21.76553435572072 -8.419376265724914" fill="#eaff1a" stroke="none" /><path d="M 119.58574465831526 107.57618678355244 l 28.694849751812264 11.099784319581929 a51.76685902428646,51.76685902428646 0 0,0 -0.3277121348347848,0.8260486571946295 l -28.500078942011353 -11.590733993990122" fill="#92ff23" stroke="none" /><line stroke="#e1ed5e" stroke-width="0.3" x1="174.33088141563837" x2="178.70328620479359" y1="141.23008692659167" y2="143.65538615756765" /><path d="M 175.20536237346943 141.71514677278685 a86.0,86.0 0 0,1 -30.301960400862466,31.631185727798858" fill="none" id="id29" stroke="none" /><text fill="#e1ed5e" style="font-size:6.75px; font-family:Arial;" text-anchor="middle"><textPath startOffset="22.145653131862474" xlink:href="#id29">May</textPath></text><path d="M 118.00360718960297 110.81064883170644 l 14.128502626464547 8.48375988233937 a37.479950491649134,37.479950491649134 0 0,0 -0.33594892253113207,0.5487473174129176 l -13.98078573947801 -8.725044315876845" fill="#ffbb11" stroke="none" /><path d="M 117.423217284605 111.72311816256416 l 15.214359046349262 10.236899761654605 a39.33768900165432,39.33768900165432 0 0,0 -0.38178213088115454,0.5570315386528167 l -15.036387178652788 -10.496566035377466" fill="#ffd413" stroke="none" /><path d="M 116.79662413953412 112.60449989151573 l 23.547955499893124 17.6708248084935 a50.44086034132522,50.44086034132522 0 0,0 -0.5256610736307957,0.6881072193298714 l -23.241142448908022 -18.07245294106425" fill="#a1ff22" stroke="none" /><path d="M 116.35404254752997 113.17365903436017 l 22.932952898339096 18.473163516343565 a50.44788785191574,50.44788785191574 0 0,0 -0.5490488205356353,0.6697502869640204 l -22.612457258564834 -18.864116085006078" fill="#a1ff22" stroke="none" /><path d="M 115.89218393027572 113.72728997021213 l 22.915793210441937 19.794116383077693 a51.281027423959074,51.281027423959074 0 0,0 -0.581157959797077,0.6612510765538326 l -22.572624186686273 -20.18457973744282" fill="#98ff23" stroke="none" /><path d="M 115.41159269507618 114.26474011684316 l 13.925341837147588 12.889088511181397 a39.97481878518162,39.97481878518162 0 0,0 -0.4704544409622764,0.49960631320676463 l -13.70203156244905 -13.12623628433266" fill="#ffdc14" stroke="none" /><path d="M 114.13192950727249 115.5334660781643 l 3.965926012997636 4.359247416264394 a26.893352795886152,26.893352795886152 0 0,0 -0.34415164010628096,0.3077425187273598 l -3.890509346067977 -4.426685464875141" fill="#ff2603" stroke="none" /><path d="M 112.45986205192187 116.90419585922612 l 2.4604319903373058 3.3380485345383137 a25.146841400151274,25.146841400151274 0 0,0 -0.3496835818075357,0.2531439463997881 l -2.402767398155802 -3.379793252311179" fill="#ff0c01" stroke="none" /><line stroke="#e1ed5e" stroke-width="0.3" x1="143.1302829299769" x2="145.66735839644613" y1="173.24464959558577" y2="177.55315839532614" /><path d="M 143.63769802327073 174.10635135553383 a86.0,86.0 0 0,1 -40.68552437913181,11.842963189579606" fill="none" id="id30" stroke="none" /><text fill="#e1ed5e" style="font-size:6.75px; font-family:Arial;" text-anchor="middle"><textPath startOffset="21.407464694133747" xlink:href="#id30">June</textPath></text><path d="M 110.34350942703117 118.27599006163325 l 9.055956882444665 16.001008086250895 a39.385935244989945,39.385935244989945 0 0,0 -0.591268809090038,0.32796684139192295 l -8.779943885198533 -16.154107843075963" fill="#ffd513" stroke="none" /><path d="M 109.71004243097381 118.62028667847754 l 8.799809874744064 16.87479573324575 a40.03143149819299,40.03143149819299 0 0,0 -0.6120477585670111,0.31251594653725234 l -8.50883489446347 -17.02336963145584" fill="#ffdd14" stroke="none" /><path d="M 109.3889696526874 118.78422872680471 l 9.344747858466699 18.69575551535776 a41.90109056552667,41.90109056552667 0 0,0 -0.6461542249708387,0.3160664106343662 l -9.022433384233791 -18.85341567608935" fill="#fff517" stroke="none" /><path d="M 108.73861861582097 119.09545874513695 l 7.456241919264879 16.293234231015475 a38.91828745347438,38.91828745347438 0 0,0 -0.6098803230833538,0.27279171115065065 l -7.175448193325899 -16.418829693075978" fill="#ffcf13" stroke="none" /><path d="M 107.407793817531 119.65005319985036 l 10.389839635634226 27.56028402072521 a50.453658906106,50.453658906106 0 0,0 -0.8130507386937448,0.2985634931745395 l -9.915199745286355 -27.73457836290847" fill="#a1ff22" stroke="none" /><path d="M 106.72888874123015 119.89276391827305 l 9.424559004324188 27.862034061894935 a50.412841659591166,50.412841659591166 0 0,0 -0.8221548570940495,0.27025863159727015 l -8.944881409582404 -28.019713614894222" fill="#a2ff22" stroke="none" /><path d="M 105.69591212413111 120.21278271476187 l 4.110583828501066 14.5870118684425 a36.15512502954749,36.15512502954749 0 0,0 -0.5988297588956261,0.16321371366466017 l -3.859572668670745 -14.655426076251302" fill="#ffaa0f" stroke="none" /><path d="M 105.3480935250658 120.30758222061773 l 3.9731317083404614 15.086628246553435 a36.601029691066046,36.601029691066046 0 0,0 -0.6089621922170737,0.15479580793344905 l -3.71356422289799 -15.152609286322154" fill="#ffb010" stroke="none" /><path d="M 104.9986988182912 120.39639698878246 l 0.7953039191230951 3.2451113881500913 a24.34114594791577,24.34114594791577 0 0,0 -0.40669168829754637,0.09597813107416601 l -0.7394800770856695 -3.2582856628704824" fill="#ff0000" stroke="none" /><path d="M 104.64783097203109 120.47920084513623 l 4.766119856879024 21.00040349754027 a42.53445716867825,42.53445716867825 0 0,0 -0.7134397335005762,0.15549086932920106 l -4.404917706759313 -21.07912582500319" fill="#fffd17" stroke="none" /><path d="M 104.29559338865022 120.5559693870025 l 6.017984587941836 28.798234788245797 a50.420307024564444,50.420307024564444 0 0,0 -0.8487502730376963,0.16977382524527215 l -5.522737829373181 -28.897298010153932" fill="#a2ff22" stroke="none" /><path d="M 103.58742460773223 120.69131181640829 l 1.326859875620521 7.652975163288542 a28.767147866459283,28.767147866459283 0 0,0 -0.48729150805230387,0.08018363221383767 l -1.1952908645151448 -7.67462479399805" fill="#ff4206" stroke="none" /><path d="M 102.875027216393 120.80226474461374 l 3.5387771399887598 25.604828545098112 a46.84821441551385,46.84821441551385 0 0,0 -0.7975845551601185,0.10326328886456168 l -3.098714762937866 -25.66180343016307" fill="#ccff1d" stroke="none" /><path d="M 102.51750503828377 120.84855314841334 l 3.489913828703057 28.901492880705458 a50.1114374304197,50.1114374304197 0 0,0 -0.8549109024046321,0.09579454978793873 l -2.9932670246976256 -28.957143191000366" fill="#a5ff21" stroke="none" /><path d="M 102.15924093988457 120.88869738790638 l 2.8137157713701244 27.220147690823346 a48.36518658354612,48.36518658354612 0 0,0 -0.826585075323805,0.07827846603042736 l -2.346031132661304 -27.264437912358957" fill="#baff1f" stroke="none" /><path d="M 101.08105385017728 120.97215588758144 l 1.514243309085639 29.37591566290929 a50.41491719916053,50.41491719916053 0 0,0 -0.8646740217418952,0.037132822956924535 l -1.0097435267429145 -29.397581054292043" fill="#a2ff22" stroke="none" /><line stroke="#e1ed5e" stroke-width="0.3" x1="101.45913802915013" x2="101.54496967792366" y1="184.9874750549273" y2="189.98673829345242" /><path d="M 101.47630435890484 185.9873277026323 a86.0,86.0 0 0,1 -42.54439059252881,-10.42667462771756" fill="none" id="id31" stroke="none" /><text fill="#e1ed5e" style="font-size:6.75px; font-family:Arial;" text-anchor="middle"><textPath startOffset="22.145653131862474" xlink:href="#id31">July</textPath></text><path d="M 100.36049292484886 120.99690560180557 l 0.5280867807678975 30.75840750548411 a51.76294049536622,51.76294049536622 0 0,0 -0.888579705616746,0.00762738807654776 l -3.767373661001074e-15 -30.762940495366223" fill="#92ff23" stroke="none" /><path d="M 99.63950707515114 120.99690560180557 l -1.0667781919164017 62.13448156610884 a83.14363857387067,83.14363857387067 0 0,0 -1.4268504934160529,-0.03675060732324603 l 2.1332419994031984 -62.107013241435546" fill="#4cdaff" stroke="none" /><path d="M 98.55909050195518 120.95050786540614 l -2.0273504797068647 29.47723103266849 a50.54686615059001,50.54686615059001 0 0,0 -0.865148138641341,-0.06696793751007385 l 2.5330676131234418 -29.438085328163364" fill="#a0ff22" stroke="none" /><path d="M 97.48249496171623 120.84855314841334 l -1.78828744713415 14.809585410654588 a35.91716434276471,35.91716434276471 0 0,0 -0.6114848965395974,-0.07916896221117116 l 2.0422501655645413 -14.77670485224302" fill="#ffa60f" stroke="none" /><path d="M 97.12497278360702 120.80226474461374 l -4.041448284459768 29.241906541139937 a50.51986453892913,50.51986453892913 0 0,0 -0.8580555880541243,-0.12610462267697692 l 4.542828978121578 -29.168220845164075" fill="#a0ff22" stroke="none" /><path d="M 96.41257539226777 120.69131181640829 l -5.205804697701341 30.025698107577227 a51.47364352022869,51.47364352022869 0 0,0 -0.8693292140095147,-0.15842074167229966 l 5.720468645261913 -29.931909191973563" fill="#96ff23" stroke="none" /><path d="M 95.35216902796893 120.47920084513623 l -4.601036564538394 20.273016051575855 a41.78857179547627,41.78857179547627 0 0,0 -0.6982031516268965,-0.16477404267532986 l 4.948371869905179 -20.1910458652543" fill="#fff417" stroke="none" /><path d="M 94.6519064749342 120.30758222061772 l -9.752960304583196 37.033578854122034 a59.29629482661802,59.29629482661802 0 0,0 -0.9821121045884555,-0.2676790213641198 l 10.387253810106346 -36.86069933861377" fill="#41ff2d" stroke="none" /><path d="M 93.95794788825049 120.11202640906438 l -8.470879634258507 28.19680329815663 a50.441730893631785,50.441730893631785 0 0,0 -0.8271467870185908,-0.25625218898435265 l 8.953667054148731 -28.04723452136563" fill="#a1ff22" stroke="none" /><path d="M 92.93061703081489 119.77432235084164 l -9.948059919374035 27.82649411817981 a50.55127190272107,50.55127190272107 0 0,0 -0.8146237528363401,-0.2991411257562151 l 10.424272823864493 -27.651622143414876" fill="#a0ff22" stroke="none" /><path d="M 92.59220618246901 119.65005319985036 l -10.27986662367919 27.268567540934697 a50.141901680143505,50.141901680143505 0 0,0 -0.8028141979136479,-0.31054577816623025 l 10.746453084086367 -27.088081874630426" fill="#a5ff21" stroke="none" /><path d="M 91.92203290615298 119.3841803445677 l -3.1662069872360368 7.597744152184336 a29.231074224429857,29.231074224429857 0 0,0 -0.4615237584719349,-0.19699704859259068 l 3.296165820878403 -7.542272453932341" fill="#ff4906" stroke="none" /><path d="M 90.6110303473126 118.78422872680471 l -27.861457445335287 55.741578541103735 a83.31680663538742,83.31680663538742 0 0,0 -1.2738456468750514,-0.650434663803983 l 28.814230313923918 -55.255085925626915" fill="#4cd8ff" stroke="none" /><line stroke="#e1ed5e" stroke-width="0.3" x1="58.13341422392154" x2="55.67067388415222" y1="173.97424548756322" y2="178.32567169271397" /><path d="M 57.64086615596768 174.84453072859336 a86.0,86.0 0 0,1 -31.369924170532247,-30.572349798747897" fill="none" id="id32" stroke="none" /><text fill="#e1ed5e" style="font-size:6.75px; font-family:Arial;" text-anchor="middle"><textPath startOffset="22.145653131862474" xlink:href="#id32">August</textPath></text><path d="M 89.65649057296885 118.27599006163327 l -15.930604811426106 28.147852260719343 a53.3432490104058,53.3432490104058 0 0,0 -0.7930554347546176,-0.45787076873787763 l 16.411452714041122 -27.870234594705295" fill="#81ff25" stroke="none" /><path d="M 89.03521579738668 117.91015095944536 l -16.95730910144728 27.69849002596078 a53.477017746096635,53.477017746096635 0 0,0 -0.7788185862907365,-0.48604039901900703 l 17.430291816527728 -27.403313830100227" fill="#7fff26" stroke="none" /><path d="M 88.4268655584334 117.5232005979908 l -34.25870911165757 51.87205203766111 a83.16404855376612,83.16404855376612 0 0,0 -1.184508362824395,-0.7969900894368969 l 35.144113762578975 -51.2763122741671" fill="#4cdaff" stroke="none" /><path d="M 87.54013794807813 116.9041958592261 l -13.322488100465366 18.074513766204884 a43.45388022306548,43.45388022306548 0 0,0 -0.5966569753595473,-0.4477425177057093 l 13.630798064735679 -17.84315222123516" fill="#f5ff19" stroke="none" /><path d="M 86.96720088162412 116.46651593811092 l -23.988973139631756 30.309283904000434 a59.65389402204225,59.65389402204225 0 0,0 -0.7975135615236768,-0.6424204721405676 l 24.505737471510695 -29.893015138066456" fill="#3dff2e" stroke="none" /><path d="M 86.40962598614128 116.0094264158162 l -40.12195088828806 47.26355726119285 a82.99689337429945,82.99689337429945 0 0,0 -1.0782502680210762,-0.9313669005168321 l 40.927380636072 -46.567846228211295" fill="#4cdbff" stroke="none" /><path d="M 85.60350026404147 115.28858382429668 l -22.17448571261199 23.548535393722613 a53.345654048237144,53.345654048237144 0 0,0 -0.6613019765841192,-0.6335123343116781 l 22.575460175061423 -23.16441092910535" fill="#81ff25" stroke="none" /><path d="M 85.08716467003676 114.78537596483092 l -23.157653023253594 22.959725554265322 a53.6102114539693,53.6102114539693 0 0,0 -0.6423350854721299,-0.6590923843269118 l 23.548374909876536 -22.558810477870672" fill="#7eff26" stroke="none" /><path d="M 84.58840730492382 114.26474011684316 l -41.03095339713163 37.97763790781859 a76.90921317399278,76.90921317399278 0 0,0 -0.8884929496406015,-0.9766093927108851 l 41.67684404761412 -37.267690939550036" fill="#44ffe6" stroke="none" /><path d="M 83.8745106332314 113.45245675266167 l -23.37967870987247 19.504159506863395 a51.447029652267126,51.447029652267126 0 0,0 -0.5599229651309607,-0.6830149752591397 l 23.711048494242057 -19.09994224990576" fill="#96ff23" stroke="none" /><path d="M 83.4222238831116 112.89097897827486 l -10.814308990558741 8.40927208082164 a34.69909252003818,34.69909252003818 0 0,0 -0.36161084693384404,-0.4733602065005279 l 10.957071814846879 -8.222390961080244" fill="#ff960d" stroke="none" /><path d="M 82.98947788004972 112.3143062007846 l -39.166445374800375 28.353486021215993 a69.35215210156123,69.35215210156123 0 0,0 -0.6898389265938,-0.9703448411497629 l 39.64739939992413 -27.676963953356726" fill="#3aff94" stroke="none" /><path d="M 82.37810715431573 111.42229804090323 l -24.09232466245803 15.61635377099655 a49.71081003284654,49.71081003284654 0 0,0 -0.45800772744295326,-0.7200642206018188 l 24.356850081526872 -15.20047587571606" fill="#aaff21" stroke="none" /><path d="M 81.99639281039703 110.81064883170644 l -31.497935787824822 18.913605431385907 a57.74022903178594,57.74022903178594 0 0,0 -0.5029621844305686,-0.8541397471993638 l 31.81797168238516 -18.370114515892986" fill="#51ff2b" stroke="none" /><line stroke="#e1ed5e" stroke-width="0.3" x1="26.387840678322732" x2="22.057713659400548" y1="142.50000000000003" y2="145.00000000000006" /><path d="M 25.521815274538298 143.00000000000003 a86.0,86.0 0 0,1 -11.493303480769221,-40.785679425670985" fill="none" id="id33" stroke="none" /><text fill="#e1ed5e" style="font-size:6.75px; font-family:Arial;" text-anchor="middle"><textPath startOffset="21.40746469413373" xlink:href="#id33">September</textPath></text><path d="M 81.63589988554817 110.18625677009913 l -20.610942763185776 11.432542512355704 a44.56934428201473,44.56934428201473 0 0,0 -0.365372375368774,-0.6722440179302486 l 20.804160488169877 -11.077043660950869" fill="#e7ff1a" stroke="none" /><path d="M 81.29705330413844 109.54985784667822 l -56.108840087584646 28.649573540034662 a84.0,84.0 0 0,0 -0.644720347153052,-1.289872575344989 l 56.59238034794944 -27.68216910852592" fill="#4dd2ff" stroke="none" /><path d="M 80.83023694016515 108.57439118712176 l -28.65509688224808 12.81706035731175 a52.39094795532617,52.39094795532617 0 0,0 -0.3601656082743575,-0.824129395716364 l 28.870896372539406 -12.323268891819536" fill="#8bff24" stroke="none" /><path d="M 80.5471966667186 107.91128576633889 l -33.61437674919809 13.670674388883837 a57.28792722771464,57.28792722771464 0 0,0 -0.362663474004601,-0.9141488638071653 l 33.844098898168816 -13.091624507863106" fill="#56ff2b" stroke="none" /><path d="M 80.28708602549918 107.23885506374661 l -37.67613959005156 13.83520032637767 a61.136071836691386,61.136071836691386 0 0,0 -0.35330777534676844,-0.9882647282257886 l 37.90808753544227 -13.186400641770959" fill="#2fff31" stroke="none" /><path d="M 79.94057633289273 106.21446072829308 l -36.71177920558259 11.37340304113333 a59.43317615258342,59.43317615258342 0 0,0 -0.2935537021151653,-0.977144801174077 l 36.901609227701385 -10.741520636368529" fill="#3fff2d" stroke="none" /><path d="M 79.73907114497094 105.5222062557868 l -35.5012487616086 9.676023217017377 a57.79625101732343,57.79625101732343 0 0,0 -0.2526811339733555,-0.9594714228001041 l 35.66211937638669 -9.06517128984447" fill="#50ff2b" stroke="none" /><path d="M 79.56144815229197 104.8234425847677 l -60.05343997504287 14.172448317070748 a82.70311130029116,82.70311130029116 0 0,0 -0.3142290474833645,-1.384551162361986 l 60.2878798840839 -13.139462820769737" fill="#4bdeff" stroke="none" /><path d="M 79.34024301695615 103.76489593502545 l -23.637298305600314 4.307503151115348 a45.02657808729333,45.02657808729333 0 0,0 -0.13204619186695823,-0.761607344778646 l 23.707759314959507 -3.9011027734161092" fill="#e2ff1b" stroke="none" /><path d="M 79.22317932658666 103.0534771498775 l -29.03939756873335 4.267791416027464 a50.35133139613387,50.35133139613387 0 0,0 -0.11833877634023297,-0.856240435202453 l 29.108380861628795 -3.7686626726249255" fill="#a2ff22" stroke="none" /><path d="M 79.13060592940153 102.33845913500099 l -26.183283509475075 2.933891530339803 a47.347145098650614,47.347145098650614 0 0,0 -0.08357359007763758,-0.8084986721519039 l 26.22978949203438 -2.483988335904968" fill="#c6ff1e" stroke="none" /><path d="M 79.06263194458094 101.62068470465958 l -50.222689066174965 3.8875537642066025 a71.37292498264605,71.37292498264605 0 0,0 -0.08407064019683609,-1.2223686574927335 l 50.28202366753687 -3.0248416825595257" fill="#3dffaa" stroke="none" /><path d="M 79.00696218219943 100.54070618675478 l -29.407130595507102 0.7574233698666314 a50.41688324793145,50.41688324793145 0 0,0 -0.014857539550566316,-0.8653771930450053 l 29.415799566656336 -0.2524992608525738" fill="#a2ff22" stroke="none" /><line stroke="#e1ed5e" stroke-width="0.3" x1="15.003131293944662" x2="10.003315487706104" y1="100.72959589197737" y2="100.7725132973878" /><path d="M 14.003168132696942 100.73817937305945 a86.0,86.0 0 0,1 10.791469493833604,-42.45332614584628" fill="none" id="id34" stroke="none" /><text fill="#e1ed5e" style="font-size:6.75px; font-family:Arial;" text-anchor="middle"><textPath startOffset="22.145653131862435" xlink:href="#id34">October</textPath></text><path d="M 79.00077361379809 99.81974689727619 l -27.490569686347524 -0.23597347780703687 a48.491582441943166,48.491582441943166 0 0,0 0.014290165468137652,-0.832330497178065 l 27.48246808928072 0.7078508909541542" fill="#b8ff1f" stroke="none" /><path d="M 79.01933749520258 99.09900007780938 l -29.577145815201174 -1.2701699039305083 a50.604406532787024,50.604406532787024 0 0,0 0.044720826273432164,-0.8675720824397672 l 29.55098339947117 1.7777137797469875" fill="#9fff22" stroke="none" /><path d="M 79.0935383218832 98.0201363427161 l -29.18194947560451 -2.763560955698211 a50.31251344311153,50.31251344311153 0 0,0 0.08880783340810834,-0.8591352282514263 l 29.13020924971474 3.2641007062325498" fill="#a3ff22" stroke="none" /><path d="M 79.48165901384962 95.52812308129327 l -8.588498776742883 -1.8718233346439404 a29.79011000125889,29.79011000125889 0 0,0 0.11318701005252052,-0.49872285069632355 l 8.5551009051327 2.018980519279272" fill="#ff5107" stroke="none" /><path d="M 79.64726062577567 94.8264132398404 l -19.016731241214668 -4.833978717167707 a40.62150395200685,40.62150395200685 0 0,0 0.1775943508726971,-0.6743546771127412 l 18.930947409537247 5.159713898653232" fill="#ffe515" stroke="none" /><path d="M 79.83685265289637 94.1308016681162 l -28.48802233620045 -8.292448113181797 a50.67039117264328,50.67039117264328 0 0,0 0.2502723542515314,-0.8330752706315366 l 28.34147366194529 8.780260987404057" fill="#9fff22" stroke="none" /><path d="M 80.28708602549916 92.7611449362534 l -25.22053631999444 -9.261330277530407 a47.86722335444547,47.86722335444547 0 0,0 0.28986866960411867,-0.7689110845945754 l 25.057836966575884 9.692909642319126" fill="#bfff1e" stroke="none" /><path d="M 80.5471966667186 92.08871423366112 l -21.887798520508046 -8.901577110766931 a44.62866477677662,44.62866477677662 0 0,0 0.29470678082781454,-0.7071889897502388 l 21.731765895143752 9.275998609958434" fill="#e7ff1a" stroke="none" /><path d="M 80.83023694016515 91.42560881287825 l -21.1029166258229 -9.439066188467516 a44.117721787120445,44.117721787120445 0 0,0 0.3151592211081446,-0.6886797753050438 l 20.93777293985971 9.799934945987232" fill="#edff1a" stroke="none" /><path d="M 81.1358732173502 90.77261029715801 l -8.007177240470087 -3.916711633082326 a29.913782439403857,29.913782439403857 0 0,0 0.22959552617848203,-0.4593448523026365 l 7.938761801079861 4.053588341548733" fill="#ff5207" stroke="none" /><path d="M 81.46374523516351 90.13048839642627 l -19.293779131928478 -10.27285066132055 a42.85821067474264,42.85821067474264 0 0,0 0.3513447749915222,-0.6464348131976758 l 19.114589007321605 10.602540307992847" fill="#fdff18" stroke="none" /><line stroke="#e1ed5e" stroke-width="0.3" x1="26.387840678322718" x2="22.05771365940052" y1="57.49999999999999" y2="54.99999999999999" /><path d="M 25.521815274538284 56.99999999999999 a86.0,86.0 0 0,1 29.574782752854787,-30.34633250058573" fill="none" id="id35" stroke="none" /><text fill="#e1ed5e" style="font-size:6.75px; font-family:Arial;" text-anchor="middle"><textPath startOffset="21.40746469413373" xlink:href="#id35">November</textPath></text><path d="M 82.18462484594161 88.88188828441811 l -15.094317196190632 -9.419970301295976 a38.79253360532205,38.79253360532205 0 0,0 0.35741280712561657,-0.5619122974908116 l 14.930386697439125 9.67769627346546" fill="#ffcd13" stroke="none" /><path d="M 82.576782715395 88.27688183743585 l -40.38394529955634 -27.17212067575722 a69.67429691300606,69.67429691300606 0 0,0 0.6762065138594174,-0.9866055123973861 l 39.911549048881604 27.86136092322464" fill="#3bff97" stroke="none" /><path d="M 83.2033758604659 87.39550010848427 l -14.547406377338271 -10.916644950899135 a39.18791272497792,39.18791272497792 0 0,0 0.4083903434034961,-0.5345960690213145 l 14.357864056580468 11.164761933161335" fill="#ffd213" stroke="none" /><path d="M 83.8745106332314 86.54754324733833 l -10.198293886651976 -8.507779475136118 a34.28109595613519,34.28109595613519 0 0,0 0.3808555264524101,-0.4486468525133393 l 10.050743796692451 8.681593110099016" fill="#ff900d" stroke="none" /><path d="M 85.08716467003674 85.21462403516908 l -14.192840232803992 -14.071534634943395 a40.9861152017172,40.9861152017172 0 0,0 0.4996560311487238,-0.4953854924412511 l 13.949192281525292 14.31310013761332" fill="#ffe915" stroke="none" /><line stroke="#e1ed5e" stroke-width="0.3" x1="56.869717070023135" x2="54.33264160355391" y1="26.7553504044142" y2="22.446841604673864" /><path d="M 56.362301976729285 25.89364864446614 a86.0,86.0 0 0,1 42.16139366436587,-11.88097634709845" fill="none" id="id36" stroke="none" /><text fill="#e1ed5e" style="font-size:6.75px; font-family:Arial;" text-anchor="middle"><textPath startOffset="22.145653131862474" xlink:href="#id36">December</textPath></text></svg>