<?xml version="1.0" encoding="utf-8" ?>
<svg baseProfile="full" height="200mm" version="1.1" viewBox="0,0,200,200" width="200mm" xmlns="http://www.w3.org/2000/svg" xmlns:ev="http://www.w3.org/2001/xml-events" xmlns:xlink="http://www.w3.org/1999/xlink"><defs /><rect fill="#1a1a1a" height="200" width="200" x="0" y="0" /><text alignment-baseline="middle" fill="#e1ed5e" style="dominant-baseline: central; font-size:9.0px; font-family:Arial;" text-anchor="middle" x="100.0" y="100.0">2024</text><line stroke="#e1ed5e" stroke-width="0.3" x1="100.0" x2="100.0" y1="15.0" y2="10.0" /><path d="M 100.0 14.0 a86.0,86.0 0 0,1 42.35913384403234,11.155469271406648" fill="none" id="id25" stroke="none" /><text fill="#e1ed5e" style="font-size:6.75px; font-family:Arial;" text-anchor="middle"><textPath startOffset="22.145653131862478" xlink:href="#id25">January</textPath></text><path d="M 101.08105385017728 79.02784411241856 l 0.6550366859254623 -12.707536712496573 a33.724408133950924,33.724408133950924 0 0,0 0.5779008922853412,0.03476508262537694 l -0.8730819303432659 12.694419652046506" fill="#ff880c" stroke="none" /><path d="M 101.44090949804482 79.04949213459386 l 1.3375320122970256 -19.44742191087271 a40.493363251717525,40.493363251717525 0 0,0 0.6930747742141167,0.053648370835391285 l -1.671175781286376 19.421595773042263" fill="#ffe315" stroke="none" /><path d="M 102.15924093988457 79.11130261209362 l 1.3307834394585394 -12.874122587344388 a33.942720616497446,33.942720616497446 0 0,0 0.5790694380421672,0.06488593835588816 l -1.551588779101503 12.849380888481528" fill="#ff8b0c" stroke="none" /><path d="M 102.87502721639298 79.19773525538626 l 4.10227271983446 -29.682001855852572 a50.96414316543581,50.96414316543581 0 0,0 0.8656014467298472,0.12721360404639248 l -4.611199272171988 29.607207178507295" fill="#9cff22" stroke="none" /><path d="M 103.58742460773223 79.30868818359171 l 3.178317451397203 -18.331690454664 a39.60517607407883,39.60517607407883 0 0,0 0.6688847773843144,0.12189308816368997 l -3.492536962332571 18.274429192568945" fill="#ffd714" stroke="none" /><path d="M 104.29559338865022 79.4440306129975 l 4.6351510034265715 -22.180875494947614 a43.66000579317962,43.66000579317962 0 0,0 0.7323188062373426,0.1596054753626567 l -5.0152322262830475 22.09803856145124" fill="#f3ff19" stroke="none" /><path d="M 104.9986988182912 79.60360301121754 l 2.8527882679772603 -11.640349649730721 a32.98482961371979,32.98482961371979 0 0,0 0.5487964224236168,0.13950190452836764 l -3.0521899836262714 11.589662513367086" fill="#ff7e0b" stroke="none" /><path d="M 105.3480935250658 79.69241777938227 l 5.434508404745606 -20.635713594154392 a42.33931950979738,42.33931950979738 0 0,0 0.7012572760607693,0.19113078894295604 l -5.787947081741068 20.539382311067293" fill="#fffa17" stroke="none" /><path d="M 105.69591212413111 79.78721728523813 l 4.072348212768942 -14.451327157036163 a36.01415587256684,36.01415587256684 0 0,0 0.5936161651341549,0.17279301421586596 l -4.319824390284701 14.37929044851778" fill="#ffa70f" stroke="none" /><path d="M 107.06938296918511 80.22567764915836 l 5.334759785128852 -14.922272582384169 a36.847204200994014,36.847204200994014 0 0,0 0.5937854110872421,0.2180462277361801 l -5.590134347870219 14.828495505639266" fill="#ffb310" stroke="none" /><line stroke="#e1ed5e" stroke-width="0.3" x1="143.13028292997686" x2="145.6673583964461" y1="26.7553504044142" y2="22.446841604673864" /><path d="M 143.63769802327073 25.89364864446614 a86.0,86.0 0 0,1 29.32050498858742,28.57503671076993" fill="none" id="id26" stroke="none" /><text fill="#e1ed5e" style="font-size:6.75px; font-family:Arial;" text-anchor="middle"><textPath startOffset="20.669276256404974" xlink:href="#id26">February</textPath></text><path d="M 115.8921839302757 86.27271002978787 l 11.333802612082065 -9.789868755848142 a35.976535377261655,35.976535377261655 0 0,0 0.3996914899854215,0.47083557019287336 l -11.5001886655746 9.593866403205716" fill="#ffa70f" stroke="none" /><path d="M 116.1254893667686 86.54754324733833 l 14.335022193501691 -11.958785356550731 a39.66829956081266,39.66829956081266 0 0,0 0.4317293352389851,0.5266395907835788 l -14.538198347979304 11.710943484068656" fill="#ffd814" stroke="none" /><path d="M 116.57777611688842 87.10902102172516 l 11.821379156355484 -9.192375932954624 a35.97480485519191,35.97480485519191 0 0,0 0.37490547179159217,0.4907632972025174 l -11.977436605501381 8.988091722511225" fill="#ffa70f" stroke="none" /><path d="M 116.7966241395341 87.39550010848427 l 12.76227125837542 -9.577046277594995 a36.95604534574753,36.95604534574753 0 0,0 0.37642016493447394,0.5106862473194901 l -12.924793442893721 9.35655372100663" fill="#ffb410" stroke="none" /><path d="M 117.01052211995028 87.68569379921539 l 15.507123682758904 -11.225961671039522 a40.144009516087024,40.144009516087024 0 0,0 0.39930845106572194,0.5616773431912739 l -15.697547232354587 10.958107101138745" fill="#ffde14" stroke="none" /><path d="M 117.42321728460499 88.27688183743584 l 13.763201072180465 -9.260495913511146 a37.588625269063925,37.588625269063925 0 0,0 0.3556162483585673,0.5384483250717782 l -13.920141759459757 9.02286771010031" fill="#ffbc11" stroke="none" /><line stroke="#e1ed5e" stroke-width="0.3" x1="172.87174338648825" x2="177.1583165268699" y1="56.24261187166439" y2="53.66864786411523" /><path d="M 173.72905801456457 55.72781907015455 a86.0,86.0 0 0,1 12.242430191666344,42.057860355516425" fill="none" id="id27" stroke="none" /><text fill="#e1ed5e" style="font-size:6.75px; font-family:Arial;" text-anchor="middle"><textPath startOffset="22.145653131862474" xlink:href="#id27">March</textPath></text><path d="M 118.00360718960297 89.18935116829356 l 16.417060807372142 -9.857973314356963 a40.14940007988575,40.14940007988575 0 0,0 0.34973241891090995,0.5939221061205285 l -16.583866936412818 9.574700039942877" fill="#ffde14" stroke="none" /><path d="M 118.36410011445183 89.81374322990088 l 7.944177736291673 -4.40650147542431 a30.084449083940584,30.084449083940584 0 0,0 0.24662751495527893,0.45376684928178945 l -8.018650600862292 4.2694797926679176" fill="#ff5407" stroke="none" /><path d="M 118.8641267826498 90.77261029715802 l 17.237070190844722 -8.43151479094454 a40.18872143823096,40.18872143823096 0 0,0 0.2978189834218998,0.6223271318905171 l -17.379268432226535 8.134375156988918" fill="#ffdf14" stroke="none" /><path d="M 119.0197475246899 91.09779779509293 l 18.869537386809725 -8.831896275824661 a41.834150643094034,41.834150643094034 0 0,0 0.29884630933610223,0.6530331190712799 l -19.01836816100088 8.506674174538697" fill="#fff417" stroke="none" /><path d="M 119.58574465831526 92.42381321644754 l 14.309710569558419 -5.535303455900094 a36.34299191596709,36.34299191596709 0 0,0 0.22008159190908796,0.5837925698049048 l -14.402622845281948 5.288842605901032" fill="#ffac0f" stroke="none" /><path d="M 119.94978838288452 93.4421083053983 l 8.565236330823105 -2.8155633091524517 a30.016133880477682,30.016133880477682 0 0,0 0.15670606520257482,0.4908795173057689 l -8.612307111802936 2.6681147581552955" fill="#ff5307" stroke="none" /><path d="M 120.35273937422433 94.82641323984039 l 17.69898726295924 -4.499013350892933 a39.261852897937445,39.261852897937445 0 0,0 0.16043603384407296,0.6546337670145993 l -17.773610823319604 4.194523759270239" fill="#ffd313" stroke="none" /><path d="M 120.51834098615036 95.52812308129327 l 21.801336265512504 -4.751499768354367 a43.31311302823123,43.31311302823123 0 0,0 0.1520956240964149,0.7278326205370771 l -21.879689600433284 4.376550696531885" fill="#f7ff18" stroke="none" /><path d="M 120.592083275326 95.88100663000786 l 19.584518098551193 -3.9174521161286573 a40.972475566004334,40.972475566004334 0 0,0 0.1320361588538212,0.6908689762932062 l -19.64888054968717 3.580680574802136" fill="#ffe915" stroke="none" /><path d="M 120.7213421655516 96.59031103205396 l 25.86040060660296 -4.255319078779954 a47.208167810745934,47.208167810745934 0 0,0 0.12471612900126497,0.8007670135024487 l -25.929638227742487 3.810763883346064" fill="#c8ff1d" stroke="none" /><path d="M 120.82617615685814 97.30363454192243 l 11.91670045438823 -1.54285545447519 a33.01616214408829,33.01616214408829 0 0,0 0.067947126075246,0.5626996759567165 l -11.94142966672314 1.3380621015950604" fill="#ff7e0b" stroke="none" /><path d="M 120.86939407059847 97.66154086499901 l 17.162667368910135 -1.9231126765847821 a38.27007566812299,38.27007566812299 0 0,0 0.06755143545537735,0.6534988603085203 l -17.19315119684718 1.6282092939933304" fill="#ffc612" stroke="none" /><path d="M 120.93736805541906 98.37931529534042 l 13.044559122194146 -1.009731375615562 a34.08358055515848,34.08358055515848 0 0,0 0.04014727486885707,0.5837325654775342 l -13.05997035822807 0.7856553859836937" fill="#ff8d0d" stroke="none" /><path d="M 120.98066250479742 99.09900007780936 l 12.882928264242226 -0.5532483714952138 a33.89480222501196,33.89480222501196 0 0,0 0.019974227938783395,0.5815278526433303 l -12.890527179177857 0.33201425428776354" fill="#ff8a0c" stroke="none" /><path d="M 120.99303781780057 99.45929381324524 l 12.093220168434764 -0.3114784539336963 a33.09723079342964,33.09723079342964 0 0,0 0.00975354650761316,0.5680951863035856 l -12.096785146541043 0.10383635166104427" fill="#ff7f0b" stroke="none" /><line stroke="#e1ed5e" stroke-width="0.3" x1="184.99686870605535" x2="189.99668451229388" y1="99.2704041080226" y2="99.22748670261217" /><path d="M 185.99683186730306 99.26182062694052 a86.0,86.0 0 0,1 -10.086455211305974,41.156179273409016" fill="none" id="id28" stroke="none" /><text fill="#e1ed5e" style="font-size:6.75px; font-family:Arial;" text-anchor="middle"><textPath startOffset="21.40746469413373" xlink:href="#id28">April</textPath></text><path d="M 120.99922638620191 99.81974689727618 l 22.255313262062185 -0.1910350978554805 a43.25613315023824,43.25613315023824 0 0,0 0.0,0.742576401158612 l -22.255313262062185 -0.19103509785547781" fill="#f8ff18" stroke="none" /><path d="M 120.99922638620191 100.18025310272382 l 18.39969674066479 0.15793926717517318 a39.40037458750626,39.40037458750626 0 0,0 -0.011611043484422448,0.6762850729543083 l -18.3942742655817 -0.4737712560985525" fill="#ffd413" stroke="none" /><path d="M 120.98066250479742 100.90099992219065 l 29.36230829878475 1.2609438565866773 a50.389371004537466,50.389371004537466 0 0,0 -0.04453079210129902,0.8638854702684854 l -29.33633591722688 -1.7648011202318934" fill="#a2ff22" stroke="none" /><path d="M 120.93736805541906 101.62068470465957 l 26.662500468898788 2.063846161730856 a47.742258547724035,47.742258547724035 0 0,0 -0.07026382171133183,0.8165721152900995 l -26.623143024489714 -2.521239324396613" fill="#c1ff1e" stroke="none" /><path d="M 120.82617615685814 102.69636545807757 l 11.844495460966021 1.5335070724823567 a32.943354498054475,32.943354498054475 0 0,0 -0.07742548512116995,0.5602122408745034 l -11.81642545928964 -1.736607621556945" fill="#ff7d0b" stroke="none" /><path d="M 120.77682067341334 103.0534771498775 l 10.518493319226234 1.5458562937155955 a31.631480300853077,31.631480300853077 0 0,0 -0.0835651108832911,0.5365479574364944 l -10.490406716204674 -1.7261924330835405" fill="#ff6a09" stroke="none" /><path d="M 120.7213421655516 103.40968896794604 l 22.735518039896732 3.7411208415857145 a44.04126224176568,44.04126224176568 0 0,0 -0.1291566272872147,0.7449411041546006 l -22.667946595117282 -4.130854978660903" fill="#eeff19" stroke="none" /><path d="M 120.592083275326 104.11899336999214 l 26.80024042902721 5.360798670313779 a48.33113699496057,48.33113699496057 0 0,0 -0.16971660383188755,0.8121553874377493 l -26.704266114370956 -5.8200705090369365" fill="#baff1f" stroke="none" /><path d="M 120.43855184770803 104.8234425847677 l 17.526201556607834 4.13613584598677 a39.00764728495368,39.00764728495368 0 0,0 -0.15939727134770337,0.650395261550867 l -17.452616758743833 -4.436386932145736" fill="#ffcf13" stroke="none" /><path d="M 120.35273937422433 105.17358676015961 l 18.425702816763177 4.683741602870825 a40.01167956005301,40.01167956005301 0 0,0 -0.17492824163253468,0.6642310260677475 l -18.342585094325912 -4.999353133311375" fill="#ffdc14" stroke="none" /><path d="M 120.05942366710727 106.21446072829308 l 16.878389283565596 5.228968144860319 a38.66980850681597,38.66980850681597 0 0,0 -0.20188454507066178,0.6324004620221412 l -16.78614002271768 -5.5179376405738445" fill="#ffcb12" stroke="none" /><path d="M 119.71291397450082 107.23885506374661 l 22.208741218226212 8.155357398452084 a44.65878358653773,44.65878358653773 0 0,0 -0.2704393795418517,0.7173725843658877 l -22.065471154869922 -8.535398263012132" fill="#e7ff1a" stroke="none" /><path d="M 119.58574465831526 107.57618678355244 l 29.090274979879943 11.2527432924999 a52.190837276545345,52.190837276545345 0 0,0 -0.33039614581768206,0.8328141181972735 l -28.892820159096136 -11.750458427910738" fill="#8eff24" stroke="none" /><line stroke="#e1ed5e" stroke-width="0.3" x1="174.33088141563837" x2="178.70328620479359" y1="141.23008692659167" y2="143.65538615756765" /><path d="M 175.20536237346943 141.71514677278685 a86.0,86.0 0 0,1 -30.301960400862466,31.631185727798858" fill="none" id="id29" stroke="none" /><text fill="#e1ed5e" style="font-size:6.75px; font-family:Arial;" text-anchor="middle"><textPath startOffset="22.145653131862474" xlink:href="#id29">May</textPath></text><path d="M 118.00360718960297 110.81064883170644 l 14.323198414093534 8.600669108746231 a37.70705006659264,37.70705006659264 0 0,0 -0.3379845137341287,0.5520723026623946 l -14.173445935904 -8.845278527533184" fill="#ffbe11" stroke="none" /><path d="M 117.423217284605 111.72311816256416 l 15.42401832137043 10.377967878685 a39.59038887352786,39.59038887352786 0 0,0 -0.3842346464713107,0.5606098321931711 l -15.243593938083798 -10.641212445948216" fill="#ffd714" stroke="none" /><path d="M 116.79662413953412 112.60449989151573 l 23.872454695902494 17.914335054773886 a50.84656586045734,50.84656586045734 0 0,0 -0.5298890665183438,0.6936417977400668 l -23.561413652029845 -18.32149776575483" fill="#9dff22" stroke="none" /><path d="M 116.35404254752997 113.17365903436017 l 23.24897713991988 18.727730275178757 a50.85369021264145,50.85369021264145 0 0,0 -0.5534653643596513,0.6751377523093391 l -22.9240649563216 -19.12407030918659" fill="#9dff22" stroke="none" /><path d="M 115.89218393027572 113.72728997021213 l 23.231580985424742 20.066886341898694 a51.69831074409517,51.69831074409517 0 0,0 -0.5858869509107445,0.666631800352261 l -22.883682970555412 -20.462730420062247" fill="#93ff23" stroke="none" /><path d="M 115.41159269507618 114.26474011684316 l 14.11723799689405 13.066704731799403 a40.236298531915594,40.236298531915594 0 0,0 -0.4735317359147251,0.5028742938059019 l -13.890850427243064 -13.307120485549802" fill="#ffdf14" stroke="none" /><path d="M 114.13192950727249 115.5334660781643 l 4.02057788299358 4.419319394988415 a26.97456529198049,26.97456529198049 0 0,0 -0.34519090858054374,0.308671839005493 l -3.9441219475896583 -4.487686763877296" fill="#ff2703" stroke="none" /><path d="M 112.45986205192187 116.90419585922612 l 2.4943376176306735 3.384048029726032 a25.203986348481653,25.203986348481653 0 0,0 -0.35047822038247234,0.25371920344726273 l -2.4358783868742333 -3.4263680045463714" fill="#ff0c01" stroke="none" /><line stroke="#e1ed5e" stroke-width="0.3" x1="143.1302829299769" x2="145.66735839644613" y1="173.24464959558577" y2="177.55315839532614" /><path d="M 143.63769802327073 174.10635135553383 a86.0,86.0 0 0,1 -40.68552437913181,11.842963189579606" fill="none" id="id30" stroke="none" /><text fill="#e1ed5e" style="font-size:6.75px; font-family:Arial;" text-anchor="middle"><textPath startOffset="21.407464694133747" xlink:href="#id30">June</textPath></text><path d="M 110.34350942703117 118.27599006163325 l 9.180751186878533 16.221507664626245 a39.63929996724393,39.63929996724393 0 0,0 -0.5950723662903611,0.3300766104544299 l -8.900934632432078 -16.376717190513816" fill="#ffd814" stroke="none" /><path d="M 109.71004243097381 118.62028667847754 l 8.921074382374155 17.107336415951117 a40.293691388233086,40.293691388233086 0 0,0 -0.6160574972112142,0.31456334765950145 l -8.626089663449358 -17.257957715283453" fill="#ffe015" stroke="none" /><path d="M 109.3889696526874 118.78422872680471 l 9.473521805189861 18.95338967105118 a42.18911502201348,42.18911502201348 0 0,0 -0.6505958329801299,0.3182390236835262 l -9.146765722947663 -19.11322244483193" fill="#fff817" stroke="none" /><path d="M 108.73861861582097 119.09545874513695 l 7.558991582948584 16.5177607895263 a39.16520782295375,39.16520782295375 0 0,0 -0.6137497604241918,0.2745224612559514 l -7.274328419668765 -16.6450870016921" fill="#ffd113" stroke="none" /><path d="M 107.407793817531 119.65005319985036 l 10.533015318484694 27.94007452978048 a50.85954079400956,50.85954079400956 0 0,0 -0.8195914450753481,0.30096533115608776 l -10.051834721755219 -28.11677070994529" fill="#9dff22" stroke="none" /><path d="M 106.72888874123015 119.89276391827305 l 9.554432777003091 28.24598279376304 a50.81816107133082,50.81816107133082 0 0,0 -0.8287649848326603,0.2724315118787714 l -9.068145054522697 -28.40583522704383" fill="#9dff22" stroke="none" /><path d="M 105.69591212413111 120.21278271476187 l 4.16722913460774 14.788026076385538 a36.36396803876467,36.36396803876467 0 0,0 -0.6022887818904119,0.16415648576348107 l -3.912758951782633 -14.85738305629316" fill="#ffac0f" stroke="none" /><path d="M 105.3480935250658 120.30758222061773 l 4.027882875379215 15.294527345756375 a36.816017424998705,36.816017424998705 0 0,0 -0.6125391244198135,0.15570505011190094 l -3.764738457734004 -15.361417627703545" fill="#ffb210" stroke="none" /><path d="M 104.9986988182912 120.39639698878246 l 0.8062634897889951 3.2898301764296236 a24.387188126560687,24.387188126560687 0 0,0 -0.40746096068127335,0.09615967726210546 l -0.7496703753678426 -3.3031859973379545" fill="#ff0000" stroke="none" /><path d="M 104.64783097203109 120.47920084513623 l 4.831798682441972 21.289796521527215 a42.83120964206245,42.83120964206245 0 0,0 -0.7184172275047259,0.15657569098048282 l -4.465619038318111 -21.369603670641418" fill="#feff18" stroke="none" /><path d="M 104.29559338865022 120.5559693870025 l 6.100914554426306 29.195084698859795 a50.825729311686715,50.825729311686715 0 0,0 -0.8555749493873058,0.17113895165140255 l -5.598843119508042 -29.295513047174058" fill="#9dff22" stroke="none" /><path d="M 103.58742460773223 120.69131181640829 l 1.345144476288206 7.758435880996207 a28.874181924594964,28.874181924594964 0 0,0 -0.4891045757865128,0.08048197181954855 l -1.211762397448621 -7.780383851311426" fill="#ff4306" stroke="none" /><path d="M 102.875027216393 120.80226474461374 l 3.5875427467008976 25.957672182707327 a47.2044119969196,47.2044119969196 0 0,0 -0.8036487711192338,0.10404842303030226 l -3.1414161536908884 -26.015432201938026" fill="#c8ff1d" stroke="none" /><path d="M 102.51750503828377 120.84855314841334 l 3.538006081619081 29.29976572453269 a50.51260338475876,50.51260338475876 0 0,0 -0.861754871877953,0.09656143084257858 l -3.034515308140329 -29.35618291588224" fill="#a1ff22" stroke="none" /><path d="M 102.15924093988457 120.88869738790638 l 2.852489774727344 27.595251000364115 a48.74228858057714,48.74228858057714 0 0,0 -0.8330299358658438,0.07888880102445468 l -2.3783602754764845 -27.640151556893752" fill="#b5ff1f" stroke="none" /><path d="M 101.08105385017728 120.97215588758144 l 1.5351101200647532 29.78072622129073 a50.82026521257312,50.82026521257312 0 0,0 -0.8716262080477449,0.03743137975031428 l -1.0236581514161787 -29.802690169466878" fill="#9dff22" stroke="none" /><line stroke="#e1ed5e" stroke-width="0.3" x1="101.45913802915013" x2="101.54496967792366" y1="184.9874750549273" y2="189.98673829345242" /><path d="M 101.47630435890484 185.9873277026323 a86.0,86.0 0 0,1 -42.54439059252881,-10.42667462771756" fill="none" id="id31" stroke="none" /><text fill="#e1ed5e" style="font-size:6.75px; font-family:Arial;" text-anchor="middle"><textPath startOffset="22.145653131862474" xlink:href="#id31">July</textPath></text><path d="M 100.36049292484886 120.99690560180557 l 0.5353640042951433 31.182269292810126 a52.18686474890389,52.18686474890389 0 0,0 -0.8958569291439917,0.00768985428820129 l -3.819289409018658e-15 -31.186864748903893" fill="#8eff24" stroke="none" /><path d="M 99.63950707515114 120.99690560180557 l -1.0814787745465488 62.990716805416696 a84.0,84.0 0 0,0 -1.4415467437170244,-0.03712913059981027 l 2.1626388323343173 -62.962869957466836" fill="#4dd2ff" stroke="none" /><path d="M 98.55909050195518 120.95050786540614 l -2.055288089861474 29.8834377528539 a50.95403246744952,50.95403246744952 0 0,0 -0.8721171004776495,-0.06750737923099914 l 2.5679741851143594 -29.843752606627845" fill="#9cff22" stroke="none" /><path d="M 97.48249496171623 120.84855314841334 l -1.812930683734089 15.013666761114568 a36.12272816914398,36.12272816914398 0 0,0 -0.6149845930609108,-0.07962206799222046 l 2.070393098685794 -14.98033309692195" fill="#ffa90f" stroke="none" /><path d="M 97.12497278360702 120.80226474461374 l -4.097140878197964 29.644870406194983 a50.926658763983255,50.926658763983255 0 0,0 -0.8649647922093903,-0.12712003775628886 l 4.605430776015039 -29.57016929513981" fill="#9cff22" stroke="none" /><path d="M 96.41257539226777 120.69131181640829 l -5.277542536639992 30.43946289898653 a51.89358115862941,51.89358115862941 0 0,0 -0.8764214661245304,-0.15971318626300385 l 5.79929873631558 -30.344381538792163" fill="#91ff24" stroke="none" /><path d="M 95.35216902796893 120.47920084513623 l -4.664440483660341 20.552385418035342 a42.075045703321294,42.075045703321294 0 0,0 -0.7029895555819108,-0.16590362097601097 l 5.016562192982139 -20.469285653413106" fill="#fff717" stroke="none" /><path d="M 94.6519064749342 120.30758222061772 l -9.88735956389736 37.543914732902124 a59.82403138028324,59.82403138028324 0 0,0 -0.9908528945299502,-0.2700613625312405 l 10.530393859362006 -37.36865287622673" fill="#3cff2e" stroke="none" /><path d="M 93.95794788825049 120.11202640906438 l -8.587611366269021 28.58536526908136 a50.8474484092841,50.8474484092841 0 0,0 -0.8337997692530157,-0.2583132998870383 l 9.077051768393671 -28.433735381387674" fill="#9dff22" stroke="none" /><path d="M 92.93061703081489 119.77432235084164 l -10.085147720720718 28.209953096992205 a50.95849893241079,50.95849893241079 0 0,0 -0.8211861359118959,-0.30155092372003617 l 10.567923008286733 -28.03267132426345" fill="#9cff22" stroke="none" /><line stroke="#e1ed5e" stroke-width="0.3" x1="58.13341422392154" x2="55.67067388415222" y1="173.97424548756322" y2="178.32567169271397" /><path d="M 57.64086615596768 174.84453072859336 a86.0,86.0 0 0,1 -31.369924170532247,-30.572349798747897" fill="none" id="id32" stroke="none" /><text fill="#e1ed5e" style="font-size:6.75px; font-family:Arial;" text-anchor="middle"><textPath startOffset="22.145653131862474" xlink:href="#id32">August</textPath></text><line stroke="#e1ed5e" stroke-width="0.3" x1="26.387840678322732" x2="22.057713659400548" y1="142.50000000000003" y2="145.00000000000006" /><path d="M 25.521815274538298 143.00000000000003 a86.0,86.0 0 0,1 -11.493303480769221,-40.785679425670985" fill="none" id="id33" stroke="none" /><text fill="#e1ed5e" style="font-size:6.75px; font-family:Arial;" text-anchor="middle"><textPath startOffset="21.40746469413373" xlink:href="#id33">September</textPath></text><line stroke="#e1ed5e" stroke-width="0.3" x1="15.003131293944662" x2="10.003315487706104" y1="100.72959589197737" y2="100.7725132973878" /><path d="M 14.003168132696942 100.73817937305945 a86.0,86.0 0 0,1 10.791469493833604,-42.45332614584628" fill="none" id="id34" stroke="none" /><text fill="#e1ed5e" style="font-size:6.75px; font-family:Arial;" text-anchor="middle"><textPath startOffset="22.145653131862435" xlink:href="#id34">October</textPath></text><line stroke="#e1ed5e" stroke-width="0.3" x1="26.387840678322718" x2="22.05771365940052" y1="57.49999999999999" y2="54.99999999999999" /><path d="M 25.521815274538284 56.99999999999999 a86.0,86.0 0 0,1 29.574782752854787,-30.34633250058573" fill="none" id="id35" stroke="none" /><text fill="#e1ed5e" style="font-size:6.75px; font-family:Arial;" text-anchor="middle"><textPath startOffset="21.40746469413373" xlink:href="#id35">November</textPath></text><line stroke="#e1ed5e" stroke-width="0.3" x1="56.869717070023135" x2="54.33264160355391" y1="26.7553504044142" y2="22.446841604673864" /><path d="M 56.362301976729285 25.89364864446614 a86.0,86.0 0 0,1 42.16139366436587,-11.88097634709845" fill="none" id="id36" stroke="none" /><text fill="#e1ed5e" style="font-size:6.75px; font-family:Arial;" text-anchor="middle"><textPath startOffset="22.145653131862474" xlink:href="#id36">December</textPath></text></svg>