<?xml version="1.0" encoding="utf-8" ?>
<svg baseProfile="full" height="200mm" version="1.1" viewBox="0,0,200,200" width="200mm" xmlns="http://www.w3.org/2000/svg" xmlns:ev="http://www.w3.org/2001/xml-events" xmlns:xlink="http://www.w3.org/1999/xlink"><defs /><rect fill="#1a1a1a" height="200" width="200" x="0" y="0" /><text alignment-baseline="middle" fill="#e1ed5e" style="dominant-baseline: central; font-size:9.0px; font-family:Arial;" text-anchor="middle" x="100.0" y="100.0">2022</text><line stroke="#e1ed5e" stroke-width="0.3" x1="100.0" x2="100.0" y1="15.0" y2="10.0" /><path d="M 100.0 14.0 a86.0,86.0 0 0,1 42.46469731375804,11.215312516191453" fill="none" id="id1" stroke="none" /><text fill="#e1ed5e" style="font-size:6.75px; font-family:Arial;" text-anchor="middle"><textPath startOffset="22.20632615414155" xlink:href="#id1">January</textPath></text><line stroke="#e1ed5e" stroke-width="0.3" x1="143.23703022742887" x2="145.7803849466894" y1="26.81831364943548" y2="22.513508569990506" /><path d="M 143.74570117128098 25.957352633546492 a86.0,86.0 0 0,1 28.547481713284135,27.462654790039103" fill="none" id="id2" stroke="none" /><text fill="#e1ed5e" style="font-size:6.75px; font-family:Arial;" text-anchor="middle"><textPath startOffset="19.985693538727396" xlink:href="#id2">February</textPath></text><line stroke="#e1ed5e" stroke-width="0.3" x1="172.23445277983987" x2="176.4835382374775" y1="55.19839476539836" y2="52.563006222186495" /><path d="M 173.08426987136738 54.67131705675599 a86.0,86.0 0 0,1 12.851231095245387,41.99856678651699" fill="none" id="id3" stroke="none" /><text fill="#e1ed5e" style="font-size:6.75px; font-family:Arial;" text-anchor="middle"><textPath startOffset="22.20632615414155" xlink:href="#id3">March</textPath></text><line stroke="#e1ed5e" stroke-width="0.3" x1="184.98032266829074" x2="189.97916517819016" y1="98.17113171792111" y2="98.06355123074" /><path d="M 185.9800911702706 98.14961562048488 a86.0,86.0 0 0,1 -9.607161424134198,41.387399972396054" fill="none" id="id4" stroke="none" /><text fill="#e1ed5e" style="font-size:6.75px; font-family:Arial;" text-anchor="middle"><textPath startOffset="21.466115282336823" xlink:href="#id4">April</textPath></text><line stroke="#e1ed5e" stroke-width="0.3" x1="174.80103733775053" x2="179.2010983576182" y1="140.37084112569926" y2="142.7455964860345" /><path d="M 175.68104954172406 140.8457921977663 a86.0,86.0 0 0,1 -30.038265399797805,32.042727171017184" fill="none" id="id5" stroke="none" /><text fill="#e1ed5e" style="font-size:6.75px; font-family:Arial;" text-anchor="middle"><textPath startOffset="22.206326154141568" xlink:href="#id5">May</textPath></text><line stroke="#e1ed5e" stroke-width="0.3" x1="143.8653032363475" x2="146.44561519142675" y1="172.8068346515853" y2="177.08958963109032" /><path d="M 144.38136562736335 173.6633856474863 a86.0,86.0 0 0,1 -40.68145358897372,12.25698825130547" fill="none" id="id6" stroke="none" /><text fill="#e1ed5e" style="font-size:6.75px; font-family:Arial;" text-anchor="middle"><textPath startOffset="21.466115282336833" xlink:href="#id6">June</textPath></text><line stroke="#e1ed5e" stroke-width="0.3" x1="102.19456741930631" x2="102.32365962044197" y1="184.97166512339345" y2="189.96999836594603" /><path d="M 102.22038585953345 185.97133177190398 a86.0,86.0 0 0,1 -42.740103519485714,-10.115201625700543" fill="none" id="id7" stroke="none" /><text fill="#e1ed5e" style="font-size:6.75px; font-family:Arial;" text-anchor="middle"><textPath startOffset="22.20632615414155" xlink:href="#id7">July</textPath></text><path d="M 100.54218724476979 120.99299961872073 l 0.3777923826223359 14.627779278934693 a35.63265709697315,35.63265709697315 0 0,0 -0.6132894586227715,0.010558334209039438 l -0.12594323410689648 -14.632115090422893" fill="#ff6209" stroke="none" /><path d="M 99.45781275523022 120.99299961872073 l -0.7526866100050039 29.14334460885487 a50.153062825771,50.153062825771 0 0,0 -0.8628229000063848,-0.02971736525189767 l 1.2542298616860317 -29.12607044517688" fill="#cbff1d" stroke="none" /><path d="M 98.37488393609728 120.93702456842531 l -1.2681651544075203 16.338282282981947 a37.387425387084306,37.387425387084306 0 0,0 -0.6412044618177406,-0.05532581901330128 l 1.5492139339668025 -16.31403221168998" fill="#ff7e0b" stroke="none" /><path d="M 98.01472825383883 120.90594882070398 l -1.4446787006938826 15.213221584132402 a36.28166245917474,36.28166245917474 0 0,0 -0.6212239600608469,-0.06439240349182665 l 1.7063352573603228 -15.186099812184814" fill="#ff6d0a" stroke="none" /><path d="M 97.2962882734958 120.8252237178851 l -3.6801661450474272 28.34632203511307 a49.58421934868066,49.58421934868066 0 0,0 -0.8454614893849178,-0.11717325856610784 l 4.167556225619176 -28.278774211054355" fill="#d2ff1c" stroke="none" /><path d="M 96.22490169976321 120.6578951692458 l -3.667125407958979 20.067051564019554 a41.39937173617653,41.39937173617653 0 0,0 -0.6999103667965667,-0.13413948759727115 l 4.012003389327241 -20.000954878073816" fill="#ffba11" stroke="none" /><path d="M 95.51606077576429 120.51570834832081 l -6.315094939595719 28.89393443881605 a50.57600161365136,50.57600161365136 0 0,0 -0.8489057853850556,-0.19320819295368086 l 6.811520874373636 -28.780949512284682" fill="#c5ff1e" stroke="none" /><path d="M 94.46302465271185 120.25689768951611 l -7.778368794716692 28.45698436115881 a50.500897953076944,50.500897953076944 0 0,0 -0.8365565895526177,-0.23641924834548528 l 8.267056552373923 -28.318876319474803" fill="#c6ff1e" stroke="none" /><path d="M 93.42475214034765 119.94407469862007 l -8.795987631344659 26.680033682707638 a49.092589694102294,49.092589694102294 0 0,0 -0.8002799686088207,-0.2714984158337632 l 9.253937332890704 -26.524672279975753" fill="#d9ff1c" stroke="none" /><path d="M 92.40401165467489 119.57807347666478 l -6.293465418440335 16.220921199925836 a38.39902271816747,38.39902271816747 0 0,0 -0.6141629729343969,-0.24438812180982009 l 6.57174946741659 -16.11018623370995" fill="#ff8d0d" stroke="none" /><path d="M 92.06813273071674 119.44442032107085 l -11.057687948065366 27.10715206671017 a50.275760552452596,50.275760552452596 0 0,0 -0.7984952876054559,-0.33377109497896706 l 11.522654695168285 -26.91279592871123" fill="#c9ff1d" stroke="none" /><path d="M 91.07499286063937 119.00905698771935 l -12.535808013106683 26.699574038136245 a50.495995259685486,50.495995259685486 0 0,0 -0.7836192938976823,-0.3761848815369602 l 12.993539975004607 -26.479834880099723" fill="#c6ff1e" stroke="none" /><path d="M 90.10565033884886 118.52300852407294 l -4.016513893986093 7.519233061620555 a29.52474338004089,29.52474338004089 0 0,0 -0.44621333496463556,-0.24331108791952594 l 4.145350040819369 -7.448981321941263" fill="#ff0000" stroke="none" /><line stroke="#e1ed5e" stroke-width="0.3" x1="58.666819895761336" x2="56.23545636021788" y1="174.27360380694188" y2="178.64263932499728" /><path d="M 58.180547188652646 175.14741091055294 a86.0,86.0 0 0,1 -31.652253787137756,-30.449443065178592" fill="none" id="id8" stroke="none" /><text fill="#e1ed5e" style="font-size:6.75px; font-family:Arial;" text-anchor="middle"><textPath startOffset="22.20632615414155" xlink:href="#id8">August</textPath></text><path d="M 89.7882731507175 118.34994917583269 l -10.69588748302837 19.219960991983065 a42.99565660722484,42.99565660722484 0 0,0 -0.6436065557863557,-0.3654565994747952 l 11.025142805735932 -19.033001226713637" fill="#ffd113" stroke="none" /><path d="M 89.1626897886671 117.98757091392108 l -10.541619338036114 17.49678856587467 a41.42702495193511,41.42702495193511 0 0,0 -0.6076373985771077,-0.37326051932831794 l 10.84123593654553 -17.312739579717974" fill="#ffba11" stroke="none" /><path d="M 88.54995079064634 117.60387380957326 l -10.188513253918533 15.664325833868691 a39.68627587709439,39.68627587709439 0 0,0 -0.5694513825978311,-0.37740132515102964 l 10.456639335256327 -15.486626487626342" fill="#ffa00e" stroke="none" /><path d="M 87.95078237400918 117.19931262002967 l -7.156867777035984 10.21586712916032 a33.47335951452672,33.47335951452672 0 0,0 -0.4690616642959363,-0.3346630431155373 l 7.331656769180807 -10.091159824200563" fill="#ff4006" stroke="none" /><path d="M 87.36589467227662 116.77436683061367 l -17.537125768722145 23.284132367777424 a50.14964151320147,50.14964151320147 0 0,0 -0.685071020308949,-0.5252832454459717 l 17.93532551752458 -22.978809780504086" fill="#cbff1d" stroke="none" /><path d="M 86.79598089348748 116.32954008644616 l -10.57726231875633 13.08100417347909 a37.82234075110714,37.82234075110714 0 0,0 -0.5027307196188341,-0.413713156513156 l 10.800863166919854 -12.896995898108754" fill="#ff840c" stroke="none" /><path d="M 85.97065885151581 115.62618273729859 l -6.44697442460507 7.180779153870238 a30.650236706328464,30.650236706328464 0 0,0 -0.38955057075555316,-0.3558452102303105 l 6.5696245448274775 -7.068741177053351" fill="#ff1302" stroke="none" /><path d="M 85.44109423537348 115.13401014063109 l -21.035764994412215 21.866717587723446 a51.34232599787617,51.34232599787617 0 0,0 -0.6316329698423242,-0.6181858021085175 l 21.409047916630335 -21.50138168269236" fill="#bbff1f" stroke="none" /><path d="M 85.18274418774928 114.88116024355367 l -9.935133029846705 9.977981654061347 a35.080731025395515,35.080731025395515 0 0,0 -0.42424192970497177,-0.42975483497097244 l 10.105415584607211 -9.80548632510971" fill="#ff5a08" stroke="none" /><path d="M 82.85270091963577 112.12312394758628 l -11.257642712192368 7.959142563380923 a34.787039920867706,34.787039920867706 0 0,0 -0.3414747072286811,-0.4919197841500419 l 11.392978326583183 -7.764181517043869" fill="#ff5507" stroke="none" /><line stroke="#e1ed5e" stroke-width="0.3" x1="26.63291911575756" x2="22.317208475507996" y1="142.92168965132927" y2="145.44649492493687" /><path d="M 25.769776987707644 143.4266507060508 a86.0,86.0 0 0,1 -11.730757126820373,-40.83630448921669" fill="none" id="id9" stroke="none" /><text fill="#e1ed5e" style="font-size:6.75px; font-family:Arial;" text-anchor="middle"><textPath startOffset="21.46611528233685" xlink:href="#id9">September</textPath></text><path d="M 80.45479744820244 107.68017299344265 l -10.608053637073123 4.168372614227382 a32.39763713311058,32.39763713311058 0 0,0 -0.19948570518880687,-0.5207942279251956 l 10.678233621855439 -3.985154819469028" fill="#ff2f04" stroke="none" /><path d="M 79.23777060512086 103.15116336523772 l -29.480478413185466 4.474365531681494 a50.81809105864079,50.81809105864079 0 0,0 -0.12381694545429717,-0.865975428126044 l 29.553129409656364 -3.9662446315750493" fill="#c2ff1e" stroke="none" /><line stroke="#e1ed5e" stroke-width="0.3" x1="15.007084014347285" x2="10.007500721073583" y1="101.09737516637583" y2="101.16192664675087" /><path d="M 14.007167355692545 101.11028546245083 a86.0,86.0 0 0,1 10.666146001902534,-42.60595125391555" fill="none" id="id10" stroke="none" /><text fill="#e1ed5e" style="font-size:6.75px; font-family:Arial;" text-anchor="middle"><textPath startOffset="22.20632615414155" xlink:href="#id10">October</textPath></text><path d="M 79.16333360222342 97.38593545837743 l -11.18872782515147 -1.4036821493055704 a32.27643356392427,32.27643356392427 0 0,0 0.07390381247130941,-0.5506692442629839 l 11.162908013622326 1.5960697356332139" fill="#ff2d04" stroke="none" /><path d="M 79.21141760316559 97.0276538004421 l -11.683778504265446 -1.6705436653014862 a32.80260125033521,32.80260125033521 0 0,0 0.08473084750910768,-0.5582704191770511 l 11.653291763317036 1.8714131968706293" fill="#ff3605" stroke="none" /><path d="M 79.26566170972629 96.67025291283419 l -11.702961696502825 -1.8793897386357787 a32.852907586727476,32.852907586727476 0 0,0 0.09447266346717212,-0.5575830075741156 l 11.66887717151543 2.0805585345257223" fill="#ff3605" stroke="none" /><path d="M 79.32604984820605 96.31383870115002 l -11.661639844074132 -2.079268120447845 a32.845556119051906,32.845556119051906 0 0,0 0.10403325657317869,-0.5557498165253564 l 11.624120863591092 2.279696014435774" fill="#ff3605" stroke="none" /><path d="M 79.46518482838121 95.60439243477599 l -11.56695760040538 -2.4759807142183843 a32.82898933243061,32.82898933243061 0 0,0 0.12303932045297715,-0.55156114800443 l 11.522623892950364 2.6747200317727735" fill="#ff3605" stroke="none" /><path d="M 79.62865764111835 94.90015583598534 l -11.867542431857729 -2.970968527556005 a33.233773635459826,33.233773635459826 0 0,0 0.1437023119948392,-0.553743627978444 l 11.814643787992582 3.174808581083313" fill="#ff3d05" stroke="none" /><path d="M 79.91906864156998 93.8553929516997 l -60.24279407529007 -18.433821144900918 a84.0,84.0 0 0,0 0.4349780649271846,-1.378999334294342 l 59.91656052659468 19.468070645621676" fill="#4dd2ff" stroke="none" /><path d="M 80.2630227832202 92.82701384747504 l -9.822741925120516 -3.5698674135781094 a31.45132586220749,31.45132586220749 0 0,0 0.1893001559296723,-0.507230303775256 l 9.759837180689216 3.738420854382707" fill="#ff2003" stroke="none" /><path d="M 81.10775173730289 90.83032412892265 l -13.652782850664982 -6.626611705394161 a36.17598307397181,36.17598307397181 0 0,0 0.2767290215428757,-0.5578688211966492 l 13.536693816168693 6.8606401150897725" fill="#ff6b09" stroke="none" /><path d="M 81.6062741919709 89.86733742301443 l -25.933772876385348 -14.286293742069756 a50.60842387714418,50.60842387714418 0 0,0 0.42689978933665673,-0.7594070904713484 l 25.68401544575626 14.730584342475888" fill="#c5ff1e" stroke="none" /><line stroke="#e1ed5e" stroke-width="0.3" x1="26.266209847984243" x2="21.928928074336255" y1="57.711370442889674" y2="55.22380399835377" /><path d="M 25.398753493254645 57.213857153982495 a86.0,86.0 0 0,1 29.58750427330803,-30.492523968695096" fill="none" id="id11" stroke="none" /><text fill="#e1ed5e" style="font-size:6.75px; font-family:Arial;" text-anchor="middle"><textPath startOffset="21.46611528233685" xlink:href="#id11">November</textPath></text><path d="M 82.54541684631803 88.32363383020206 l -13.838161662764378 -9.25713557686494 a37.64900229122635,37.64900229122635 0 0,0 0.3649721789750106,-0.5355516374443705 l 13.676765018120626 9.493965237579726" fill="#ff820b" stroke="none" /><path d="M 83.39014120810768 87.1503855733568 l -9.616823772684974 -7.439706684821241 a33.158640344670644,33.158640344670644 0 0,0 0.35313307648274816,-0.44844314590770473 l 9.487336615608253 7.604142224681993" fill="#ff3b05" stroke="none" /><path d="M 83.6137871275137 86.86637796730984 l -9.43836870815054 -7.564894230451354 a33.095884779085466,33.095884779085466 0 0,0 0.36011712276604746,-0.4414610117832742 l 9.3067530933081 7.72623941184271" fill="#ff3a05" stroke="none" /><path d="M 83.84228863543731 86.58626213691792 l -22.76475709939347 -18.898746075989543 a50.58710477622161,50.58710477622161 0 0,0 0.5619730780336814,-0.6651988689584668 l 22.436073407872666 19.287803894577124" fill="#c5ff1e" stroke="none" /><path d="M 84.5562425177563 85.77008943001954 l -8.895202616967332 -8.196058367714784 a33.09545378908497,33.09545378908497 0 0,0 0.38963227004183326,-0.4156325393562345 l 8.752803024955043 8.347960323949069" fill="#ff3a05" stroke="none" /><path d="M 85.57189188830299 84.74124197986013 l -8.386958383429514 -8.869809368421912 a33.20715319628306,33.20715319628306 0 0,0 0.41871392228534277,-0.3891489576724701 l 8.233036577349313 9.012862912169028" fill="#ff3c05" stroke="none" /><path d="M 89.00827224532344 82.1063720568725 l -6.311338985315143 -10.2743403172569 a33.0579877567681,33.0579877567681 0 0,0 0.4874289059051393,-0.2936704619285973 l 6.133548013192355 10.381457388644115" fill="#ff3a05" stroke="none" /><line stroke="#e1ed5e" stroke-width="0.3" x1="56.762969772571076" x2="54.21961505331055" y1="26.818313649435495" y2="22.513508569990535" /><path d="M 56.25429882871897 25.957352633546506 a86.0,86.0 0 0,1 42.265352541879196,-11.944610805530505" fill="none" id="id12" stroke="none" /><text fill="#e1ed5e" style="font-size:6.75px; font-family:Arial;" text-anchor="middle"><textPath startOffset="22.20632615414155" xlink:href="#id12">December</textPath></text><path d="M 89.3179101791058 81.91981866633112 l -6.0137325643990165 -10.178661393002773 a32.82244167291674,32.82244167291674 0 0,0 0.48890319065499044,-0.28320428454477037 l 5.837632641278706 10.280669834937592" fill="#ff3605" stroke="none" /><path d="M 92.23578459929587 80.48803036053334 l -16.406338686387663 -41.230177915281914 a65.37449177194327,65.37449177194327 0 0,0 1.049157347939763,-0.4070567513632711 l 15.694198173448225 41.506477370535734" fill="#33ff4f" stroke="none" /><path d="M 94.98787191387505 79.60689891045804 l -10.818678706582908 -44.01850964850227 a66.32850097490052,66.32850097490052 0 0,0 1.1110855010596417,-0.262958040368033 l 10.059369518560732 44.19821360101117" fill="#34ff5c" stroke="none" /></svg>