<?xml version="1.0" encoding="utf-8" ?>
<svg baseProfile="full" height="200mm" version="1.1" viewBox="0,0,200,200" width="200mm" xmlns="http://www.w3.org/2000/svg" xmlns:ev="http://www.w3.org/2001/xml-events" xmlns:xlink="http://www.w3.org/1999/xlink"><defs /><rect fill="#1a1a1a" height="200" width="200" x="0" y="0" /><text alignment-baseline="middle" fill="#e1ed5e" style="dominant-baseline: central; font-size:9.0px; font-family:Arial;" text-anchor="middle" x="100.0" y="100.0">2024</text><line stroke="#e1ed5e" stroke-width="0.3" x1="100.0" x2="100.0" y1="15.0" y2="10.0" /><path d="M 100.0 14.0 a86.0,86.0 0 0,1 42.35913384403234,11.155469271406648" fill="none" id="id25" stroke="none" /><text fill="#e1ed5e" style="font-size:6.75px; font-family:Arial;" text-anchor="middle"><textPath startOffset="22.145653131862478" xlink:href="#id25">January</textPath></text><path d="M 101.08105385017728 79.02784411241856 l 1.3772231358481404 -26.71776090733547 a47.75323328996813,47.75323328996813 0 0,0 0.8182986049205307,0.049226812057328505 l -1.8356660929011337 26.690182117453453" fill="#ff960d" stroke="none" /><path d="M 101.44090949804482 79.04949213459386 l 2.81217841970243 -40.88845703414798 a61.98504929968495,61.98504929968495 0 0,0 1.0609213608901178,0.08212202306852007 l -3.513668775367781 40.834157244084416" fill="#78ff26" stroke="none" /><path d="M 102.15924093988457 79.11130261209362 l 2.797989457699503 -27.068009871821747 a48.212238118656046,48.212238118656046 0 0,0 0.8225101914946672,0.09216398254906082 l -3.2622355507949665 27.015990128765715" fill="#ff9f0e" stroke="none" /><path d="M 102.87502721639298 79.19773525538626 l 8.62508164917894 -62.40679423384121 a84.0,84.0 0 0,0 1.4266995775692721,0.20967570680447034 l -9.695106332355895 62.24953745373786" fill="#4dd2ff" stroke="none" /><path d="M 103.58742460773223 79.30868818359171 l 6.682453702497237 -38.54261716303727 a60.11762422824876,60.11762422824876 0 0,0 1.0153158673899751,0.18502437298950827 l -7.343104303438266 38.422224616116395" fill="#95ff23" stroke="none" /><path d="M 104.29559338865022 79.4440306129975 l 9.745465158260162 -46.63557868037491 a68.64295635247987,68.64295635247987 0 0,0 1.1513632886531318,0.2509342699319365 l -10.544590863532427 46.46141295230926" fill="#32ff4a" stroke="none" /><path d="M 104.9986988182912 79.60360301121754 l 5.998024368335161 -24.47398625364196 a46.19825984996976,46.19825984996976 0 0,0 0.7686394025608199,0.19538513038995836 l -6.417269064121375 24.367415891416734" fill="#ff790b" stroke="none" /><path d="M 105.3480935250658 79.69241777938227 l 11.426124471795605 -43.38685572465686 a65.8661962965121,65.8661962965121 0 0,0 1.0909280057911126,0.297337279119728 l -12.16923387852141 43.18431795139299" fill="#40ff2d" stroke="none" /><path d="M 105.69591212413111 79.78721728523813 l 8.562164984593576 -30.384102954877097 a52.56745763592582,52.56745763592582 0 0,0 0.866461863582376,0.2522144205383278 l -9.082486860557555 30.23264484003625" fill="#ffed16" stroke="none" /><path d="M 107.06938296918511 80.22567764915836 l 11.216401704114253 -31.374271825487366 a54.31895256108192,54.31895256108192 0 0,0 0.8753391817835757,0.3214366722619601 l -11.753330037551953 31.177104304216684" fill="#f3ff19" stroke="none" /><line stroke="#e1ed5e" stroke-width="0.3" x1="143.13028292997686" x2="145.6673583964461" y1="26.7553504044142" y2="22.446841604673864" /><path d="M 143.63769802327073 25.89364864446614 a86.0,86.0 0 0,1 29.32050498858742,28.57503671076993" fill="none" id="id26" stroke="none" /><text fill="#e1ed5e" style="font-size:6.75px; font-family:Arial;" text-anchor="middle"><textPath startOffset="20.669276256404974" xlink:href="#id26">February</textPath></text><path d="M 115.8921839302757 86.27271002978787 l 23.82946712739032 -20.583326151300692 a52.48836005615718,52.48836005615718 0 0,0 0.5831342739856004,0.6869307084847661 l -24.179295964883032 20.171228660366374" fill="#ffec16" stroke="none" /><path d="M 116.1254893667686 86.54754324733833 l 30.13957025917419 -25.14350146116512 a60.2503421785761,60.2503421785761 0 0,0 0.6557336831845069,0.7998884726796158 l -30.566750761597323 24.622410706787008" fill="#93ff23" stroke="none" /><path d="M 116.57777611688842 87.10902102172516 l 24.854603141446567 -19.32708973451197 a52.48472161103991,52.48472161103991 0 0,0 0.546960835413608,0.7159892912351076 l -25.18271595421448 18.89757953003598" fill="#ffec16" stroke="none" /><path d="M 116.7966241395341 87.39550010848427 l 26.832841000609925 -20.135864127910878 a54.547792480902544,54.547792480902544 0 0,0 0.5556029832297918,0.7537821533937438 l -27.174546003423544 19.672275665248257" fill="#efff19" stroke="none" /><path d="M 117.01052211995028 87.68569379921539 l 32.603928856565446 -23.60273014885669 a61.25052853520969,61.25052853520969 0 0,0 0.609252886574529,0.8569904837963797 l -33.004296841669934 23.039562438350806" fill="#83ff25" stroke="none" /><path d="M 117.42321728460499 88.27688183743584 l 28.937308928211372 -19.47031287796602 a55.877799981831295,55.877799981831295 0 0,0 0.528645393488851,0.8004365042228683 l -29.267278760620947 18.97069649540409" fill="#d9ff1c" stroke="none" /><line stroke="#e1ed5e" stroke-width="0.3" x1="172.87174338648825" x2="177.1583165268699" y1="56.24261187166439" y2="53.66864786411523" /><path d="M 173.72905801456457 55.72781907015455 a86.0,86.0 0 0,1 12.242430191666344,42.057860355516425" fill="none" id="id27" stroke="none" /><text fill="#e1ed5e" style="font-size:6.75px; font-family:Arial;" text-anchor="middle"><textPath startOffset="22.145653131862474" xlink:href="#id27">March</textPath></text><path d="M 118.00360718960297 89.18935116829356 l 34.51708347387353 -20.726516869699243 a61.26186226557684,61.26186226557684 0 0,0 0.5336383416563407,0.906234568617262 l -34.86779552565963 20.130931132788422" fill="#83ff25" stroke="none" /><path d="M 118.36410011445183 89.81374322990088 l 16.702736821912264 -9.264726557305979 a40.100172133353,40.100172133353 0 0,0 0.32873481495152473,0.6048350333369509 l -16.85931698647913 8.976636690494423" fill="#ff0000" stroke="none" /><line stroke="#e1ed5e" stroke-width="0.3" x1="184.99686870605535" x2="189.99668451229388" y1="99.2704041080226" y2="99.22748670261217" /><path d="M 185.99683186730306 99.26182062694052 a86.0,86.0 0 0,1 -10.086455211305974,41.156179273409016" fill="none" id="id28" stroke="none" /><text fill="#e1ed5e" style="font-size:6.75px; font-family:Arial;" text-anchor="middle"><textPath startOffset="21.40746469413373" xlink:href="#id28">April</textPath></text><line stroke="#e1ed5e" stroke-width="0.3" x1="174.33088141563837" x2="178.70328620479359" y1="141.23008692659167" y2="143.65538615756765" /><path d="M 175.20536237346943 141.71514677278685 a86.0,86.0 0 0,1 -30.301960400862466,31.631185727798858" fill="none" id="id29" stroke="none" /><text fill="#e1ed5e" style="font-size:6.75px; font-family:Arial;" text-anchor="middle"><textPath startOffset="22.145653131862474" xlink:href="#id29">May</textPath></text><line stroke="#e1ed5e" stroke-width="0.3" x1="143.1302829299769" x2="145.66735839644613" y1="173.24464959558577" y2="177.55315839532614" /><path d="M 143.63769802327073 174.10635135553383 a86.0,86.0 0 0,1 -40.68552437913181,11.842963189579606" fill="none" id="id30" stroke="none" /><text fill="#e1ed5e" style="font-size:6.75px; font-family:Arial;" text-anchor="middle"><textPath startOffset="21.407464694133747" xlink:href="#id30">June</textPath></text><line stroke="#e1ed5e" stroke-width="0.3" x1="101.45913802915013" x2="101.54496967792366" y1="184.9874750549273" y2="189.98673829345242" /><path d="M 101.47630435890484 185.9873277026323 a86.0,86.0 0 0,1 -42.54439059252881,-10.42667462771756" fill="none" id="id31" stroke="none" /><text fill="#e1ed5e" style="font-size:6.75px; font-family:Arial;" text-anchor="middle"><textPath startOffset="22.145653131862474" xlink:href="#id31">July</textPath></text><line stroke="#e1ed5e" stroke-width="0.3" x1="58.13341422392154" x2="55.67067388415222" y1="173.97424548756322" y2="178.32567169271397" /><path d="M 57.64086615596768 174.84453072859336 a86.0,86.0 0 0,1 -31.369924170532247,-30.572349798747897" fill="none" id="id32" stroke="none" /><text fill="#e1ed5e" style="font-size:6.75px; font-family:Arial;" text-anchor="middle"><textPath startOffset="22.145653131862474" xlink:href="#id32">August</textPath></text><line stroke="#e1ed5e" stroke-width="0.3" x1="26.387840678322732" x2="22.057713659400548" y1="142.50000000000003" y2="145.00000000000006" /><path d="M 25.521815274538298 143.00000000000003 a86.0,86.0 0 0,1 -11.493303480769221,-40.785679425670985" fill="none" id="id33" stroke="none" /><text fill="#e1ed5e" style="font-size:6.75px; font-family:Arial;" text-anchor="middle"><textPath startOffset="21.40746469413373" xlink:href="#id33">September</textPath></text><line stroke="#e1ed5e" stroke-width="0.3" x1="15.003131293944662" x2="10.003315487706104" y1="100.72959589197737" y2="100.7725132973878" /><path d="M 14.003168132696942 100.73817937305945 a86.0,86.0 0 0,1 10.791469493833604,-42.45332614584628" fill="none" id="id34" stroke="none" /><text fill="#e1ed5e" style="font-size:6.75px; font-family:Arial;" text-anchor="middle"><textPath startOffset="22.145653131862435" xlink:href="#id34">October</textPath></text><line stroke="#e1ed5e" stroke-width="0.3" x1="26.387840678322718" x2="22.05771365940052" y1="57.49999999999999" y2="54.99999999999999" /><path d="M 25.521815274538284 56.99999999999999 a86.0,86.0 0 0,1 29.574782752854787,-30.34633250058573" fill="none" id="id35" stroke="none" /><text fill="#e1ed5e" style="font-size:6.75px; font-family:Arial;" text-anchor="middle"><textPath startOffset="21.40746469413373" xlink:href="#id35">November</textPath></text><line stroke="#e1ed5e" stroke-width="0.3" x1="56.869717070023135" x2="54.33264160355391" y1="26.7553504044142" y2="22.446841604673864" /><path d="M 56.362301976729285 25.89364864446614 a86.0,86.0 0 0,1 42.16139366436587,-11.88097634709845" fill="none" id="id36" stroke="none" /><text fill="#e1ed5e" style="font-size:6.75px; font-family:Arial;" text-anchor="middle"><textPath startOffset="22.145653131862474" xlink:href="#id36">December</textPath></text></svg>