<?xml version="1.0" encoding="utf-8" ?>
<svg baseProfile="full" height="200mm" version="1.1" viewBox="0,0,200,200" width="200mm" xmlns="http://www.w3.org/2000/svg" xmlns:ev="http://www.w3.org/2001/xml-events" xmlns:xlink="http://www.w3.org/1999/xlink"><defs /><rect fill="#1a1a1a" height="200" width="200" x="0" y="0" /><text alignment-baseline="middle" fill="#e1ed5e" style="dominant-baseline: central; font-size:9.0px; font-family:Arial;" text-anchor="middle" x="100.0" y="100.0">2023</text><line stroke="#e1ed5e" stroke-width="0.3" x1="100.0" x2="100.0" y1="15.0" y2="10.0" /><path d="M 100.0 14.0 a86.0,86.0 0 0,1 42.46469731375804,11.215312516191453" fill="none" id="id13" stroke="none" /><text fill="#e1ed5e" style="font-size:6.75px; font-family:Arial;" text-anchor="middle"><textPath startOffset="22.20632615414155" xlink:href="#id13">January</textPath></text><path d="M 102.88285421437855 79.19881850522331 l 0.8234538494557193 -5.941616086470501 a26.99840628510511,26.99840628510511 0 0,0 0.4597841698354061,0.06776023476610489 l -0.9256069997197812 5.926561367543427" fill="#ff2c04" stroke="none" /><path d="M 104.66035177308747 79.52364482259891 l 1.6695576932139915 -7.335595676024187 a28.523189935996218,28.523189935996218 0 0,0 0.47779917103582875,0.11307962671210096 l -1.795580551212344 7.305770137171217" fill="#ff4206" stroke="none" /><path d="M 105.01212808612495 79.60689891045804 l 3.443856528633619 -14.0121946445711 a35.42919770975363,35.42919770975363 0 0,0 0.590977763749884,0.15065339064865754 l -3.6845431810685283 13.950838257753574" fill="#ffa30f" stroke="none" /><path d="M 106.0581310904928 79.89281104454417 l 2.9325762720657593 -9.73334256851084 a31.1655280801082,31.1655280801082 0 0,0 0.5123236266880093,0.15918144467559156 l -3.0996852714644874 9.681420988952727" fill="#ff6809" stroke="none" /><path d="M 109.41281617654863 81.2277094730956 l 4.452736601710062 -8.880239830385312 a30.934058721860378,30.934058721860378 0 0,0 0.4739385223843886,0.24276971903736314 l -4.6049356116832065 8.80227758603545" fill="#ff6509" stroke="none" /><path d="M 110.36928655335952 81.73862282372117 l 5.065378531096743 -8.92065113843476 a31.258463647006465,31.258463647006465 0 0,0 0.4656071222332082,0.2697096980577068 l -5.21818238579528 8.832137282987004" fill="#ff6909" stroke="none" /><line stroke="#e1ed5e" stroke-width="0.3" x1="143.23703022742887" x2="145.7803849466894" y1="26.81831364943548" y2="22.513508569990506" /><path d="M 143.74570117128098 25.957352633546492 a86.0,86.0 0 0,1 28.547481713284135,27.462654790039103" fill="none" id="id14" stroke="none" /><text fill="#e1ed5e" style="font-size:6.75px; font-family:Arial;" text-anchor="middle"><textPath startOffset="19.985693538727396" xlink:href="#id14">February</textPath></text><path d="M 110.99172775467656 82.1063720568725 l 3.2181819652133825 -5.238935317908594 a27.148425686828677,27.148425686828677 0 0,0 0.39608369874710436,0.2480275758186484 l -3.3078848163327503 5.182763400767001" fill="#ff2e04" stroke="none" /><path d="M 111.90073688211348 82.69761687909136 l 10.07660959753836 -14.650299518719443 a38.781151171096695,38.781151171096695 0 0,0 0.5467567253743219,0.38303802704517165 l -10.327297462496333 14.474676648910336" fill="#ffd013" stroke="none" /><path d="M 112.77801427241765 83.33499621200491 l 7.266977535148975 -9.477545224843418 a32.942898558780115,32.942898558780115 0 0,0 0.44703112513988835,0.3489148838618954 l -7.429041215448293 9.351051951758299" fill="#ff810b" stroke="none" /><path d="M 113.34407831869373 83.78471172551755 l 7.994764861080566 -9.714977221582616 a33.58161546065678,33.58161546065678 0 0,0 0.44318531531705735,0.371154956250679 l -8.160807713356741 9.575921107938118" fill="#ff8a0c" stroke="none" /><path d="M 113.6212207817346 84.01681056812373 l 5.9785089294989175 -7.015203869867556 a30.217139163314343,30.217139163314343 0 0,0 0.39297562345975595,0.34078458821820296 l -6.0983783516054375 6.9112542882296815" fill="#ff5b08" stroke="none" /><path d="M 114.16331599549186 84.49514656593476 l 4.125146163990601 -4.5158765565301895 a27.116369180167702,27.116369180167702 0 0,0 0.34191432281032386,0.3177720998831539 l -4.202268370595771 4.444199870572395" fill="#ff2e04" stroke="none" /><path d="M 114.42810811169701 84.74124197986012 l 12.828397253815405 -13.566949177730619 a39.671633192970134,39.671633192970134 0 0,0 0.49214881904907154,0.47344677399620855 l -13.060029316476895 13.344119316972108" fill="#ffdb14" stroke="none" /><path d="M 114.94478906791727 85.2469230424477 l 8.392306194278309 -8.2846494903916 a32.79263416023612,32.79263416023612 0 0,0 0.3930989478781723,0.4051230201615076 l -8.53366940585959 8.138962274679978" fill="#ff7f0b" stroke="none" /><path d="M 115.19652480421416 85.50635884689758 l 9.097970537764539 -8.677162831286957 a33.57243901185046,33.57243901185046 0 0,0 0.3952478097563379,0.4216228055914888 l -9.245985669491338 8.519270608817413" fill="#ff8a0c" stroke="none" /><path d="M 115.4437574822437 85.77008943001954 l 9.200119730830622 -8.477009636634925 a33.510071760034805,33.510071760034805 0 0,0 0.38721104838025905,0.4275681107856535 l -9.344674419826918 8.317388738579723" fill="#ff890c" stroke="none" /><path d="M 115.9244219780498 86.31012108654704 l 38.2035121056159 -32.842727699342575 a71.38008634308902,71.38008634308902 0 0,0 0.792962692962659,0.9386177151593175 l -38.763185412065674 32.180251034554146" fill="#3dffab" stroke="none" /><path d="M 116.60985879189232 87.15038557335679 l 8.054620638715342 -6.2311649278376215 a31.183532294421852,31.183532294421852 0 0,0 0.32478994198040056,0.4273854921971454 l -8.160686520919855 6.091594659759443" fill="#ff6809" stroke="none" /><path d="M 116.82858285166822 87.43820079747576 l 14.255969950789131 -10.641456475420348 a38.78969575782757,38.78969575782757 0 0,0 0.39480039203187306,0.5385072910458704 l -14.437032955334631 10.394486740702986" fill="#ffd013" stroke="none" /><path d="M 117.2510076193507 88.02491185347247 l 6.297216232858444 -4.371322599245493 a28.66572850745774,28.66572850745774 0 0,0 0.2778876665667015,0.4077658611496018 l -6.371528365093878 4.262278714825485" fill="#ff4406" stroke="none" /><path d="M 117.45458315368197 88.32363383020206 l 14.783010720900618 -9.88919900002725 a38.78577135904998,38.78577135904998 0 0,0 0.36643940656541646,0.5581123561617622 l -14.95104676282396 9.633268579887815" fill="#ffd013" stroke="none" /><line stroke="#e1ed5e" stroke-width="0.3" x1="172.23445277983987" x2="176.4835382374775" y1="55.19839476539836" y2="52.563006222186495" /><path d="M 173.08426987136738 54.67131705675599 a86.0,86.0 0 0,1 12.851231095245387,41.99856678651699" fill="none" id="id15" stroke="none" /><text fill="#e1ed5e" style="font-size:6.75px; font-family:Arial;" text-anchor="middle"><textPath startOffset="22.20632615414155" xlink:href="#id15">March</textPath></text><path d="M 117.84615892207809 88.93136811851018 l 9.45832799267996 -5.866290400218758 a32.12983968783073,32.12983968783073 0 0,0 0.2874613943304608,0.4725109493948693 l -9.557905185296645 5.702611677616807" fill="#ff760a" stroke="none" /><path d="M 118.3937258080291 89.86733742301442 l 25.79004463822673 -14.207117301404885 a50.444330259960154,50.444330259960154 0 0,0 0.4124229974278129,0.7641571780357724 l -26.030775734873004 13.761079140036653" fill="#9fff22" stroke="none" /><path d="M 119.196687751892 91.48605970444005 l 16.58339461922714 -7.354916301740353 a39.14121745921749,39.14121745921749 0 0,0 0.2678550750932103,0.6182464434830591 l -16.70754040416303 7.068370713670691" fill="#ffd413" stroke="none" /><path d="M 119.47837535516314 92.15188598940014 l 9.908704570413576 -3.992357768449333 a31.682759325896686,31.682759325896686 0 0,0 0.19946024478234528,0.5076045668021575 l -9.975958365077622 3.8212041967513914" fill="#ff6f0a" stroke="none" /><path d="M 119.61058180528143 92.48833698450437 l 11.361997675819042 -4.352114515063081 a33.16700012071752,33.16700012071752 0 0,0 0.1996265061154636,0.5348997883348731 l -11.435228770436131 4.155891589698874" fill="#ff840c" stroke="none" /><path d="M 119.7369772167798 92.82701384747503 l 17.281428837237588 -6.280569125851964 a39.387314409698654,39.387314409698654 0 0,0 0.22609616225069368,0.6392042971193576 l -17.38697808029809 5.982167202305992" fill="#ffd814" stroke="none" /><path d="M 119.85752413597 93.16781622104841 l 13.99166760260272 -4.81397599118744 a35.79665932382886,35.79665932382886 0 0,0 0.1954543729523913,0.5843836972254889 l -14.07245926932688 4.5724191910396375" fill="#ffa80f" stroke="none" /><path d="M 120.08093135843002 93.85539295169968 l 28.44992938083731 -8.705454616463895 a50.752032230655146,50.752032230655146 0 0,0 0.24842902966229366,0.8375791873351445 l -28.59556430761131 8.21444604238222" fill="#9cff22" stroke="none" /><path d="M 120.28053869075195 94.5502522615342 l 15.615336320116404 -4.196123440978575 a37.16929745914387,37.16929745914387 0 0,0 0.16071945481400485,0.6193176209901177 l -15.685252106800712 3.9267093944396065" fill="#ffba11" stroke="none" /><path d="M 120.37134235888165 94.90015583598534 l 19.319593065893123 -4.836544996028522 a40.91579382626548,40.91579382626548 0 0,0 0.16515796513134176,0.6846863909013612 l -19.399983831285283 4.503273373467755" fill="#ffeb16" stroke="none" /><path d="M 120.45610955862082 95.25157060432595 l 11.64288313799314 -2.7026355321579434 a32.95244605027137,32.95244605027137 0 0,0 0.12350202219851875,0.5536353492029908 l -11.687679547193698 2.501822013404989" fill="#ff810b" stroke="none" /><path d="M 120.53481517161879 95.60439243477599 l 29.258831028768544 -6.263038549157181 a50.92164509244533,50.92164509244533 0 0,0 0.1760936057038106,0.858694959782944 l -29.36230393038735 5.7584679332108255" fill="#9aff23" stroke="none" /><path d="M 120.67395015179393 96.31383870115 l 17.638940469915553 -3.145019661725345 a38.917125036508054,38.917125036508054 0 0,0 0.11191108266378305,0.6605055448048089 l -17.69046341409956 2.8409283286046985" fill="#ffd113" stroke="none" /><path d="M 120.73433829027371 96.67025291283417 l 17.739247428076386 -2.8487625997623067 a38.966534102723294,38.966534102723294 0 0,0 0.10065261086520368,0.6631749464436908 l -17.785655932380887 2.542988540926534" fill="#ffd213" stroke="none" /><path d="M 120.78858239683441 97.02765380044208 l 32.136797104203694 -4.594911038916687 a53.463624806424704,53.463624806424704 0 0,0 0.1224164278839818,0.912144577851361 l -32.21112953114552 4.041048119000663" fill="#7eff26" stroke="none" /><path d="M 120.87857604477298 97.74499172005257 l 29.01652773313835 -3.1339546410269876 a50.185279737909,50.185279737909 0 0,0 0.08536964003235804,0.8596606247699423 l -29.066174498852934 2.6340184855526103" fill="#a2ff22" stroke="none" /><path d="M 120.94382443527127 98.46500227214037 l 17.611267696739002 -1.290750692776803 a38.65850467160531,38.65850467160531 0 0,0 0.042928261028327516,0.6640811976101575 l -17.630876548771745 0.9874104309136104" fill="#ffce13" stroke="none" /><path d="M 120.96714384426684 98.82574320788733 l 17.654524783133063 -0.9887348411445176 a38.682189963473206,38.682189963473206 0 0,0 0.03151012837626111,0.6651290079671164 l -17.66892851974282 0.6846947265544014" fill="#ffce13" stroke="none" /><line stroke="#e1ed5e" stroke-width="0.3" x1="184.98032266829074" x2="189.97916517819016" y1="98.17113171792111" y2="98.06355123074" /><path d="M 185.9800911702706 98.14961562048488 a86.0,86.0 0 0,1 -9.607161424134198,41.387399972396054" fill="none" id="id16" stroke="none" /><text fill="#e1ed5e" style="font-size:6.75px; font-family:Arial;" text-anchor="middle"><textPath startOffset="21.466115282336823" xlink:href="#id16">April</textPath></text><path d="M 120.99513854157772 99.54816195383933 l 52.53718902251469 -1.1306570228958752 a73.54935409394545,73.54935409394545 0 0,0 0.01634544343109819,1.2659726070492165 l -52.5488674730635 0.22614815778619585" fill="#40ffc3" stroke="none" /><path d="M 120.99824983174949 100.27111621757518 l 17.960071754971565 0.23188916984045238 a38.96156869626973,38.96156869626973 0 0,0 -0.014430506619683894,0.670528939029759 l -17.953419185666874 -0.5410079246603262" fill="#ffd213" stroke="none" /><path d="M 120.9904718944345 100.63252640178507 l 6.278131996555252 0.18918508653279598 a27.28098179929995,27.28098179929995 0 0,0 -0.018184550424540206,0.4692624452239962 l -6.273945313279508 -0.29722477877079834" fill="#ff3004" stroke="none" /><path d="M 120.9764740272857 100.99374915477107 l 29.6895878330488 1.40652822663215 a50.72288591891158,50.72288591891158 0 0,0 -0.04882355323508379,0.8717773408203277 l -29.660977928926187 -1.9173772837879008" fill="#9cff22" stroke="none" /><path d="M 120.95626037817324 101.35467743843564 l 17.765596068716288 1.148423036379011 a38.80267617936342,38.80267617936342 0 0,0 -0.04882382084248148,0.666162244689399 l -17.743195689209468 -1.4540584175651805" fill="#ffd013" stroke="none" /><path d="M 120.89721153311464 102.0752229133903 l 17.90753504081352 1.7783294665964005 a38.99561799243719,38.99561799243719 0 0,0 -0.0720819115243135,0.6673889779455967 l -17.874270827788155 -2.0863147664267885" fill="#ffd213" stroke="none" /><path d="M 120.8583938346157 102.4346265915055 l 18.572112591127663 2.1677680234302064 a39.69819735431545,39.69819735431545 0 0,0 -0.08506471269356962,0.6780494560851458 l -18.532046369187245 -2.4871352338027473" fill="#ffdc14" stroke="none" /><path d="M 120.81339534386255 102.79330883721812 l 18.622847058861037 2.4993213459051193 a39.78981212699654,39.78981212699654 0 0,0 -0.09694683320709152,0.6780459256521205 l -18.577066174637345 -2.8195127435376492" fill="#ffdd14" stroke="none" /><path d="M 120.76222939487914 103.15116336523771 l 26.963412870397995 4.092340818656654 a48.27219989285037,48.27219989285037 0 0,0 -0.13175608623711352,0.8204452747695116 l -26.888975029799592 -4.55586532311937" fill="#b9ff1f" stroke="none" /><path d="M 120.41448212921028 104.9243191809786 l 8.856785933309403 2.1364069182441767 a30.11081179636529,30.11081179636529 0 0,0 -0.12587564729103268,0.5028106395299902 l -8.818698971723311 -2.288545397171563" fill="#ff5908" stroke="none" /><path d="M 120.32669344350535 105.2749913415812 l 15.905561704960164 4.127661024152366 a37.43242157080331,37.43242157080331 0 0,0 -0.16721940355917195,0.6222856077886962 l -15.832154225059213 -4.4008375651166105" fill="#ffbe11" stroke="none" /><path d="M 120.23288151984713 105.62410040840565 l 10.507105683493915 2.9206426829383236 a31.905476767455482,31.905476767455482 0 0,0 -0.1516381669072166,0.527872352062602 l -10.455274879700598 -3.1010725105055075" fill="#ff730a" stroke="none" /><path d="M 120.13307415673323 105.97154293290107 l 17.01281461339613 5.046062617288157 a38.745382751785826,38.745382751785826 0 0,0 -0.19515353257817164,0.6377730359732912 l -16.923434308311826 -5.3381626258135055" fill="#ffcf13" stroke="none" /><path d="M 120.02730092923936 106.31721596034902 l 30.0207970067249 9.469466637733468 a52.478866741389055,52.478866741389055 0 0,0 -0.2791569558523292,0.8591567673146787 l -29.853347799856326 -9.984822305025943" fill="#88ff25" stroke="none" /><path d="M 119.9155931802556 106.66101706037122 l 19.51614311807473 6.527416034538309 a41.57879982635342,41.57879982635342 0 0,0 -0.23285943323596026,0.6767985120682598 l -19.400892853895538 -6.862387249695869" fill="#fff417" stroke="none" /><path d="M 119.79798401119884 107.00284435728193 l 16.907817296472256 5.980548973146926 a38.93435952999424,38.93435952999424 0 0,0 -0.2289261340597253,0.6299064010700417 l -16.802366901407304 -6.270703171223099" fill="#ffd213" stroke="none" /><path d="M 119.67450827220406 107.3425965602758 l 16.508197666443106 6.1609181650159215 a38.620371813057204,38.620371813057204 0 0,0 -0.23780166665018987,0.6208251125823638 l -16.39970172019941 -6.444166844431429" fill="#ffce13" stroke="none" /><path d="M 119.41010516605496 108.01547362559984 l 57.577259898921525 23.77673918847255 a83.2934521752054,83.2934521752054 0 0,0 -0.5586571910468106,1.3205005749682375 l -57.159451726682406 -24.764314289106952" fill="#4cd9ff" stroke="none" /><path d="M 119.12269723197855 108.67885076344098 l 9.239875154635762 4.193524405427868 a31.1469670252827,31.1469670252827 0 0,0 -0.22577899950956176,0.48630787870086534 l -9.16632153828637 -4.351952351407564" fill="#ff6809" stroke="none" /><path d="M 118.97047184881838 109.00673069616215 l 16.136005119008164 7.6609930304845255 a38.86229199777537,38.86229199777537 0 0,0 -0.29210886820651866,0.601830788294231 l -16.00174299418693 -7.937612774744032" fill="#ffd113" stroke="none" /><line stroke="#e1ed5e" stroke-width="0.3" x1="174.80103733775053" x2="179.2010983576182" y1="140.37084112569926" y2="142.7455964860345" /><path d="M 175.68104954172406 140.8457921977663 a86.0,86.0 0 0,1 -30.038265399797805,32.042727171017184" fill="none" id="id17" stroke="none" /><text fill="#e1ed5e" style="font-size:6.75px; font-family:Arial;" text-anchor="middle"><textPath startOffset="22.206326154141568" xlink:href="#id17">May</textPath></text><path d="M 118.30583269289576 110.29060199501025 l 17.893060985268832 10.058562872330077 a41.52647847243084,41.52647847243084 0 0,0 -0.3556406790518033,0.6200895009688677 l -17.71726831006465 -10.365072219157259" fill="#fff316" stroke="none" /><path d="M 118.12598468904814 110.60418214915192 l 19.18487418613311 11.223660610352292 a43.22678463102862,43.22678463102862 0 0,0 -0.3812584378924025,0.639011071852041 l -18.98883487254248 -11.552233776090437" fill="#f6ff19" stroke="none" /><path d="M 117.75023020441432 111.22182372390056 l 18.99898229556853 12.011293814170122 a43.47737767973942,43.47737767973942 0 0,0 -0.40536471918153155,0.6291350461395213 l -18.78941271300995 -12.336550460231095" fill="#f3ff19" stroke="none" /><path d="M 116.498646956653 112.99209946851258 l 6.868583451562412 5.408765921528719 a29.742550395906644,29.742550395906644 0 0,0 -0.32020275687239547,0.3995021726229265 l -6.774462782635162 -5.526195927729895" fill="#ff5407" stroke="none" /><path d="M 116.0416608686014 113.55231037782055 l 35.0890903261801 29.643953133715225 a66.9348257568561,66.9348257568561 0 0,0 -0.7511282409608527,0.8737318382660508 l -34.573619575648465 -30.243562071142804" fill="#37ff78" stroke="none" /><path d="M 115.07121518719521 114.62390073753431 l 10.470776914083235 10.160003711347438 a35.58981989604711,35.58981989604711 0 0,0 -0.430398495961247,0.43599140408448533 l -10.294337793066452 -10.338735609412588" fill="#ffa50f" stroke="none" /><path d="M 114.55890576462653 115.13401014063108 l 20.17626835505183 20.973269201820482 a50.10257421169298,50.10257421169298 0 0,0 -0.6266738500089036,0.5925592401929312 l -19.812258670652117 -21.317463078759335" fill="#a3ff21" stroke="none" /><path d="M 113.48314897796784 116.09983520530334 l 9.006044502730784 10.753855244240375 a35.026911285070696,35.026911285070696 0 0,0 -0.4655741544989663,0.38313583302558674 l -8.819600219687128 -10.907286196123142" fill="#ff9e0e" stroke="none" /><path d="M 112.92097659922987 116.55440617244103 l 13.191712485590271 16.90127405768532 a42.44001732917828,42.44001732917828 0 0,0 -0.5797534159037874,0.44453019736113414 l -12.89883034119299 -17.125843596873825" fill="#ffff18" stroke="none" /><path d="M 111.45004920935366 117.60387380957326 l 9.433936444197935 14.504202004261012 a38.30234182455008,38.30234182455008 0 0,0 -0.5557819322933042,0.3547263251015875 l -9.1828727098577 -14.664442758186409" fill="#ffc912" stroke="none" /><line stroke="#e1ed5e" stroke-width="0.3" x1="143.8653032363475" x2="146.44561519142675" y1="172.8068346515853" y2="177.08958963109032" /><path d="M 144.38136562736335 173.6633856474863 a86.0,86.0 0 0,1 -40.68145358897372,12.25698825130547" fill="none" id="id18" stroke="none" /><text fill="#e1ed5e" style="font-size:6.75px; font-family:Arial;" text-anchor="middle"><textPath startOffset="21.466115282336833" xlink:href="#id18">June</textPath></text><path d="M 110.21172684928248 118.3499491758327 l 14.470949310053768 26.003553393537516 a50.758917369835586,50.758917369835586 0 0,0 -0.7671296413061917,0.4183002455906386 l -14.021196856878928 -26.248794290887925" fill="#9cff22" stroke="none" /><path d="M 109.57404056367764 118.69057910512821 l 10.742765931638079 20.972181506616664 a44.56351877391061,44.56351877391061 0 0,0 -0.6857393786521502,0.3438439601721708 l -10.380172645303169 -21.153993307698137" fill="#e5ff1a" stroke="none" /><path d="M 108.2653958097858 119.30500536409082 l 3.576037456555153 8.352343175054308 a30.08568546696185,30.08568546696185 0 0,0 -0.4778302268482967,0.19973307357576686 l -3.431735770209395 -8.412661291650048" fill="#ff5908" stroke="none" /><path d="M 107.2578585660854 119.70592522655815 l 4.2582653782051025 11.561682881209743 a33.32093077153178,33.32093077153178 0 0,0 -0.5399267125315725,0.19359850944151671 l -4.058619105043795 -11.63326893169122" fill="#ff860c" stroke="none" /><path d="M 106.91757812671514 119.82793768551818 l 5.906365623020619 16.92948708000363 a38.930217167251755,38.930217167251755 0 0,0 -0.6346186495084307,0.21529710196247773 l -5.614077240574962 -17.02864716886423" fill="#ffd213" stroke="none" /><path d="M 105.53697534728816 120.25689768951611 l 4.711209334449405 17.235851615011402 a38.8681301284632,38.8681301284632 0 0,0 -0.6468944261878223,0.17085069748815016 l -4.4138244654500856 -17.314393661803134" fill="#ffd113" stroke="none" /><line stroke="#e1ed5e" stroke-width="0.3" x1="102.19456741930631" x2="102.32365962044197" y1="184.97166512339345" y2="189.96999836594603" /><path d="M 102.22038585953345 185.97133177190398 a86.0,86.0 0 0,1 -42.740103519485714,-10.115201625700543" fill="none" id="id19" stroke="none" /><text fill="#e1ed5e" style="font-size:6.75px; font-family:Arial;" text-anchor="middle"><textPath startOffset="22.20632615414155" xlink:href="#id19">July</textPath></text><path d="M 95.16358092515715 120.4354850818985 l -5.823588787134524 24.60660665276734 a46.28634566966237,46.28634566966237 0 0,0 -0.7737461718369189,-0.1901679838866818 l 6.246288243714654 -24.502717410566625" fill="#d0ff1d" stroke="none" /><path d="M 93.08242187328487 119.8279376855182 l -5.881492532807737 16.858193041287617 a38.854708819546495,38.854708819546495 0 0,0 -0.6295951137485389,-0.2257504078690146 l 6.1708072071860025 -16.754455092378645" fill="#ffd113" stroke="none" /><line stroke="#e1ed5e" stroke-width="0.3" x1="58.666819895761336" x2="56.23545636021788" y1="174.27360380694188" y2="178.64263932499728" /><path d="M 58.180547188652646 175.14741091055294 a86.0,86.0 0 0,1 -31.652253787137756,-30.449443065178592" fill="none" id="id20" stroke="none" /><text fill="#e1ed5e" style="font-size:6.75px; font-family:Arial;" text-anchor="middle"><textPath startOffset="22.20632615414155" xlink:href="#id20">August</textPath></text><path d="M 89.4739219176387 118.17145234162733 l -4.475178485515791 7.725621255469895 a29.928182696394135,29.928182696394135 0 0,0 -0.44355295318334675,-0.2620589029936407 l 4.607499309727519 -7.647443780182504" fill="#ff5708" stroke="none" /><path d="M 89.1626897886671 117.98757091392108 l -4.622694001741709 7.672663654375513 a29.957626213842246,29.957626213842246 0 0,0 -0.4394081902150729,-0.26992039933826006 l 4.75408139188909 -7.591954788208875" fill="#ff5708" stroke="none" /><path d="M 88.8546689885994 117.79835938074946 l -5.068317725165808 8.093769510842684 a30.549709391278697,30.549709391278697 0 0,0 -0.4432882092238392,-0.2829275085823634 l 5.20688773643657 -8.005327573436517" fill="#ff5f08" stroke="none" /><path d="M 88.54995079064634 117.60387380957326 l -6.693722381256082 10.291260933593822 a33.27664330835766,33.27664330835766 0 0,0 -0.4774806938006527,-0.3164481676246363 l 6.869877773796696 -10.174514744877868" fill="#ff860c" stroke="none" /><path d="M 87.65650970185807 116.9893568818739 l -5.40854149440435 7.444218729016293 a30.201560388441223,30.201560388441223 0 0,0 -0.4179536840805887,-0.30919214362142905 l 5.535880148903503 -7.350016636655098" fill="#ff5a08" stroke="none" /><path d="M 87.07902340077011 116.55440617244103 l -7.17141852366202 9.18804969280297 a32.65544940355967,32.65544940355967 0 0,0 -0.44013715598214204,-0.34967157589437875 l 7.32851317236152 -9.06324420290346" fill="#ff7d0b" stroke="none" /><path d="M 85.97065885151581 115.62618273729859 l -5.971751353107802 6.651465447859249 a29.938892930749887,29.938892930749887 0 0,0 -0.3805097148419403,-0.3475866027098499 l 6.085360617416597 -6.5476860785628235" fill="#ff5708" stroke="none" /><path d="M 85.70375840098266 115.38237550388516 l -12.146311289235653 13.069107705268832 a38.84192966433089,38.84192966433089 0 0,0 -0.48582776409200235,-0.45938047478907373 l 12.369474887718471 -12.858092593733828" fill="#ffd013" stroke="none" /><path d="M 85.44109423537348 115.13401014063109 l -10.323424882294756 10.731219734541641 a35.890674205401126,35.890674205401126 0 0,0 -0.44154082810620165,-0.43214063232739325 l 10.506615662776753 -10.551928999291677" fill="#ffa90f" stroke="none" /><path d="M 83.95833913139862 113.55231037782056 l -11.325514978900031 9.568017641061818 a35.82613405837675,35.82613405837675 0 0,0 -0.3939236982109336,-0.47450647092717985 l 11.4885346770045 -9.371649913020876" fill="#ffa80f" stroke="none" /><path d="M 83.50135304334701 112.99209946851258 l -7.025442912222382 5.532287184867827 a29.94220608176464,29.94220608176464 0 0,0 -0.31538151727323943,-0.4076731249320243 l 7.1196312467136895 -5.41053606582255" fill="#ff5708" stroke="none" /><path d="M 83.28015986056508 112.70617746262583 l -14.257658665098573 10.835052230733236 a38.90751762398065,38.90751762398065 0 0,0 -0.40063392033563,-0.5367146069491336 l 14.442053852129288 -10.588024744274794" fill="#ffd113" stroke="none" /><path d="M 82.44556493220864 111.52570212397912 l -7.477085450220435 4.909224325475357 a29.944679441306832,29.944679441306832 0 0,0 -0.27919155249244015,-0.43331148949949616 l 7.560481866089921 -4.779791236054412" fill="#ff5708" stroke="none" /><path d="M 82.24976979558568 111.22182372390057 l -7.606735262637761 4.809032967384885 a29.9994010599179,29.9994010599179 0 0,0 -0.2721879376522363,-0.4388536220215029 l 7.688387839957953 -4.677383013998118" fill="#ff5808" stroke="none" /><line stroke="#e1ed5e" stroke-width="0.3" x1="26.63291911575756" x2="22.317208475507996" y1="142.92168965132927" y2="145.44649492493687" /><path d="M 25.769776987707644 143.4266507060508 a86.0,86.0 0 0,1 -11.730757126820373,-40.83630448921669" fill="none" id="id21" stroke="none" /><text fill="#e1ed5e" style="font-size:6.75px; font-family:Arial;" text-anchor="middle"><textPath startOffset="21.46611528233685" xlink:href="#id21">September</textPath></text><path d="M 81.87401531095188 110.60418214915194 l -7.774463292054739 4.548267378304469 a30.007164682854157,30.007164682854157 0 0,0 -0.2569870794922955,-0.4480786346002178 l 7.851602367699412 -4.413768897845944" fill="#ff5808" stroke="none" /><path d="M 80.73074385275274 108.34839909993369 l -5.481298160047312 2.3747706852889747 a26.97362246271439,26.97362246271439 0 0,0 -0.18091467893154667,-0.42762885966195907 l 5.521363820171165 -2.2800672999608564" fill="#ff2c04" stroke="none" /><path d="M 80.20201598880116 107.00284435728193 l -8.470753773576359 2.996232860459908 a29.98504762628768,29.98504762628768 0 0,0 -0.1679293588312102,-0.48808132275393395 l 8.521073963350798 -2.8499788346166772" fill="#ff5708" stroke="none" /><path d="M 79.58551787078972 104.9243191809786 l -8.704861887351246 2.099760262755759 a29.954530341615268,29.954530341615268 0 0,0 -0.1165936360923641,-0.5022823327469454 l 8.739716089374166 -1.9496092726602394" fill="#ff5708" stroke="none" /><path d="M 79.35854240842038 103.8639653848113 l -8.832754420777798 1.6534422137100901 a29.98617948918495,29.98617948918495 0 0,0 -0.09060617948783019,-0.508167572254725 l 8.859907042604817 -1.5011558907221514" fill="#ff5708" stroke="none" /><path d="M 79.1416061653843 102.43462659150553 l -17.748356920548314 2.0716178847187967 a38.86884926455708,38.86884926455708 0 0,0 -0.07184758436917323,-0.6652193995137046 l 17.78138680641854 -1.7658021633203103" fill="#ffd113" stroke="none" /><line stroke="#e1ed5e" stroke-width="0.3" x1="15.007084014347285" x2="10.007500721073583" y1="101.09737516637583" y2="101.16192664675087" /><path d="M 14.007167355692545 101.11028546245083 a86.0,86.0 0 0,1 10.666146001902534,-42.60595125391555" fill="none" id="id22" stroke="none" /><text fill="#e1ed5e" style="font-size:6.75px; font-family:Arial;" text-anchor="middle"><textPath startOffset="22.20632615414155" xlink:href="#id22">October</textPath></text><path d="M 79.08570108090925 98.10471618934814 l -8.953136548304025 -0.8113460948512516 a29.989824054908286,29.989824054908286 0 0,0 0.051015367405979235,-0.5137177877342568 l 8.937844055215816 0.9653394132899388" fill="#ff5708" stroke="none" /><path d="M 79.12142395522702 97.74499172005258 l -17.77274123452343 -1.9195599621003319 a38.87610252368866,38.87610252368866 0 0,0 0.0775849396840037,-0.664700382888336 l 17.737065941835837 2.2252040833135296" fill="#ffd113" stroke="none" /><path d="M 79.21141760316559 97.0276538004421 l -15.02384225780405 -2.148105127386719 a36.176633085954336,36.176633085954336 0 0,0 0.09344614952960818,-0.6156933702659853 l 14.98464021483514 2.4063976100447966" fill="#ffad10" stroke="none" /><path d="M 79.3925641242962 95.95851677861259 l -19.00862472352528 -3.727928032635628 a40.37073207951437,40.37073207951437 0 0,0 0.13960718990673565,-0.6807742384695764 l 18.94163823770355 4.054577927268607" fill="#ffe415" stroke="none" /><path d="M 80.02781315780177 93.51064311812611 l -17.138689621764563 -5.5686978257338025 a39.02068471022987,39.02068471022987 0 0,0 0.21305796703587526,-0.6370162029073568 l 17.040294360956914 5.862887131563481" fill="#ffd313" stroke="none" /><path d="M 80.2630227832202 92.82701384747504 l -23.16056292785228 -8.417215835104074 a45.6426702601348,45.6426702601348 0 0,0 0.2747154328292506,-0.7361007800622204 l 23.012242906521404 8.814639752195635" fill="#d8ff1c" stroke="none" /><path d="M 80.38941819471856 92.48833698450439 l -9.192257556729356 -3.5210144096386773 a30.843532976636546,30.843532976636546 0 0,0 0.19417685733086262,-0.4941589220247477 l 9.130287149516802 3.6787223365591886" fill="#ff6409" stroke="none" /><path d="M 80.52162464483688 92.15188598940014 l -8.541659882162048 -3.4415560524253617 a30.208922934009287,30.208922934009287 0 0,0 0.19848458225806645,-0.4806461595937462 l 8.481153613017781 3.5880767824724193" fill="#ff5b08" stroke="none" /><path d="M 80.65960295795068 91.81776055985345 l -16.56533014199059 -7.008206570534894 a38.98680410880239,38.98680410880239 0 0,0 0.26679837828468805,-0.6158074415583066 l 16.44224105386322 7.292313156679801" fill="#ffd213" stroke="none" /><path d="M 81.6062741919709 89.86733742301443 l -15.043520683900837 -8.287114891825354 a38.17509207536501,38.17509207536501 0 0,0 0.3220202787670855,-0.5728381439383543 l 14.898642763841321 8.544836545698493" fill="#ffc812" stroke="none" /><line stroke="#e1ed5e" stroke-width="0.3" x1="26.266209847984243" x2="21.928928074336255" y1="57.711370442889674" y2="55.22380399835377" /><path d="M 25.398753493254645 57.213857153982495 a86.0,86.0 0 0,1 29.58750427330803,-30.492523968695096" fill="none" id="id23" stroke="none" /><text fill="#e1ed5e" style="font-size:6.75px; font-family:Arial;" text-anchor="middle"><textPath startOffset="21.46611528233685" xlink:href="#id23">November</textPath></text><path d="M 81.78341655067845 89.55222093294921 l -11.43145558677789 -6.5562965041014305 a34.178133429365786,34.178133429365786 0 0,0 0.297089885818719,-0.5078229179656099 l 11.316906026488846 6.7520988344209325" fill="#ff920d" stroke="none" /><path d="M 81.96595687620814 89.24020034530311 l -13.776183527027548 -8.219397821090782 a37.04187436404166,37.04187436404166 0 0,0 0.33140871404143873,-0.5447487878300367 l 13.632659014699893 8.455314382127893" fill="#ffb911" stroke="none" /><path d="M 82.54541684631803 88.32363383020206 l -7.4876980486100395 -5.0089482753422 a30.00861725750474,30.00861725750474 0 0,0 0.29090572822565647,-0.4268682602896824 l 7.400367854715642 5.137094558902298" fill="#ff5808" stroke="none" /><path d="M 82.7489923806493 88.02491185347247 l -5.945258867920417 -4.127005249096926 a28.237283698505948,28.237283698505948 0 0,0 0.2806078456617077,-0.39689989763867645 l 5.873338402454831 4.228731647067388" fill="#ff3e05" stroke="none" /><path d="M 83.17141714833178 87.43820079747576 l -10.905495366433144 -8.140474109120337 a34.608715880220046,34.608715880220046 0 0,0 0.3604647067120039,-0.4743293008350194 l 10.763754719497031 8.326988185836383" fill="#ff980e" stroke="none" /><path d="M 83.39014120810768 87.1503855733568 l -8.33620598753659 -6.449003213272715 a31.53954328761179,31.53954328761179 0 0,0 0.33589000743829467,-0.42654619928232607 l 8.223961899504326 6.591541806508089" fill="#ff6d0a" stroke="none" /><path d="M 83.6137871275137 86.86637796730984 l -24.652404905348448 -19.759011477711663 a52.59366395645794,52.59366395645794 0 0,0 0.5722729295846725,-0.7015389453579377 l 24.308633483687384 20.180434592677685" fill="#87ff25" stroke="none" /><path d="M 84.07557802195018 86.31012108654704 l -2.308592434044919 -1.9846466594612948 a24.044408216622784,24.044408216622784 0 0,0 0.2725126090958083,-0.3115290207642474 l 2.2740879613712672 2.0240912364284855" fill="#ff0000" stroke="none" /><path d="M 84.5562425177563 85.77008943001954 l -12.330071168547018 -11.360953463018767 a37.76609431591963,37.76609431591963 0 0,0 0.4446196493543406,-0.47428924172266856 l 12.132684197222222 11.571512121619486" fill="#ffc212" stroke="none" /><path d="M 84.80347519578584 85.50635884689758 l -8.907876448384231 -8.495861148678582 a33.30974896077514,33.30974896077514 0 0,0 0.3992978181192865,-0.41151150084105387 l 8.760314366561825 8.647936845069758" fill="#ff860c" stroke="none" /><path d="M 85.05521093208273 85.24692304244772 l -21.378969195554838 -21.104719269156977 a51.04113012678465,51.04113012678465 0 0,0 0.6226147741658968,-0.6199410684593049 l 21.012518621221627 21.46959618826639" fill="#99ff23" stroke="none" /><path d="M 85.57189188830299 84.74124197986013 l -8.248901799906946 -8.723804640376501 a33.00621290449085,33.00621290449085 0 0,0 0.41618023632846,-0.3867941727066184 l 8.09751367978363 8.864503399157767" fill="#ff820c" stroke="none" /><path d="M 85.83668400450813 84.49514656593479 l -42.48994798647562 -46.514560302195655 a84.0,84.0 0 0,0 1.0759560496161145,-0.9660039649228849 l 41.68298094926353 47.23906327588782" fill="#4dd2ff" stroke="none" /><path d="M 86.37877921826538 84.01681056812374 l -10.568378381728358 -12.400973185121464 a37.29339613332607,37.29339613332607 0 0,0 0.49217065045474173,-0.41217876568566925 l 10.353350194314507 12.581053108200946" fill="#ffbc11" stroke="none" /><path d="M 86.93701828274178 83.55741782278169 l -12.179411108604269 -15.330417844708105 a40.57957523149411,40.57957523149411 0 0,0 0.5506598984016541,-0.4297987851250654 l 11.913718655043189 15.537795019056391" fill="#ffe715" stroke="none" /><path d="M 87.22198572758235 83.33499621200491 l -11.76448105387677 -15.34316030228994 a40.33431101769058,40.33431101769058 0 0,0 0.5546041638982621,-0.41771635809804486 l 11.498630736220116 15.543393249893839" fill="#ffe415" stroke="none" /><path d="M 87.80319425747018 82.90503203632743 l -21.256727140190005 -29.79329810976439 a57.59903087473466,57.59903087473466 0 0,0 0.8120609253413457,-0.5689005735965531 l 20.740735075265 30.154783526124888" fill="#51ff2b" stroke="none" /><line stroke="#e1ed5e" stroke-width="0.3" x1="56.762969772571076" x2="54.21961505331055" y1="26.818313649435495" y2="22.513508569990535" /><path d="M 56.25429882871897 25.957352633546506 a86.0,86.0 0 0,1 42.265352541879196,-11.944610805530505" fill="none" id="id24" stroke="none" /><text fill="#e1ed5e" style="font-size:6.75px; font-family:Arial;" text-anchor="middle"><textPath startOffset="22.20632615414155" xlink:href="#id24">December</textPath></text></svg>