<?xml version="1.0" encoding="utf-8" ?>
<svg baseProfile="full" height="200mm" version="1.1" viewBox="0,0,200,200" width="200mm" xmlns="http://www.w3.org/2000/svg" xmlns:ev="http://www.w3.org/2001/xml-events" xmlns:xlink="http://www.w3.org/1999/xlink"><defs /><rect fill="#1a1a1a" height="200" width="200" x="0" y="0" /><text alignment-baseline="middle" fill="#e1ed5e" style="dominant-baseline: central; font-size:9.0px; font-family:Arial;" text-anchor="middle" x="100.0" y="100.0">2024</text><line stroke="#e1ed5e" stroke-width="0.3" x1="100.0" x2="100.0" y1="15.0" y2="10.0" /><path d="M 100.0 14.0 a86.0,86.0 0 0,1 42.35913384403234,11.155469271406648" fill="none" id="id25" stroke="none" /><text fill="#e1ed5e" style="font-size:6.75px; font-family:Arial;" text-anchor="middle"><textPath startOffset="22.145653131862478" xlink:href="#id25">January</textPath></text><path d="M 101.08105385017728 79.02784411241856 l 0.6532164477064576 -12.67222457732843 a33.68904911590309,33.68904911590309 0 0,0 0.5772949807449811,0.03472863249171996 l -0.8706557805839009 12.65914396701202" fill="#ff870c" stroke="none" /><path d="M 101.44090949804482 79.04949213459386 l 1.3338152328551451 -19.393380753508726 a40.439194430993254,40.439194430993254 0 0,0 0.6921476335624612,0.05357660428530586 l -1.66653186119284 19.367626382228366" fill="#ffe215" stroke="none" /><path d="M 102.15924093988457 79.11130261209362 l 1.3270854131803647 -12.838347537682052 a33.906754944298854,33.906754944298854 0 0,0 0.5784558566553314,0.06481718528168491 l -1.5472771714364926 12.813674591893395" fill="#ff8a0c" stroke="none" /><path d="M 102.87502721639298 79.19773525538626 l 4.090873184892576 -29.599520499685084 a50.88087778540233,50.88087778540233 0 0,0 0.864187224318896,0.12700576205340605 l -4.598385514819154 29.524933664332796" fill="#9dff22" stroke="none" /><path d="M 103.58742460773223 79.30868818359171 l 3.1694854347766532 -18.280749729813756 a39.55347537808879,39.55347537808879 0 0,0 0.6680116135215095,0.12173396862126828 l -3.4828317818492165 18.22364758726112" fill="#ffd614" stroke="none" /><path d="M 104.29559338865022 79.4440306129975 l 4.622270688188387 -22.1192385238063 a43.59703739847156,43.59703739847156 0 0,0 0.7312626236096597,0.1593752852747806 l -5.001295728417181 22.036631780397798" fill="#f4ff19" stroke="none" /><path d="M 104.9986988182912 79.60360301121754 l 2.8448608429220306 -11.608003050264953 a32.95152576161519,32.95152576161519 0 0,0 0.548242318155019,0.139361053390098 l -3.043708454302444 11.557456765039587" fill="#ff7d0b" stroke="none" /><path d="M 105.3480935250658 79.69241777938227 l 5.419406807976495 -20.57837037145008 a42.280021083046805,42.280021083046805 0 0,0 0.7002751286455711,0.19086310029752823 l -5.771863337556759 20.48230677700841" fill="#fffa17" stroke="none" /><path d="M 105.69591212413111 79.78721728523813 l 4.061031833064949 -14.411169317678798 a35.972434025634364,35.972434025634364 0 0,0 0.59292846991603,0.1725928361604473 l -4.3078203153625845 14.339332787215834" fill="#ffa70f" stroke="none" /><path d="M 107.06938296918511 80.22567764915836 l 5.319935373216133 -14.880806063863167 a36.803167451036614,36.803167451036614 0 0,0 0.5930757675676479,0.21778563680619814 l -5.574600292437905 14.787289578048247" fill="#ffb210" stroke="none" /><line stroke="#e1ed5e" stroke-width="0.3" x1="143.13028292997686" x2="145.6673583964461" y1="26.7553504044142" y2="22.446841604673864" /><path d="M 143.63769802327073 25.89364864446614 a86.0,86.0 0 0,1 29.32050498858742,28.57503671076993" fill="none" id="id26" stroke="none" /><text fill="#e1ed5e" style="font-size:6.75px; font-family:Arial;" text-anchor="middle"><textPath startOffset="20.669276256404974" xlink:href="#id26">February</textPath></text><path d="M 115.8921839302757 86.27271002978787 l 11.302307855949403 -9.762664335620503 a35.934918071440904,35.934918071440904 0 0,0 0.39922913076160393,0.470290912189802 l -11.46823155021812 9.567206640981148" fill="#ffa60f" stroke="none" /><path d="M 116.1254893667686 86.54754324733833 l 14.295187546332235 -11.925553877113648 a39.61642345513103,39.61642345513103 0 0,0 0.43116474243141123,0.5259508793598451 l -14.497799108002274 11.67840071605531" fill="#ffd714" stroke="none" /><path d="M 116.57777611688842 87.10902102172516 l 11.788529505940346 -9.166831846102479 a35.93319235820475,35.93319235820475 0 0,0 0.3744718140447831,0.4901956252913436 l -11.944153297339435 8.963115307570254" fill="#ffa60f" stroke="none" /><path d="M 116.7966241395341 87.39550010848427 l 12.72680702498981 -9.55043325570749 a36.91170614431569,36.91170614431569 0 0,0 0.37596854276116265,0.5100735351048434 l -12.888877587334798 9.330553411333772" fill="#ffb310" stroke="none" /><path d="M 117.01052211995028 87.68569379921539 l 15.464031960110868 -11.194766586981235 a40.09081149140397,40.09081149140397 0 0,0 0.3987792956302781,0.5609330198033714 l -15.653926354271105 10.92765634046836" fill="#ffdd14" stroke="none" /><path d="M 117.42321728460499 88.27688183743584 l 13.724955420989136 -9.234762532540438 a37.542528233028705,37.542528233028705 0 0,0 0.35518013623959643,0.5377879957390008 l -13.881459996149456 8.997794658462379" fill="#ffbc11" stroke="none" /><line stroke="#e1ed5e" stroke-width="0.3" x1="172.87174338648825" x2="177.1583165268699" y1="56.24261187166439" y2="53.66864786411523" /><path d="M 173.72905801456457 55.72781907015455 a86.0,86.0 0 0,1 12.242430191666344,42.057860355516425" fill="none" id="id27" stroke="none" /><text fill="#e1ed5e" style="font-size:6.75px; font-family:Arial;" text-anchor="middle"><textPath startOffset="22.145653131862474" xlink:href="#id27">March</textPath></text><path d="M 118.00360718960297 89.18935116829356 l 16.371440520497544 -9.830579642866073 a40.096187075720685,40.096187075720685 0 0,0 0.34926889236687353,0.5931349367121729 l -16.537783122994185 9.548093537860344" fill="#ffde14" stroke="none" /><path d="M 118.36410011445183 89.81374322990088 l 7.9221021850365005 -4.394256539270335 a30.059204907886794,30.059204907886794 0 0,0 0.24642056722657468,0.4533860887699821 l -7.996368101878416 4.25761561702575" fill="#ff5407" stroke="none" /><path d="M 118.8641267826498 90.77261029715802 l 17.189171234008874 -8.40808501090879 a40.13539916653811,40.13539916653811 0 0,0 0.29742383811294243,0.6215014301707075 l -17.33097433008173 8.111771078672978" fill="#ffde14" stroke="none" /><path d="M 119.0197475246899 91.09779779509293 l 18.817102074613608 -8.807353902102754 a41.776255996769784,41.776255996769784 0 0,0 0.2984327333194184,0.6521293808362384 l -18.96551927278808 8.483035539051832" fill="#fff316" stroke="none" /><path d="M 119.58574465831526 92.42381321644754 l 14.269946259190357 -5.51992176641505 a36.30035628825432,36.30035628825432 0 0,0 0.2198234041175939,0.583107696013412 l -14.362600347122392 5.27414579020748" fill="#ffab0f" stroke="none" /><path d="M 119.94978838288452 93.4421083053983 l 8.541434960824807 -2.807739326078732 a29.99107954103451,29.99107954103451 0 0,0 0.15657526331562885,0.4904697822579026 l -8.588374939917692 2.660700510129442" fill="#ff5307" stroke="none" /><path d="M 120.35273937422433 94.82641323984039 l 17.649804715254756 -4.48651133959331 a39.21110624006484,39.21110624006484 0 0,0 0.16022866735678343,0.6537876409824708 l -17.72422090912783 4.182867874002745" fill="#ffd213" stroke="none" /><path d="M 120.51834098615036 95.52812308129327 l 21.74075397088912 -4.738296139211472 a43.25110859093536,43.25110859093536 0 0,0 0.15187789318473657,0.7267906993052191 l -21.818889574898225 4.364388988620848" fill="#f8ff18" stroke="none" /><path d="M 120.592083275326 95.88100663000786 l 19.53009597363859 -3.906566166965636 a40.91697537168771,40.91697537168771 0 0,0 0.13185730628579898,0.6899331440814124 l -19.594279572206545 3.5707304578509094" fill="#ffe815" stroke="none" /><path d="M 120.7213421655516 96.59031103205396 l 25.788538845949965 -4.243494253411111 a47.13533966275938,47.13533966275938 0 0,0 0.1245237291450446,0.7995316684071698 l -25.857584067233276 3.8001744030725" fill="#c8ff1d" stroke="none" /><path d="M 120.82617615685814 97.30363454192243 l 11.883585921908475 -1.5385681152696489 a32.982771224082754,32.982771224082754 0 0,0 0.06787840769903125,0.5621305892232248 l -11.90824641586717 1.334343849123011" fill="#ff7e0b" stroke="none" /><path d="M 120.86939407059847 97.66154086499901 l 17.11497516516613 -1.9177686656788488 a38.222084994544446,38.222084994544446 0 0,0 0.06746672595762734,0.6526793727600507 l -17.14537428360542 1.6236847706358666" fill="#ffc512" stroke="none" /><path d="M 120.93736805541906 98.37931529534042 l 13.008310457692653 -1.0069254997305697 a34.04722345657204,34.04722345657204 0 0,0 0.04010444960206852,0.5831098954972826 l -13.023678868459788 0.7834721800789529" fill="#ff8c0c" stroke="none" /><path d="M 120.98066250479742 99.09900007780936 l 12.847128745065463 -0.551710986105913 a33.8589697100692,33.8589697100692 0 0,0 0.019953111815540218,0.5809130797548167 l -12.854706543877851 0.33109164178697637" fill="#ff8a0c" stroke="none" /><path d="M 120.99303781780057 99.45929381324524 l 12.059615116970628 -0.31061290701330424 a33.063614597104376,33.063614597104376 0 0,0 0.009743640025215466,0.5675181833684032 l -12.06317018859451 0.10354780767583466" fill="#ff7f0b" stroke="none" /><line stroke="#e1ed5e" stroke-width="0.3" x1="184.99686870605535" x2="189.99668451229388" y1="99.2704041080226" y2="99.22748670261217" /><path d="M 185.99683186730306 99.26182062694052 a86.0,86.0 0 0,1 -10.086455211305974,41.156179273409016" fill="none" id="id28" stroke="none" /><text fill="#e1ed5e" style="font-size:6.75px; font-family:Arial;" text-anchor="middle"><textPath startOffset="21.40746469413373" xlink:href="#id28">April</textPath></text><path d="M 120.99922638620191 99.81974689727618 l 22.193469440722176 -0.19050424302893512 a43.19428705056509,43.19428705056509 0 0,0 0.0,0.7415146915055213 l -22.193469440722176 -0.19050424302893243" fill="#f9ff18" stroke="none" /><path d="M 120.99922638620191 100.18025310272382 l 18.34856703763428 0.15750038016842835 a39.3492430008519,39.3492430008519 0 0,0 -0.011595975326256775,0.675407428282834 l -18.343159630709355 -0.47245472442033337" fill="#ffd413" stroke="none" /><path d="M 120.98066250479742 100.90099992219065 l 29.28071531794562 1.257439902916456 a50.307702820931254,50.307702820931254 0 0,0 -0.044458619164170446,0.8624853345693461 l -29.254815109324877 -1.7598970308625328" fill="#a3ff21" stroke="none" /><path d="M 120.93736805541906 101.62068470465957 l 26.58840980587103 2.0581110758304058 a47.667946250234465,47.667946250234465 0 0,0 -0.07015445390635991,0.8153010956148894 l -26.549161729266928 -2.514233218820953" fill="#c2ff1e" stroke="none" /><path d="M 120.82617615685814 102.69636545807757 l 11.811581574177502 1.529245710878613 a32.91016589841175,32.91016589841175 0 0,0 -0.07734748324592126,0.5596478581617946 l -11.783589574376371 -1.7317818772404927" fill="#ff7d0b" stroke="none" /><path d="M 120.77682067341334 103.0534771498775 l 10.489264172283189 1.541560615675923 a31.601937181843084,31.601937181843084 0 0,0 -0.08348706287565986,0.5360468332396389 l -10.461255617269261 -1.7213956308470124" fill="#ff6a09" stroke="none" /><path d="M 120.7213421655516 103.40968896794604 l 22.672339809189506 3.730724887764977 a43.97723439867271,43.97723439867271 0 0,0 -0.12896885745852615,0.7438580976806153 l -22.604956134238744 -4.1193760183661805" fill="#efff19" stroke="none" /><path d="M 120.592083275326 104.11899336999214 l 26.725767009514065 5.345901900661392 a48.255188302015554,48.255188302015554 0 0,0 -0.16944990714247501,0.8108791472336221 l -26.630059391547228 -5.803897499180423" fill="#bbff1f" stroke="none" /><path d="M 120.43855184770803 104.8234425847677 l 17.477499151700165 4.124642211038333 a38.95760702228332,38.95760702228332 0 0,0 -0.15919279140896445,0.649560913621862 l -17.404118833774906 -4.424058949268295" fill="#ffcf13" stroke="none" /><path d="M 120.35273937422433 105.17358676015961 l 18.37450084716401 4.670726262422461 a39.95884925835199,39.95884925835199 0 0,0 -0.1746972712788007,0.6633539940138027 l -18.29161409508048 -4.985460760809066" fill="#ffdc14" stroke="none" /><path d="M 120.05942366710727 106.21446072829308 l 16.831487041432737 5.214437710355289 a38.620707042031356,38.620707042031356 0 0,0 -0.20162819968745158,0.6315974637603247 l -16.73949412596803 -5.502604207806997" fill="#ffca12" stroke="none" /><path d="M 119.71291397450082 107.23885506374661 l 22.147026812865406 8.132695013970011 a44.59303975413155,44.59303975413155 0 0,0 -0.2700412558175416,0.7163165138872113 l -22.00415487323342 -8.511679808051381" fill="#e7ff1a" stroke="none" /><path d="M 119.58574465831526 107.57618678355244 l 29.009437934478548 11.22147378676112 a52.10416311719912,52.10416311719912 0 0,0 -0.3298474516467447,0.8314310504529502 l -28.812531807865682 -11.717805854427635" fill="#8fff24" stroke="none" /><line stroke="#e1ed5e" stroke-width="0.3" x1="174.33088141563837" x2="178.70328620479359" y1="141.23008692659167" y2="143.65538615756765" /><path d="M 175.20536237346943 141.71514677278685 a86.0,86.0 0 0,1 -30.301960400862466,31.631185727798858" fill="none" id="id29" stroke="none" /><text fill="#e1ed5e" style="font-size:6.75px; font-family:Arial;" text-anchor="middle"><textPath startOffset="22.145653131862474" xlink:href="#id29">May</textPath></text><path d="M 118.00360718960297 110.81064883170644 l 14.283396623244391 8.576769276939658 a37.66062394770272,37.66062394770272 0 0,0 -0.33756837645502935,0.5513925736909165 l -14.134060282333957 -8.820698966755131" fill="#ffbe11" stroke="none" /><path d="M 117.423217284605 111.72311816256416 l 15.381157534726825 10.34912922861505 a39.538729268713595,39.538729268713595 0 0,0 -0.3837332770592531,0.5598783192373725 l -15.201234520852251 -10.611642282922467" fill="#ffd614" stroke="none" /><path d="M 116.79662413953412 112.60449989151573 l 23.8061171069512 17.864554091302068 a50.76362720823744,50.76362720823744 0 0,0 -0.5290247350879045,0.6925103601522102 l -23.495940394508988 -18.270585364695155" fill="#9eff22" stroke="none" /><path d="M 116.35404254752997 113.17365903436017 l 23.184372091604065 18.67568902140695 a50.77073176302943,50.77073176302943 0 0,0 -0.5525624873344199,0.6740363891443076 l -22.86036278503102 -19.07092769224975" fill="#9eff22" stroke="none" /><path d="M 115.89218393027572 113.72728997021213 l 23.16702427813464 20.01112379570735 a51.61300523422692,51.61300523422692 0 0,0 -0.5849202000758866,0.6655318153661958 l -22.820093014100166 -20.40586788888484" fill="#94ff23" stroke="none" /><path d="M 115.41159269507618 114.26474011684316 l 14.07800853585642 13.03039452832482 a40.18284405137683,40.18284405137683 0 0,0 -0.4729026424373054,0.5022062183334434 l -13.852250059682854 -13.27014220660276" fill="#ffdf14" stroke="none" /><path d="M 114.13192950727249 115.5334660781643 l 4.009405364442545 4.407038839963649 a26.95796296676715,26.95796296676715 0 0,0 -0.3449784502271686,0.3084818574358218 l -3.933161887391998 -4.475216227282858" fill="#ff2703" stroke="none" /><path d="M 112.45986205192187 116.90419585922612 l 2.487406267432633 3.37464432197804 a25.192304168249457,25.192304168249457 0 0,0 -0.3503157718839945,0.2536016032620358 l -2.4291094851746706 -3.416846696613153" fill="#ff0c01" stroke="none" /><line stroke="#e1ed5e" stroke-width="0.3" x1="143.1302829299769" x2="145.66735839644613" y1="173.24464959558577" y2="177.55315839532614" /><path d="M 143.63769802327073 174.10635135553383 a86.0,86.0 0 0,1 -40.68552437913181,11.842963189579606" fill="none" id="id30" stroke="none" /><text fill="#e1ed5e" style="font-size:6.75px; font-family:Arial;" text-anchor="middle"><textPath startOffset="21.407464694133747" xlink:href="#id30">June</textPath></text><path d="M 110.34350942703117 118.27599006163325 l 9.155239403266112 16.176430787474988 a39.58750444661911,39.58750444661911 0 0,0 -0.594294802533006,0.3296453089456068 l -8.876200412577012 -16.331209011853737" fill="#ffd714" stroke="none" /><path d="M 109.71004243097381 118.62028667847754 l 8.896284197497046 17.059797967740863 a40.240077422473405,40.240077422473405 0 0,0 -0.6152377836425755,0.3141447960706641 l -8.602119192140888 -17.210000715484362" fill="#ffdf14" stroke="none" /><path d="M 109.3889696526874 118.78422872680471 l 9.44719646062688 18.90072134727601 a42.130233988601645,42.130233988601645 0 0,0 -0.6496878320666404,0.31779487493623243 l -9.12134837929817 -19.060109972309466" fill="#fff817" stroke="none" /><path d="M 108.73861861582097 119.09545874513695 l 7.537986400075541 16.471860674116744 a39.11472972570216,39.11472972570216 0 0,0 -0.6129587287453896,0.27416864284753995 l -7.254114268474524 -16.598833067874136" fill="#ffd113" stroke="none" /><path d="M 107.407793817531 119.65005319985036 l 10.50374581731625 27.862433700505253 a50.77656608660306,50.77656608660306 0 0,0 -0.8182543240694108,0.3004743218016518 l -10.023902341592713 -28.038638871315626" fill="#9eff22" stroke="none" /><path d="M 106.72888874123015 119.89276391827305 l 9.527882594280058 28.167491896200694 a50.735301351304926,50.735301351304926 0 0,0 -0.8274136719720058,0.27198730850099034 l -9.042946184660318 -28.326900126103702" fill="#9eff22" stroke="none" /><path d="M 105.69591212413111 120.21278271476187 l 4.155649096571478 14.746932606620794 a36.32127412188852,36.32127412188852 0 0,0 -0.6015816514924847,0.1639637542290568 l -3.9018860441442986 -14.816096854993992" fill="#ffac0f" stroke="none" /><path d="M 105.3480935250658 120.30758222061773 l 4.016690057466916 15.252026393039472 a36.77206733791503,36.77206733791503 0 0,0 -0.6118078897631793,0.15551917312165542 l -3.75427687447834 -15.318730797996396" fill="#ffb210" stroke="none" /><path d="M 104.9986988182912 120.39639698878246 l 0.8040230173845697 3.280688284456485 a24.377775693004825,24.377775693004825 0 0,0 -0.4073036978103299,0.09612256365276742 l -0.7475871658343607 -3.2940069917554777" fill="#ff0000" stroke="none" /><path d="M 104.64783097203109 120.47920084513623 l 4.818371915945847 21.23063571094061 a42.770544334284395,42.770544334284395 0 0,0 -0.7173996750567831,0.1563539201604833 l -4.453209824269928 -21.310221089234812" fill="#feff18" stroke="none" /><path d="M 104.29559338865022 120.5559693870025 l 6.0839611255856605 29.113956404646977 a50.742848560777134,50.742848560777134 0 0,0 -0.8541797762097644,0.17085987794179058 l -5.583284863844938 -29.21410567925163" fill="#9eff22" stroke="none" /><path d="M 103.58742460773223 120.69131181640829 l 1.3414065430725057 7.736876475525145 a28.852300880081717,28.852300880081717 0 0,0 -0.48873392912984326,0.08042098205324119 l -1.2083951108895903 -7.758763456074057" fill="#ff4306" stroke="none" /><path d="M 102.875027216393 120.80226474461374 l 3.577573560913032 25.885540120490678 a47.13159428571622,47.13159428571622 0 0,0 -0.8024090593709309,0.10388791752459059 l -3.132686679651326 -25.943139634215665" fill="#c9ff1d" stroke="none" /><path d="M 102.51750503828377 120.84855314841334 l 3.528174550000764 29.218346539125804 a50.430592758823565,50.430592758823565 0 0,0 -0.8603557545941517,0.09640465683264926 l -3.026082893805813 -29.274606956465426" fill="#a2ff22" stroke="none" /><path d="M 102.15924093988457 120.88869738790638 l 2.844563179135308 27.51856837843902 a48.66519736562377,48.66519736562377 0 0,0 -0.8317124086893702,0.0787640298310148 l -2.3717512070609224 -27.563344163775216" fill="#b6ff1f" stroke="none" /><path d="M 101.08105385017728 120.97215588758144 l 1.5308443038578716 29.697970526499194 a50.73739964548798,50.73739964548798 0 0,0 -0.8702049679240654,0.03737034558418361 l -1.0208135753329768 -29.719873440509208" fill="#9eff22" stroke="none" /><line stroke="#e1ed5e" stroke-width="0.3" x1="101.45913802915013" x2="101.54496967792366" y1="184.9874750549273" y2="189.98673829345242" /><path d="M 101.47630435890484 185.9873277026323 a86.0,86.0 0 0,1 -42.54439059252881,-10.42667462771756" fill="none" id="id31" stroke="none" /><text fill="#e1ed5e" style="font-size:6.75px; font-family:Arial;" text-anchor="middle"><textPath startOffset="22.145653131862474" xlink:href="#id31">July</textPath></text><path d="M 100.36049292484886 120.99690560180557 l 0.5338763165936207 31.095618942468484 a52.100201628552576,52.100201628552576 0 0,0 -0.8943692414424691,0.007677084278527995 l -3.808676237724421e-15 -31.100201628552576" fill="#8fff24" stroke="none" /><path d="M 99.63950707515114 120.99690560180557 l -1.0784735245494577 62.815676059401476 a83.82493345752798,83.82493345752798 0 0,0 -1.4385423793809011,-0.03705174883172573 l 2.1566292180011026 -62.7879065932197" fill="#4dd4ff" stroke="none" /><path d="M 98.55909050195518 120.95050786540614 l -2.0495767854221727 29.800396639765488 a50.87079518336744,50.87079518336744 0 0,0 -0.8706924309209922,-0.06739710079707388 l 2.560838211118401 -29.760821771973358" fill="#9dff22" stroke="none" /><path d="M 97.48249496171623 120.84855314841334 l -1.8078928502969023 14.971946273341624 a36.0807046178215,36.0807046178215 0 0,0 -0.6142691477465919,-0.07952943927256768 l 2.064639819934288 -14.93870523786866" fill="#ffa80f" stroke="none" /><path d="M 97.12497278360702 120.80226474461374 l -4.085755603792141 29.562492232162555 a50.84349754687929,50.84349754687929 0 0,0 -0.8635523389556715,-0.1269124557684913 l 4.5926330483554985 -29.487998703095183" fill="#9dff22" stroke="none" /><path d="M 96.41257539226777 120.69131181640829 l -5.26287712196319 30.35487668431303 a51.80773302469259,51.80773302469259 0 0,0 -0.8749715922532519,-0.15944897094581711 l 5.7831834477675 -30.260059539435847" fill="#92ff23" stroke="none" /><path d="M 95.35216902796893 120.47920084513623 l -4.651478777818421 20.49527375050062 a42.01648164961145,42.01648164961145 0 0,0 -0.702011067801271,-0.16567270052406408 l 5.00262199935958 -20.412404906330327" fill="#fff617" stroke="none" /><path d="M 94.6519064749342 120.30758222061772 l -9.859884232896901 37.43958642586795 a59.716145841575766,59.716145841575766 0 0,0 -0.9890660089617292,-0.26957433892369476 l 10.501131642793325 -37.26481159280011" fill="#3dff2e" stroke="none" /><path d="M 93.95794788825049 120.11202640906438 l -8.563747819761305 28.505931283955046 a50.764507304607505,50.764507304607505 0 0,0 -0.832439695618951,-0.2578919455985628 l 9.05182814825189 -28.354722750549833" fill="#9eff22" stroke="none" /><path d="M 92.93061703081489 119.77432235084164 l -10.057122769263799 28.131562319976528 a50.87524923676399,50.87524923676399 0 0,0 -0.8198445835248307,-0.301058287101069 l 10.538556504442749 -27.954773183866738" fill="#9dff22" stroke="none" /><path d="M 92.59220618246901 119.65005319985036 l -10.392567146148066 27.567519066410934 a50.4613909950655,50.4613909950655 0 0,0 -0.8079294917000153,-0.3125244836918234 l 10.864268900341608 -27.38505469458107" fill="#a1ff22" stroke="none" /><path d="M 91.92203290615298 119.3841803445677 l -3.200918836598377 7.681039954248891 a29.32131336852892,29.32131336852892 0 0,0 -0.4629485268066916,-0.19760519747273617 l 3.3323024385755 -7.624960107116751" fill="#ff4906" stroke="none" /><path d="M 90.6110303473126 118.78422872680471 l -28.166908958062184 56.35268618041412 a84.0,84.0 0 0,0 -1.2842911131456707,-0.655768193308655 l 29.130127292921436 -55.86086003543262" fill="#4dd2ff" stroke="none" /><line stroke="#e1ed5e" stroke-width="0.3" x1="58.13341422392154" x2="55.67067388415222" y1="173.97424548756322" y2="178.32567169271397" /><path d="M 57.64086615596768 174.84453072859336 a86.0,86.0 0 0,1 -31.369924170532247,-30.572349798747897" fill="none" id="id32" stroke="none" /><text fill="#e1ed5e" style="font-size:6.75px; font-family:Arial;" text-anchor="middle"><textPath startOffset="22.145653131862474" xlink:href="#id32">August</textPath></text><path d="M 89.65649057296885 118.27599006163327 l -16.10525566549043 28.456443585129392 a53.697835426285685,53.697835426285685 0 0,0 -0.7983270799847169,-0.4609143545305477 l 16.591375213335546 -28.175782333322672" fill="#7dff26" stroke="none" /><path d="M 89.03521579738668 117.91015095944536 l -17.14321594881796 28.00215488969881 a53.83307069913641,53.83307069913641 0 0,0 -0.7840040036759705,-0.4892764829792047 l 17.621384081283644 -27.70374260987806" fill="#7bff26" stroke="none" /><path d="M 88.4268655584334 117.5232005979908 l -34.63429515351334 52.44073717533701 a83.8455671966882,83.8455671966882 0 0,0 -1.1942152559591133,-0.8035213203428119 l 35.52940669756946 -51.83846618093708" fill="#4dd3ff" stroke="none" /><path d="M 87.54013794807813 116.9041958592261 l -13.468545576157632 18.272668783131852 a43.70004723332259,43.70004723332259 0 0,0 -0.600037047818424,-0.4502789870930875 l 13.780235612886823 -18.03877076877475" fill="#f3ff19" stroke="none" /><path d="M 86.96720088162412 116.46651593811092 l -24.25196972366338 30.641571496503822 a60.077665478542094,60.077665478542094 0 0,0 -0.8031789667597605,-0.6469841215657625 l 24.7743994607784 -30.22073908114465" fill="#39ff2e" stroke="none" /><path d="M 86.40962598614128 116.0094264158162 l -40.56181698705289 47.78171841951025 a83.6765794568636,83.6765794568636 0 0,0 -1.0870803780516998,-0.9389941392519898 l 41.376076844867455 -47.07838014779354" fill="#4dd5ff" stroke="none" /><path d="M 85.60350026404147 115.28858382429668 l -22.417589657125575 23.80670335828901 a53.70026683109532,53.70026683109532 0 0,0 -0.6656979510718264,-0.6377235784299358 l 22.822960094062715 -23.418367649553492" fill="#7dff26" stroke="none" /><path d="M 85.08716467003676 114.78537596483092 l -23.411535655238513 23.211438262263623 a53.96772464000784,53.96772464000784 0 0,0 -0.6466186586326025,-0.6634877077517554 l 23.806541115021922 -22.806127862444132" fill="#7aff26" stroke="none" /><path d="M 84.58840730492382 114.26474011684316 l -41.48078509772988 38.39399541429498 a77.52215863001831,77.52215863001831 0 0,0 -0.895573996159188,-0.9843927032515839 l 42.13375679473095 -37.67626513548572" fill="#45ffec" stroke="none" /><path d="M 83.8745106332314 113.45245675266167 l -23.6359954601003 19.717988056124575 a51.78082738282637,51.78082738282637 0 0,0 -0.5635558476571627,-0.68744650124267 l 23.970998126996093 -19.30933927318341" fill="#92ff23" stroke="none" /><path d="M 83.4222238831116 112.89097897827486 l -10.93286872659349 8.501464848664416 a34.849278795879684,34.849278795879684 0 0,0 -0.36317598833843623,-0.47540902684085307 l 11.07719669228622 -8.312534908582691" fill="#ff970e" stroke="none" /><path d="M 82.98947788004972 112.3143062007846 l -39.59583604868528 28.664331755444135 a69.88224777340469,69.88224777340469 0 0,0 -0.6951117352691674,-0.9777617068835883 l 40.08206288248441 -27.98039282185104" fill="#3bff99" stroke="none" /><line stroke="#e1ed5e" stroke-width="0.3" x1="26.387840678322732" x2="22.057713659400548" y1="142.50000000000003" y2="145.00000000000006" /><path d="M 25.521815274538298 143.00000000000003 a86.0,86.0 0 0,1 -11.493303480769221,-40.785679425670985" fill="none" id="id33" stroke="none" /><text fill="#e1ed5e" style="font-size:6.75px; font-family:Arial;" text-anchor="middle"><textPath startOffset="21.40746469413373" xlink:href="#id33">September</textPath></text><line stroke="#e1ed5e" stroke-width="0.3" x1="15.003131293944662" x2="10.003315487706104" y1="100.72959589197737" y2="100.7725132973878" /><path d="M 14.003168132696942 100.73817937305945 a86.0,86.0 0 0,1 10.791469493833604,-42.45332614584628" fill="none" id="id34" stroke="none" /><text fill="#e1ed5e" style="font-size:6.75px; font-family:Arial;" text-anchor="middle"><textPath startOffset="22.145653131862435" xlink:href="#id34">October</textPath></text><line stroke="#e1ed5e" stroke-width="0.3" x1="26.387840678322718" x2="22.05771365940052" y1="57.49999999999999" y2="54.99999999999999" /><path d="M 25.521815274538284 56.99999999999999 a86.0,86.0 0 0,1 29.574782752854787,-30.34633250058573" fill="none" id="id35" stroke="none" /><text fill="#e1ed5e" style="font-size:6.75px; font-family:Arial;" text-anchor="middle"><textPath startOffset="21.40746469413373" xlink:href="#id35">November</textPath></text><line stroke="#e1ed5e" stroke-width="0.3" x1="56.869717070023135" x2="54.33264160355391" y1="26.7553504044142" y2="22.446841604673864" /><path d="M 56.362301976729285 25.89364864446614 a86.0,86.0 0 0,1 42.16139366436587,-11.88097634709845" fill="none" id="id36" stroke="none" /><text fill="#e1ed5e" style="font-size:6.75px; font-family:Arial;" text-anchor="middle"><textPath startOffset="22.145653131862474" xlink:href="#id36">December</textPath></text></svg>