<?xml version="1.0" encoding="utf-8" ?>
<svg baseProfile="full" height="200mm" version="1.1" viewBox="0,0,200,200" width="200mm" xmlns="http://www.w3.org/2000/svg" xmlns:ev="http://www.w3.org/2001/xml-events" xmlns:xlink="http://www.w3.org/1999/xlink"><defs /><rect fill="#1a1a1a" height="200" width="200" x="0" y="0" /><text alignment-baseline="middle" fill="#e1ed5e" style="dominant-baseline: central; font-size:9.0px; font-family:Arial;" text-anchor="middle" x="100.0" y="100.0">2023</text><line stroke="#e1ed5e" stroke-width="0.3" x1="100.0" x2="100.0" y1="15.0" y2="10.0" /><path d="M 100.0 14.0 a86.0,86.0 0 0,1 42.46469731375804,11.215312516191453" fill="none" id="id13" stroke="none" /><text fill="#e1ed5e" style="font-size:6.75px; font-family:Arial;" text-anchor="middle"><textPath startOffset="22.20632615414155" xlink:href="#id13">January</textPath></text><path d="M 102.88285421437855 79.19881850522331 l 0.8214751611157516 -5.927338897191909 a26.983992633893724,26.983992633893724 0 0,0 0.4595387046554788,0.06772405957933252 l -0.9233828461998862 5.912320353451608" fill="#ff2c04" stroke="none" /><path d="M 104.66035177308747 79.52364482259891 l 1.6655458905578386 -7.317968874424486 a28.505112361623887,28.505112361623887 0 0,0 0.4774963490138593,0.11300795852328792 l -1.7912659265342215 7.288215003760329" fill="#ff4206" stroke="none" /><path d="M 105.01212808612495 79.60689891045804 l 3.435581239420711 -13.97852455343133 a35.39452559633495,35.39452559633495 0 0,0 0.5903994145526903,0.1505059565608108 l -3.6756895426584264 13.91731560070165" fill="#ffa30f" stroke="none" /><path d="M 106.0581310904928 79.89281104454417 l 2.925529545064073 -9.709954188625371 a31.14110119583895,31.14110119583895 0 0,0 0.5119220782237786,0.15905668161311728 l -3.09223699599857 9.658157372129732" fill="#ff6809" stroke="none" /><path d="M 109.41281617654863 81.2277094730956 l 4.442037060988291 -8.85890138255352 a30.91018803842804,30.91018803842804 0 0,0 0.4735728013344627,0.24258238251090844 l -4.593870349911509 8.781126474730112" fill="#ff6509" stroke="none" /><path d="M 110.36928655335952 81.73862282372117 l 5.05320686483563 -8.899215585726848 a31.23381344661244,31.23381344661244 0 0,0 0.4652399477937494,0.269497006922902 l -5.205643545094708 8.810914421413898" fill="#ff6909" stroke="none" /><line stroke="#e1ed5e" stroke-width="0.3" x1="143.23703022742887" x2="145.7803849466894" y1="26.81831364943548" y2="22.513508569990506" /><path d="M 143.74570117128098 25.957352633546492 a86.0,86.0 0 0,1 28.547481713284135,27.462654790039103" fill="none" id="id14" stroke="none" /><text fill="#e1ed5e" style="font-size:6.75px; font-family:Arial;" text-anchor="middle"><textPath startOffset="19.985693538727396" xlink:href="#id14">February</textPath></text><path d="M 110.99172775467656 82.1063720568725 l 3.2104489524468867 -5.226346609708078 a27.133651551977373,27.133651551977373 0 0,0 0.3958681505585944,0.2478925995627779 l -3.299936255377744 5.170309668822356" fill="#ff2e04" stroke="none" /><path d="M 111.90073688211348 82.69761687909136 l 10.052396376687872 -14.615096116787587 a38.73842460358267,38.73842460358267 0 0,0 0.5461543441289228,0.3826160204871203 l -10.302481860400446 14.43989525353653" fill="#ffcf13" stroke="none" /><path d="M 112.77801427241765 83.33499621200491 l 7.249515617003699 -9.454771503838518 a32.914200807061185,32.914200807061185 0 0,0 0.4466417001408401,0.3486109314731813 l -7.41118987230397 9.328582183142112" fill="#ff810b" stroke="none" /><path d="M 113.34407831869373 83.78471172551755 l 7.975554132972538 -9.69163297203651 a33.5513829274961,33.5513829274961 0 0,0 0.44278632871209944,0.3708208164432673 l -8.141197998643754 9.552910998199422" fill="#ff8a0c" stroke="none" /><path d="M 113.6212207817346 84.01681056812373 l 5.964143089911171 -6.998346942051894 a30.194991175540206,30.194991175540206 0 0,0 0.3926875876117268,0.34053480636914446 l -6.083724476169662 6.894647142263079" fill="#ff5a08" stroke="none" /><path d="M 114.16331599549186 84.49514656593476 l 4.115233794741558 -4.5050252959610075 a27.101672074327787,27.101672074327787 0 0,0 0.34172900482187424,0.31759986700957393 l -4.192170683358279 4.433520842876793" fill="#ff2e04" stroke="none" /><path d="M 114.42810811169701 84.74124197986012 l 12.797571725361841 -13.534348972916895 a39.62676687421833,39.62676687421833 0 0,0 0.4915922272475349,0.4729113331241174 l -13.028647196221794 13.312054553030476" fill="#ffdb14" stroke="none" /><path d="M 114.94478906791727 85.2469230424477 l 8.37214020874915 -8.264742194605455 a32.76429748086328,32.76429748086328 0 0,0 0.39275926431407077,0.4047729463896727 l -8.51316373676633 8.119405052665668" fill="#ff7f0b" stroke="none" /><path d="M 115.19652480421416 85.50635884689758 l 9.07610890188495 -8.656312359910064 a33.54222852890215,33.54222852890215 0 0,0 0.39489214220377233,0.42124340424461476 l -9.223768366059186 8.498799538787393" fill="#ff890c" stroke="none" /><path d="M 115.4437574822437 85.77008943001954 l 9.178012639279919 -8.456640116063873 a33.48001114019546,33.48001114019546 0 0,0 0.38686369597211423,0.4271845555809438 l -9.322219975868068 8.29740277321338" fill="#ff890c" stroke="none" /><path d="M 115.9244219780498 86.31012108654704 l 38.111712372092086 -32.763809466834005 a71.25902735541227,71.25902735541227 0 0,0 0.791617846440422,0.9370258410634178 l -38.67004083201963 32.102924676141484" fill="#3dffaa" stroke="none" /><path d="M 116.60985879189232 87.15038557335679 l 8.035266082353472 -6.216191977750282 a31.159062147583658,31.159062147583658 0 0,0 0.32453507484422145,0.4270501169211235 l -8.141077097421807 6.076957084948125" fill="#ff6809" stroke="none" /><path d="M 116.82858285166822 87.43820079747576 l 14.221714088684411 -10.615885976403185 a38.74694865841107,38.74694865841107 0 0,0 0.3943653133008301,0.537913844145679 l -14.402342014498869 10.369509688586012" fill="#ffcf13" stroke="none" /><path d="M 117.2510076193507 88.02491185347247 l 6.282084567201104 -4.360818689326216 a28.647308425233227,28.647308425233227 0 0,0 0.27770910094378337,0.40750383813180996 l -6.356218133813621 4.252036827923999" fill="#ff4406" stroke="none" /><path d="M 117.45458315368197 88.32363383020206 l 14.747488425434517 -9.865436110624392 a38.74303368962413,38.74303368962413 0 0,0 0.3660356304982236,0.5574973775099438 l -14.915120691290666 9.610120669136775" fill="#ffcf13" stroke="none" /><line stroke="#e1ed5e" stroke-width="0.3" x1="172.23445277983987" x2="176.4835382374775" y1="55.19839476539836" y2="52.563006222186495" /><path d="M 173.08426987136738 54.67131705675599 a86.0,86.0 0 0,1 12.851231095245387,41.99856678651699" fill="none" id="id15" stroke="none" /><text fill="#e1ed5e" style="font-size:6.75px; font-family:Arial;" text-anchor="middle"><textPath startOffset="22.20632615414155" xlink:href="#id15">March</textPath></text><path d="M 117.84615892207809 88.93136811851018 l 9.43560044902092 -5.8521942120456725 a32.10309564621798,32.10309564621798 0 0,0 0.2872221189538412,0.4721176435889308 l -9.534938366260986 5.68890879524966" fill="#ff750a" stroke="none" /><path d="M 118.3937258080291 89.86733742301442 l 25.728073392787007 -14.172978827989013 a50.37357808240698,50.37357808240698 0 0,0 0.4118445414350254,0.763085386933377 l -25.968226033440498 13.728012457723178" fill="#a0ff22" stroke="none" /><path d="M 119.196687751892 91.48605970444005 l 16.543546157055474 -7.337243074349028 a39.09762568357263,39.09762568357263 0 0,0 0.2675567635153713,0.6175578992320881 l -16.667393630413525 7.051386030530337" fill="#ffd413" stroke="none" /><path d="M 119.47837535516314 92.15188598940014 l 9.88489481081306 -3.982764478223498 a31.657089579704106,31.657089579704106 0 0,0 0.19929863973379486,0.5071932995807019 l -9.951987000428556 3.812022173747012" fill="#ff6f0a" stroke="none" /><path d="M 119.61058180528143 92.48833698450437 l 11.334695778651712 -4.341656760507861 a33.13776387233862,33.13776387233862 0 0,0 0.19945053813239122,0.5344282816260161 l -11.407750905285727 4.145905341852511" fill="#ff840c" stroke="none" /><path d="M 119.7369772167798 92.82701384747503 l 17.23990305924672 -6.265477461752151 a39.34313128437859,39.34313128437859 0 0,0 0.22584253655366857,0.6384872631202638 l -17.3451986766102 5.967792572205273" fill="#ffd714" stroke="none" /><path d="M 119.85752413597 93.16781622104841 l 13.958046836168421 -4.802408423473787 a35.76110423195105,35.76110423195105 0 0,0 0.19526023756882446,0.5838032571386421 l -14.038644367509015 4.561432063412831" fill="#ffa80f" stroke="none" /><path d="M 120.08093135843002 93.85539295169968 l 28.381566662542934 -8.684536162375545 a50.68054067189439,50.68054067189439 0 0,0 0.2480790815362509,0.8363993362226606 l -28.526851641190888 8.194707439406356" fill="#9dff22" stroke="none" /><path d="M 120.28053869075195 94.5502522615342 l 15.577814018263407 -4.18604051947518 a37.13044403661263,37.13044403661263 0 0,0 0.1605514532289939,0.618670242350911 l -15.647561803362704 3.917273851575419" fill="#ffba11" stroke="none" /><path d="M 120.37134235888165 94.90015583598534 l 19.27316975564001 -4.824923196949318 a40.867937897179374,40.867937897179374 0 0,0 0.16496479307898243,0.6838855680330984 l -19.353367348979813 4.492452397256813" fill="#ffeb16" stroke="none" /><path d="M 120.45610955862082 95.25157060432595 l 11.614906297367549 -2.6961413328555808 a32.92372535675661,32.92372535675661 0 0,0 0.12339438030381372,0.5531528116954827 l -11.6595950646734 2.495810351610134" fill="#ff810b" stroke="none" /><path d="M 120.53481517161879 95.60439243477599 l 29.188524589815138 -6.2479890095161 a50.8497459686557,50.8497459686557 0 0,0 0.17584496927558688,0.8574825202574949 l -29.29174885500572 5.744630833095194" fill="#9bff22" stroke="none" /><path d="M 120.67395015179393 96.31383870115 l 17.596555622409806 -3.1374624516427914 a38.874071735562396,38.874071735562396 0 0,0 0.11178727748761552,0.659774839646859 l -17.647954761417644 2.8341018236800943" fill="#ffd113" stroke="none" /><path d="M 120.73433829027371 96.67025291283417 l 17.696621551630564 -2.841917269762075 a38.92336207606729,38.92336207606729 0 0,0 0.10054109524547179,0.6624401978414676 l -17.742918540315333 2.536877959528525" fill="#ffd213" stroke="none" /><path d="M 120.78858239683441 97.02765380044208 l 32.05957516182523 -4.5838698653258385 a53.38561752536091,53.38561752536091 0 0,0 0.1222378134946405,0.9108136931851436 l -32.1337289743777 4.031337830076031" fill="#7eff26" stroke="none" /><path d="M 120.87857604477298 97.74499172005257 l 28.946803528035833 -3.126424019231624 a50.11515003634253,50.11515003634253 0 0,0 0.0852503431506913,0.8584593214519491 l -28.996330996868753 2.6276891670752396" fill="#a3ff21" stroke="none" /><path d="M 120.94382443527127 98.46500227214037 l 17.56894934451244 -1.287649130561397 a38.61607281301595,38.61607281301595 0 0,0 0.04288114265380903,0.6633522972114427 l -17.58851107817066 0.985037769096919" fill="#ffce13" stroke="none" /><path d="M 120.96714384426684 98.82574320788733 l 17.612102487871297 -0.986358996884654 a38.63970119117718,38.63970119117718 0 0,0 0.03147551744366237,0.6643984258828631 l -17.626471613548457 0.6830494643787911" fill="#ffce13" stroke="none" /><line stroke="#e1ed5e" stroke-width="0.3" x1="184.98032266829074" x2="189.97916517819016" y1="98.17113171792111" y2="98.06355123074" /><path d="M 185.9800911702706 98.14961562048488 a86.0,86.0 0 0,1 -9.607161424134198,41.387399972396054" fill="none" id="id16" stroke="none" /><text fill="#e1ed5e" style="font-size:6.75px; font-family:Arial;" text-anchor="middle"><textPath startOffset="21.466115282336823" xlink:href="#id16">April</textPath></text><path d="M 120.99513854157772 99.54816195383933 l 52.41094670377124 -1.1279401519149634 a73.4230825435881,73.4230825435881 0 0,0 0.01631738112506234,1.2637991505209938 l -52.422597092014016 0.22560474333350683" fill="#3fffc2" stroke="none" /><path d="M 120.99824983174949 100.27111621757518 l 17.91691525677797 0.23133196023261418 a38.91840860105574,38.91840860105574 0 0,0 -0.014414521071346583,0.6697861534125301 l -17.910278673021615 -0.5397079294352591" fill="#ffd213" stroke="none" /><path d="M 120.9904718944345 100.63252640178507 l 6.263046188666232 0.1887304911416084 a27.265889143581553,27.265889143581553 0 0,0 -0.018174490186936936,0.4690028351931167 l -6.258869565628092 -0.29651057334873127" fill="#ff3004" stroke="none" /><path d="M 120.9764740272857 100.99374915477107 l 29.618246322771654 1.4031484610220772 a50.651464396215665,50.651464396215665 0 0,0 -0.04875480611132886,0.8705498147439777 l -29.5897051657728 -1.9127699921014782" fill="#9dff22" stroke="none" /><path d="M 120.95626037817324 101.35467743843564 l 17.722906878767176 1.1456634752051393 a38.75989788911727,38.75989788911727 0 0,0 -0.04876999466901676,0.6654278293175668 l -17.700560325433823 -1.4505644410194765" fill="#ffcf13" stroke="none" /><path d="M 120.89721153311464 102.0752229133903 l 17.864504783797607 1.7740562947817307 a38.95237607971107,38.95237607971107 0 0,0 -0.0720019804990411,0.6666489159226204 l -17.831320501797514 -2.0813015325891424" fill="#ffd213" stroke="none" /><path d="M 120.8583938346157 102.4346265915055 l 18.527485411769746 2.1625590644648063 a39.65326720418275,39.65326720418275 0 0,0 -0.08496843702950847,0.6772820443161076 l -18.487515465493388 -2.4811588630683086" fill="#ffdb14" stroke="none" /><path d="M 120.81339534386255 102.79330883721812 l 18.578097968967626 2.4933156929978635 a39.744661834493265,39.744661834493265 0 0,0 -0.09683682570410067,0.6772765334324202 l -18.532427092246923 -2.812737698410693" fill="#ffdc14" stroke="none" /><path d="M 120.76222939487914 103.15116336523771 l 26.89862212263763 4.082507277813531 a48.20666715659694,48.20666715659694 0 0,0 -0.13157721854787777,0.819331465497898 l -26.824363149728462 -4.544917973004634" fill="#b9ff1f" stroke="none" /><path d="M 120.41448212921028 104.9243191809786 l 8.835503843162623 2.131273317300602 a30.088919304052546,30.088919304052546 0 0,0 -0.1257841276183212,0.5024450639309289 l -8.79750840124924 -2.283046220628927" fill="#ff5908" stroke="none" /><path d="M 120.32669344350535 105.2749913415812 l 15.867342016622995 4.117742611911987 a37.39293588380206,37.39293588380206 0 0,0 -0.16704301173752656,0.6216291882009854 l -15.794110928543692 -4.3902627332885205" fill="#ffbd11" stroke="none" /><path d="M 120.23288151984713 105.62410040840565 l 10.481858017803264 2.9136246313185983 a31.879271850524418,31.879271850524418 0 0,0 -0.15151362197104953,0.5274387948010438 l -10.430151758946115 -3.0936209016242238" fill="#ff720a" stroke="none" /><path d="M 120.13307415673323 105.97154293290107 l 16.971934292139746 5.033937365496361 a38.70274213268807,38.70274213268807 0 0,0 -0.19493875943987135,0.6370711449306352 l -16.88276876019374 -5.325335482979053" fill="#ffcf13" stroke="none" /><path d="M 120.02730092923936 106.31721596034902 l 29.94865962946568 9.44671232887429 a52.403225748736276,52.403225748736276 0 0,0 -0.27875458989898927,0.8579184122441645 l -29.781612788550447 -9.960829641096248" fill="#89ff24" stroke="none" /><path d="M 119.9155931802556 106.66101706037122 l 19.46924751505533 6.511731218678627 a41.5293507512245,41.5293507512245 0 0,0 -0.23258249682469656,0.6759936052260668 l -19.354274187287402 -6.845897526993995" fill="#fff316" stroke="none" /><path d="M 119.79798401119884 107.00284435728193 l 16.86718927468215 5.966178231510836 a38.89126481605217,38.89126481605217 0 0,0 -0.22867274588587935,0.629209185641508 l -16.761992267791044 -6.255635214158475" fill="#ffd113" stroke="none" /><path d="M 119.67450827220406 107.3425965602758 l 16.468529896041566 6.146114011820608 a38.57803158442698,38.57803158442698 0 0,0 -0.23754096028041813,0.62014449051758 l -16.360294656167643 -6.428682069171333" fill="#ffcd13" stroke="none" /><path d="M 119.41010516605496 108.01547362559984 l 57.43890672602108 23.71960574180061 a83.14376640039619,83.14376640039619 0 0,0 -0.5576532341653179,1.318127517464457 l -57.02210251066346 -24.704807784931234" fill="#4cdaff" stroke="none" /><path d="M 119.12269723197855 108.67885076344098 l 9.217672534242016 4.183447729181988 a31.122584741621953,31.122584741621953 0 0,0 -0.22560225653467714,0.4859271900567571 l -9.144295660867508 -4.341494986517575" fill="#ff6809" stroke="none" /><path d="M 118.97047184881838 109.00673069616215 l 16.09723169508921 7.642584327201382 a38.81937045587663,38.81937045587663 0 0,0 -0.2917862479393857,0.6011660949869705 l -15.963292190535112 -7.9185393781536275" fill="#ffd013" stroke="none" /><line stroke="#e1ed5e" stroke-width="0.3" x1="174.80103733775053" x2="179.2010983576182" y1="140.37084112569926" y2="142.7455964860345" /><path d="M 175.68104954172406 140.8457921977663 a86.0,86.0 0 0,1 -30.038265399797805,32.042727171017184" fill="none" id="id17" stroke="none" /><text fill="#e1ed5e" style="font-size:6.75px; font-family:Arial;" text-anchor="middle"><textPath startOffset="22.206326154141568" xlink:href="#id17">May</textPath></text><path d="M 118.30583269289576 110.29060199501025 l 17.850065508155833 10.03439301619853 a41.47715512098759,41.47715512098759 0 0,0 -0.35521826446608223,0.6193529855332316 l -17.674695247537368 -10.340165847590077" fill="#fff216" stroke="none" /><path d="M 118.12598468904814 110.60418214915192 l 19.138774593689728 11.196691125181832 a43.173375591027835,43.173375591027835 0 0,0 -0.380787372386748,0.6382215389689269 l -18.943206345604754 -11.524474758036863" fill="#f6ff19" stroke="none" /><path d="M 117.75023020441432 111.22182372390056 l 18.953329385251404 11.982431714571298 a43.42336648632846,43.42336648632846 0 0,0 -0.40486114161043313,0.6283534825661854 l -18.74426338026392 -12.306906797058938" fill="#f3ff19" stroke="none" /><path d="M 116.498646956653 112.99209946851258 l 6.852078839923661 5.39576912508455 a29.7215428038705,29.7215428038705 0 0,0 -0.3199765930500035,0.39921999848021505 l -6.758184334818804 -5.512916957143016" fill="#ff5407" stroke="none" /><path d="M 116.0416608686014 113.55231037782055 l 35.00477427867559 29.572721279671434 a66.8244483456829,66.8244483456829 0 0,0 -0.7498896093552742,0.8722910298785347 l -34.49054215974954 -30.1708894087115" fill="#37ff77" stroke="none" /><path d="M 115.07121518719521 114.62390073753431 l 10.445616543281647 10.135590101658245 a35.55476182141473,35.55476182141473 0 0,0 -0.42997452802218056,0.4355619268005846 l -10.26960139020393 -10.313892522439495" fill="#ffa50f" stroke="none" /><path d="M 114.55890576462653 115.13401014063108 l 20.127786528214067 20.922872250919013 a50.03264324434881,50.03264324434881 0 0,0 -0.6257991662380608,0.591732172092591 l -19.7646515275852 -21.266239059757527" fill="#a4ff21" stroke="none" /><path d="M 113.48314897796784 116.09983520530334 l 8.984403757158262 10.728014660708528 a34.99320583111735,34.99320583111735 0 0,0 -0.4651261450213786,0.38276715172586206 l -8.798407483592191 -10.881076931291568" fill="#ff9d0e" stroke="none" /><path d="M 112.92097659922987 116.55440617244103 l 13.160013942075421 16.86066175873178 a42.38849882291835,42.38849882291835 0 0,0 -0.5790496454563158,0.44399057619232435 l -12.867835568125612 -17.084691676751476" fill="#fffe18" stroke="none" /><path d="M 111.45004920935366 117.60387380957326 l 9.411267511319098 14.469349662013371 a38.260765794460475,38.260765794460475 0 0,0 -0.5551786478663067,0.35434128043686297 l -9.16080706140586 -14.629205371274043" fill="#ffc912" stroke="none" /><line stroke="#e1ed5e" stroke-width="0.3" x1="143.8653032363475" x2="146.44561519142675" y1="172.8068346515853" y2="177.08958963109032" /><path d="M 144.38136562736335 173.6633856474863 a86.0,86.0 0 0,1 -40.68145358897372,12.25698825130547" fill="none" id="id18" stroke="none" /><text fill="#e1ed5e" style="font-size:6.75px; font-family:Arial;" text-anchor="middle"><textPath startOffset="21.466115282336833" xlink:href="#id18">June</textPath></text><path d="M 110.21172684928248 118.3499491758327 l 14.436176871152677 25.94106910503546 a50.6874092666812,50.6874092666812 0 0,0 -0.7660489250820133,0.4177109529370294 l -13.987505134202015 -26.185720709732262" fill="#9dff22" stroke="none" /><path d="M 109.57404056367764 118.69057910512821 l 10.71695199476477 20.921787169352644 a44.506897677443135,44.506897677443135 0 0,0 -0.6848680983632843,0.3434070821478514 l -10.355229988718724 -21.103162092409796" fill="#e6ff1a" stroke="none" /><path d="M 108.2653958097858 119.30500536409082 l 3.5674445480111583 8.332273217202012 a30.063853351044273,30.063853351044273 0 0,0 -0.47748348238362665,0.19958813436141296 l -3.4234896061300706 -8.392446394583397" fill="#ff5908" stroke="none" /><path d="M 107.2578585660854 119.70592522655815 l 4.248033135004207 11.533901157774263 a33.29132464111986,33.29132464111986 0 0,0 -0.5394469798142096,0.19342649435714288 l -4.048866594560263 -11.605315193171368" fill="#ff860c" stroke="none" /><path d="M 106.91757812671514 119.82793768551818 l 5.892173137555186 16.888806987598965 a38.88713240704889,38.88713240704889 0 0,0 -0.6339163058195458,0.21505882885008862 l -5.600587098798412 -16.987728803347178" fill="#ffd113" stroke="none" /><path d="M 105.53697534728816 120.25689768951611 l 4.699888706118644 17.194435355141366 a38.82519455804163,38.82519455804163 0 0,0 -0.6461798360827901,0.17066196774660272 l -4.403218427224357 -17.272788672191552" fill="#ffd013" stroke="none" /><line stroke="#e1ed5e" stroke-width="0.3" x1="102.19456741930631" x2="102.32365962044197" y1="184.97166512339345" y2="189.96999836594603" /><path d="M 102.22038585953345 185.97133177190398 a86.0,86.0 0 0,1 -42.740103519485714,-10.115201625700543" fill="none" id="id19" stroke="none" /><text fill="#e1ed5e" style="font-size:6.75px; font-family:Arial;" text-anchor="middle"><textPath startOffset="22.20632615414155" xlink:href="#id19">July</textPath></text><path d="M 95.16358092515715 120.4354850818985 l -5.809595207242359 24.547479106393993 a46.225584769254866,46.225584769254866 0 0,0 -0.772730461622438,-0.18991834702806915 l 6.231278953608007 -24.443839501051894" fill="#d1ff1c" stroke="none" /><path d="M 93.08242187328487 119.8279376855182 l -5.86735981522561 16.817684262288324 a38.8118054993688,38.8118054993688 0 0,0 -0.6288999156228003,-0.22550113455508936 l 6.155979291478137 -16.71419558669328" fill="#ffd013" stroke="none" /><line stroke="#e1ed5e" stroke-width="0.3" x1="58.666819895761336" x2="56.23545636021788" y1="174.27360380694188" y2="178.64263932499728" /><path d="M 58.180547188652646 175.14741091055294 a86.0,86.0 0 0,1 -31.652253787137756,-30.449443065178592" fill="none" id="id20" stroke="none" /><text fill="#e1ed5e" style="font-size:6.75px; font-family:Arial;" text-anchor="middle"><textPath startOffset="22.20632615414155" xlink:href="#id20">August</textPath></text><path d="M 89.4739219176387 118.17145234162733 l -4.464425018889315 7.707057256154926 a29.906729046004216,29.906729046004216 0 0,0 -0.44323499769358166,-0.26187104928586885 l 4.59642788761128 -7.629067634575308" fill="#ff5608" stroke="none" /><path d="M 89.1626897886671 117.98757091392108 l -4.61158606809548 7.654226907593114 a29.93610181322789,29.93610181322789 0 0,0 -0.4390924776865866,-0.26972646291726754 l 4.742657745714376 -7.573711977847468" fill="#ff5708" stroke="none" /><path d="M 88.8546689885994 117.79835938074946 l -5.056138996275698 8.074320883128966 a30.526762266026815,30.526762266026815 0 0,0 -0.44295523747836507,-0.2827149902603889 l 5.194376035800987 -7.986091464044773" fill="#ff5f08" stroke="none" /><path d="M 88.54995079064634 117.60387380957326 l -6.677637945637103 10.266531924158352 a33.2471435968872,33.2471435968872 0 0,0 -0.4770574076365612,-0.3161676366361655 l 6.853370052013626 -10.15006626643087" fill="#ff850c" stroke="none" /><path d="M 87.65650970185807 116.9893568818739 l -5.39554523723914 7.426330915620303 a30.179449835114948,30.179449835114948 0 0,0 -0.4176477003134945,-0.3089657841455715 l 5.522577907971199 -7.332355182734965" fill="#ff5a08" stroke="none" /><path d="M 87.07902340077011 116.55440617244103 l -7.154186225551835 9.165971604509119 a32.62744236728538,32.62744236728538 0 0,0 -0.43975967113601677,-0.3493716791026018 l 7.31090338940521 -9.041466011401386" fill="#ff7d0b" stroke="none" /><path d="M 85.97065885151581 115.62618273729859 l -5.957401751391334 6.635482551994377 a29.917413544593654,29.917413544593654 0 0,0 -0.3802367216113558,-0.34733722986631804 l 6.070738022469544 -6.5319525555414835" fill="#ff5608" stroke="none" /><path d="M 85.70375840098266 115.38237550388516 l -12.11712475432843 13.03770377043109 a38.799057051357295,38.799057051357295 0 0,0 -0.48529152127704067,-0.45887342373693857 l 12.339752109996287 -12.82719570994822" fill="#ffd013" stroke="none" /><path d="M 85.44109423537348 115.13401014063109 l -10.298618585673967 10.705433542180764 a35.85489320389878,35.85489320389878 0 0,0 -0.4411006365137173,-0.4317098122060983 l 10.481369174563477 -10.526573627052096" fill="#ffa90f" stroke="none" /><path d="M 83.95833913139862 113.55231037782056 l -11.298300746496249 9.545026522670076 a35.79050814126252,35.79050814126252 0 0,0 -0.3935319759838318,-0.47403461627002164 l 11.460928722373618 -9.349130649286293" fill="#ffa80f" stroke="none" /><path d="M 83.50135304334701 112.99209946851258 l -7.008561380874012 5.518993577517171 a29.920718734393233,29.920718734393233 0 0,0 -0.3151551908563527,-0.40738056752909013 l 7.102523388948432 -5.397535015874828" fill="#ff5708" stroke="none" /><path d="M 83.28015986056508 112.70617746262583 l -14.223398745159503 10.809016537869496 a38.86448740881588,38.86448740881588 0 0,0 -0.4001908346584363,-0.5361210212765062 l 14.407350846513024 -10.562582637083683" fill="#ffd113" stroke="none" /><path d="M 82.44556493220864 111.52570212397912 l -7.459118660937622 4.897427884257038 a29.92318615066649,29.92318615066649 0 0,0 -0.27899115812208763,-0.43300047298653377 l 7.542314682436755 -4.768305811349055" fill="#ff5708" stroke="none" /><path d="M 82.24976979558568 111.22182372390057 l -7.588456936075377 4.797477277329668 a29.977776277963546,29.977776277963546 0 0,0 -0.27199173357500894,-0.4385372785762741 l 7.669913309318342 -4.66614366738813" fill="#ff5708" stroke="none" /><line stroke="#e1ed5e" stroke-width="0.3" x1="26.63291911575756" x2="22.317208475507996" y1="142.92168965132927" y2="145.44649492493687" /><path d="M 25.769776987707644 143.4266507060508 a86.0,86.0 0 0,1 -11.730757126820373,-40.83630448921669" fill="none" id="id21" stroke="none" /><text fill="#e1ed5e" style="font-size:6.75px; font-family:Arial;" text-anchor="middle"><textPath startOffset="21.46611528233685" xlink:href="#id21">September</textPath></text><path d="M 81.87401531095188 110.60418214915194 l -7.755781929552564 4.53733828539361 a29.98552124558574,29.98552124558574 0 0,0 -0.2568017209690038,-0.4477554463909423 l 7.832735646673945 -4.403162993144361" fill="#ff5708" stroke="none" /><path d="M 80.73074385275274 108.34839909993369 l -5.468127074910794 2.369064316840779 a26.959268364883457,26.959268364883457 0 0,0 -0.18081840461748208,-0.427401295622483 l 5.508096460720583 -2.2745884955521367" fill="#ff2c04" stroke="none" /><path d="M 80.20201598880116 107.00284435728193 l -8.450399285302861 2.9890331721850414 a29.96345733439222,29.96345733439222 0 0,0 -0.16780844376980458,-0.48772988698640357 l 8.500598560015895 -2.843130582109341" fill="#ff5708" stroke="none" /><path d="M 79.58551787078972 104.9243191809786 l -8.683944857539661 2.094714720553985 a29.933013380113962,29.933013380113962 0 0,0 -0.11650988446112549,-0.5019215329115534 l 8.71871530793134 -1.9449245302938576" fill="#ff5708" stroke="none" /><path d="M 79.35854240842038 103.8639653848113 l -8.811530076275984 1.6494691351565787 a29.964586477520893,29.964586477520893 0 0,0 -0.09054093408732086,-0.5078016413991804 l 8.838617452702493 -1.4975487430241847" fill="#ff5708" stroke="none" /><path d="M 79.1416061653843 102.43462659150553 l -17.705709154780397 2.0666399662160524 a38.82591196611371,38.82591196611371 0 0,0 -0.07176821641177637,-0.6644845507999485 l 17.738659672693228 -1.7615590935313217" fill="#ffd013" stroke="none" /><line stroke="#e1ed5e" stroke-width="0.3" x1="15.007084014347285" x2="10.007500721073583" y1="101.09737516637583" y2="101.16192664675087" /><path d="M 14.007167355692545 101.11028546245083 a86.0,86.0 0 0,1 10.666146001902534,-42.60595125391555" fill="none" id="id22" stroke="none" /><text fill="#e1ed5e" style="font-size:6.75px; font-family:Arial;" text-anchor="middle"><textPath startOffset="22.20632615414155" xlink:href="#id22">October</textPath></text><path d="M 79.08570108090925 98.10471618934814 l -8.931622935967429 -0.8093965003978143 a29.968222285668194,29.968222285668194 0 0,0 0.05097862086847422,-0.5133477551163645 l 8.916367189416725 0.9630197862186092" fill="#ff5708" stroke="none" /><path d="M 79.12142395522702 97.74499172005258 l -17.730034875359213 -1.91494742562681 a38.833147796291286,38.833147796291286 0 0,0 0.07749921504295366,-0.6639659465149753 l 17.694445307312673 2.219857110466647" fill="#ffd013" stroke="none" /><path d="M 79.21141760316559 97.0276538004421 l -14.987741264995917 -2.142943416658918 a36.14016495000841,36.14016495000841 0 0,0 0.09335195041283101,-0.6150727157823433 l 14.948633421143784 2.4006152448333533" fill="#ffad10" stroke="none" /><path d="M 79.3925641242962 95.95851677861259 l -18.962948643288218 -3.718970144181661 a40.32418588663701,40.32418588663701 0 0,0 0.13944622717820088,-0.6799893270404913 l 18.896123120195025 4.0448351273855545" fill="#ffe415" stroke="none" /><path d="M 80.02781315780177 93.51064311812611 l -17.09750683375608 -5.555316726764061 a38.97738256435014,38.97738256435014 0 0,0 0.2128215317391105,-0.6363092914640828 l 16.999348008245192 5.848799121150465" fill="#ffd213" stroke="none" /><path d="M 80.2630227832202 92.82701384747504 l -23.104910099411786 -8.396989993863645 a45.58345605603384,45.58345605603384 0 0,0 0.2743590326533511,-0.735145804781829 l 22.956946478256807 8.793458935674817" fill="#d9ff1c" stroke="none" /><path d="M 80.38941819471856 92.48833698450439 l -9.170169357302633 -3.5125537167148235 a30.819879818736037,30.819879818736037 0 0,0 0.1940279478051429,-0.49377996352412945 l 9.1083478596158 3.6698826851347164" fill="#ff6309" stroke="none" /><path d="M 80.52162464483688 92.15188598940014 l -8.521135012645711 -3.4332862910577027 a30.186794689123154,30.186794689123154 0 0,0 0.19833919092942084,-0.4802940829590941 l 8.46077413483009 3.579454944470108" fill="#ff5a08" stroke="none" /><path d="M 80.65960295795068 91.81776055985345 l -16.525525087194453 -6.991366456623994 a38.9435833750759,38.9435833750759 0 0,0 0.26650260585783514,-0.6151247580178937 l 16.402731771493936 7.274790359228486" fill="#ffd213" stroke="none" /><path d="M 81.6062741919709 89.86733742301443 l -15.00737240553773 -8.267201671892913 a38.13382181541072,38.13382181541072 0 0,0 0.32167214966266755,-0.5722188611068841 l 14.86284261458263 8.524304042934581" fill="#ffc712" stroke="none" /><line stroke="#e1ed5e" stroke-width="0.3" x1="26.266209847984243" x2="21.928928074336255" y1="57.711370442889674" y2="55.22380399835377" /><path d="M 25.398753493254645 57.213857153982495 a86.0,86.0 0 0,1 29.58750427330803,-30.492523968695096" fill="none" id="id23" stroke="none" /><text fill="#e1ed5e" style="font-size:6.75px; font-family:Arial;" text-anchor="middle"><textPath startOffset="21.46611528233685" xlink:href="#id23">November</textPath></text><path d="M 81.78341655067845 89.55222093294921 l -11.403986788261296 -6.540542290972657 a34.14646751514794,34.14646751514794 0 0,0 0.29681463313826567,-0.5073524219102478 l 11.289712480652707 6.735874125236797" fill="#ff920d" stroke="none" /><path d="M 81.96595687620814 89.24020034530311 l -13.743080550179243 -8.1996473194192 a37.003327128180985,37.003327128180985 0 0,0 0.3310638370586789,-0.5441819007496764 l 13.599900914834347 8.43499699337595" fill="#ffb811" stroke="none" /><path d="M 82.54541684631803 88.32363383020206 l -7.469705758171693 -4.99691220610229 a29.98697032982514,29.98697032982514 0 0,0 0.2906958813271325,-0.42656033585984565 l 7.38258541117582 5.124750565232551" fill="#ff5708" stroke="none" /><path d="M 82.7489923806493 88.02491185347247 l -5.93097292535324 -4.117088412627253 a28.219893132080472,28.219893132080472 0 0,0 0.2804350270070668,-0.3966554579075802 l 5.859225278542295 4.21857037086662" fill="#ff3e05" stroke="none" /><path d="M 83.17141714833178 87.43820079747576 l -10.879290404810346 -8.120913254298696 a34.576015313634656,34.576015313634656 0 0,0 0.36012411620340734,-0.4738811236492769 l 10.73789034838283 8.306979153829" fill="#ff980e" stroke="none" /><path d="M 83.39014120810768 87.1503855733568 l -8.316174805949414 -6.433506816636824 a31.514217677165536,31.514217677165536 0 0,0 0.33562029460816273,-0.4262036913778252 l 8.20420043074728 6.575702901967698" fill="#ff6d0a" stroke="none" /><path d="M 83.6137871275137 86.86637796730984 l -24.593167309737453 -19.71153228304146 a52.5177471160317,52.5177471160317 0 0,0 0.5714468766078062,-0.7005263020819031 l 24.250221941053255 20.131942754731448" fill="#88ff25" stroke="none" /><path d="M 84.07557802195018 86.31012108654704 l -2.303045086207512 -1.979877725286504 a24.03709276713607,24.03709276713607 0 0,0 0.27242969783393106,-0.31143423885926075 l 2.2686235247957374 2.019227520348708" fill="#ff0000" stroke="none" /><path d="M 84.5562425177563 85.77008943001954 l -12.300443074552078 -11.333654075004436 a37.72580684218734,37.72580684218734 0 0,0 0.44414534554377494,-0.4737832874874339 l 12.103530407037846 11.54370677936992" fill="#ffc212" stroke="none" /><path d="M 84.80347519578584 85.50635884689758 l -8.886471592151011 -8.47544632955546 a33.280169699286816,33.280169699286816 0 0,0 0.39894323920643504,-0.41114607610299403 l 8.739264089241457 8.62715660120858" fill="#ff860c" stroke="none" /><path d="M 85.05521093208273 85.24692304244772 l -21.327597382677006 -21.05400645511916 a50.968943890797526,50.968943890797526 0 0,0 0.6217342251477742,-0.6190643007985036 l 20.96202735736192 21.418006606567776" fill="#99ff23" stroke="none" /><path d="M 85.57189188830299 84.74124197986013 l -8.229080402727494 -8.702842092768675 a32.9773630138783,32.9773630138783 0 0,0 0.41581646377667036,-0.3864560857650948 l 8.078056055155967 8.843202764608417" fill="#ff820b" stroke="none" /><path d="M 85.83668400450813 84.49514656593479 l -42.38784831847086 -46.40278983907922 a83.84861645191123,83.84861645191123 0 0,0 1.0740169776592279,-0.9642630469743391 l 41.58282035321566 47.125551894822834" fill="#4dd3ff" stroke="none" /><path d="M 86.37877921826538 84.01681056812374 l -10.542983483046285 -12.371174719716427 a37.25424451242006,37.25424451242006 0 0,0 0.49165395632855435,-0.41174604921431485 l 10.32847198975862 12.550821926324554" fill="#ffbc11" stroke="none" /><path d="M 86.93701828274178 83.55741782278169 l -12.150145037695502 -15.293580177295164 a40.53252720659547,40.53252720659547 0 0,0 0.550021462428313,-0.42930047572116914 l 11.885091020107764 15.500459042239553" fill="#ffe615" stroke="none" /><path d="M 87.22198572758235 83.33499621200491 l -11.736212023982185 -15.306292015854144 a40.28785234147297,40.28785234147297 0 0,0 0.5539653485911608,-0.41723521565276633 l 11.471000521632634 15.506043821012765" fill="#ffe315" stroke="none" /><path d="M 87.80319425747018 82.90503203632743 l -21.205649064392595 -29.72170739266721 a57.511086570759616,57.511086570759616 0 0,0 0.8108210410623933,-0.5680319554233626 l 20.690896883746543 30.082324190854514" fill="#52ff2b" stroke="none" /><path d="M 88.39885842347998 82.49532879139004 l -6.583186000638025 -9.933204046015952 a32.91666398530999,32.91666398530999 0 0,0 0.4749921232727488,-0.3089480897420803 l 6.411226851580989 10.045051059917567" fill="#ff810b" stroke="none" /><path d="M 88.70189139769569 82.29822771554957 l -10.355815207263214 -16.225395689808984 a40.24854212395983,40.24854212395983 0 0,0 0.5872086881771583,-0.36771002666590963 l 10.074987366713813 16.40125005779782" fill="#ffe315" stroke="none" /><path d="M 89.00827224532344 82.1063720568725 l -8.712618769167321 -14.183426131479637 a37.64569922364291,37.64569922364291 0 0,0 0.5550731677809828,-0.3344253728319814 l 8.467183535168688 14.331298113770238" fill="#ffc111" stroke="none" /><line stroke="#e1ed5e" stroke-width="0.3" x1="56.762969772571076" x2="54.21961505331055" y1="26.818313649435495" y2="22.513508569990535" /><path d="M 56.25429882871897 25.957352633546506 a86.0,86.0 0 0,1 42.265352541879196,-11.944610805530505" fill="none" id="id24" stroke="none" /><text fill="#e1ed5e" style="font-size:6.75px; font-family:Arial;" text-anchor="middle"><textPath startOffset="22.20632615414155" xlink:href="#id24">December</textPath></text><path d="M 89.63071344664047 81.73862282372117 l -8.58580450787605 -15.12048236619731 a38.38807137189023,38.38807137189023 0 0,0 0.5774222387315788,-0.32133485069233253 l 8.324258180072425 15.266032614449827" fill="#ffcb12" stroke="none" /><path d="M 89.94658935756843 81.56283822128135 l -30.16023192729471 -55.31148533615593 a84.0,84.0 0 0,0 1.2754198138867787,-0.6812850939930022 l 29.20366706687963 55.822449156650684" fill="#4dd2ff" stroke="none" /></svg>