<?xml version="1.0" encoding="utf-8" ?>
<svg baseProfile="full" height="200mm" version="1.1" viewBox="0,0,200,200" width="200mm" xmlns="http://www.w3.org/2000/svg" xmlns:ev="http://www.w3.org/2001/xml-events" xmlns:xlink="http://www.w3.org/1999/xlink"><defs /><rect fill="#1a1a1a" height="200" width="200" x="0" y="0" /><text alignment-baseline="middle" fill="#e1ed5e" style="dominant-baseline: central; font-size:9.0px; font-family:Arial;" text-anchor="middle" x="100.0" y="100.0">2024</text><line stroke="#e1ed5e" stroke-width="0.3" x1="100.0" x2="100.0" y1="15.0" y2="10.0" /><path d="M 100.0 14.0 a86.0,86.0 0 0,1 42.35913384403234,11.155469271406648" fill="none" id="id25" stroke="none" /><text fill="#e1ed5e" style="font-size:6.75px; font-family:Arial;" text-anchor="middle"><textPath startOffset="22.145653131862478" xlink:href="#id25">January</textPath></text><path d="M 101.08105385017728 79.02784411241856 l 1.323058783174635 -25.666986935592604 a46.70106423663458,46.70106423663458 0 0,0 0.8002686536656013,0.048142174962150515 l -1.7634717889726987 25.64049278280576" fill="#eaff1a" stroke="none" /><path d="M 101.44090949804482 79.04949213459386 l 2.701579185823179 -39.280368446738954 a60.37316186704896,60.37316186704896 0 0,0 1.033332678974807,0.07998648460525609 l -3.3754808595732193 39.228204195138645" fill="#45ff2d" stroke="none" /><path d="M 102.15924093988457 79.11130261209362 l 2.687948256808511 -26.00346107453161 a47.14201701640408,47.14201701640408 0 0,0 0.8042520106239005,0.0901181152995705 l -3.133936169033208 25.95348719872507" fill="#e4ff1a" stroke="none" /><path d="M 102.87502721639298 79.19773525538626 l 8.28586866899893 -59.952418088015726 a81.52229386102391,81.52229386102391 0 0,0 1.384616931119058,0.2034910069718086 l -9.31381070572567 59.80134600774503" fill="#4aebff" stroke="none" /><path d="M 103.58742460773223 79.30868818359171 l 6.419641693575 -37.02678733514738 a58.57918013789174,58.57918013789174 0 0,0 0.9893333586650571,0.18028949437692385 l -7.05430978579111 36.911129666839095" fill="#59ff2a" stroke="none" /><path d="M 104.29559338865022 79.4440306129975 l 9.362188986041133 -44.80146344877067 a66.76922229797972,66.76922229797972 0 0,0 1.1199347384028668,0.2440845636838807 l -10.129886141063134 44.63414742695307" fill="#35ff69" stroke="none" /><path d="M 104.9986988182912 79.60360301121754 l 5.762130054062903 -23.51145695227902 a45.20724583216365,45.20724583216365 0 0,0 0.7521510667436347,0.19119385990236554 l -6.164886414031932 23.409077860541387" fill="#feff18" stroke="none" /><path d="M 105.3480935250658 79.69241777938227 l 10.97675020594683 -41.680508442436995 a64.10166851879188,64.10166851879188 0 0,0 1.0617025019978523,0.28937173810083217 l -11.690634108879376 41.48593621019202" fill="#32ff46" stroke="none" /><path d="M 105.69591212413111 79.78721728523813 l 8.22542643308161 -29.189136630772634 a51.325951547411506,51.325951547411506 0 0,0 0.8459982968153994,0.24625777449167852 l -8.725284742278614 29.043635161978436" fill="#afff20" stroke="none" /><path d="M 107.06938296918511 80.22567764915836 l 10.775275555550667 -30.140363477742685 a53.008562508624046,53.008562508624046 0 0,0 0.8542225051494678,0.3136823361054669 l -11.29108721235426 29.950950292628495" fill="#9aff23" stroke="none" /><line stroke="#e1ed5e" stroke-width="0.3" x1="143.13028292997686" x2="145.6673583964461" y1="26.7553504044142" y2="22.446841604673864" /><path d="M 143.63769802327073 25.89364864446614 a86.0,86.0 0 0,1 29.32050498858742,28.57503671076993" fill="none" id="id26" stroke="none" /><text fill="#e1ed5e" style="font-size:6.75px; font-family:Arial;" text-anchor="middle"><textPath startOffset="20.669276256404974" xlink:href="#id26">February</textPath></text><path d="M 115.8921839302757 86.27271002978787 l 22.892285905325807 -19.773811332798708 a51.249964770166216,51.249964770166216 0 0,0 0.5693759714737501,0.670723462720566 l -23.22835644030667 19.37792108762859" fill="#b0ff20" stroke="none" /><path d="M 116.1254893667686 86.54754324733833 l 28.954221080487567 -24.154641017900307 a58.706678467897206,58.706678467897206 0 0,0 0.638933242655861,0.7793946669480868 l -29.364601142382057 23.654044069253725" fill="#57ff2a" stroke="none" /><path d="M 116.57777611688842 87.10902102172516 l 23.877104684535826 -18.56698102207162 a51.24646942025218,51.24646942025218 0 0,0 0.5340565952473894,0.699097226625853 l -24.192313257137524 18.154362882204882" fill="#b0ff20" stroke="none" /><path d="M 116.7966241395341 87.39550010848427 l 25.777541081984836 -19.343947395159873 a53.2284024590132,53.2284024590132 0 0,0 0.5421641803220117,0.735549836252511 l -26.105807281890673 18.898591249638486" fill="#97ff23" stroke="none" /><path d="M 117.01052211995028 87.68569379921539 l 31.321659734618585 -22.67446619034211 a59.66752882649982,59.66752882649982 0 0,0 0.5935069466611499,0.8348418473901329 l -31.706281779809697 22.133447116242472" fill="#4dff2c" stroke="none" /><path d="M 117.42321728460499 88.27688183743584 l 27.79924308730856 -18.704571389941865 a54.50610253533981,54.50610253533981 0 0,0 0.5156681192120555,0.7807872569497458 l -28.11623564544134 18.22460425465306" fill="#88ff25" stroke="none" /><line stroke="#e1ed5e" stroke-width="0.3" x1="172.87174338648825" x2="177.1583165268699" y1="56.24261187166439" y2="53.66864786411523" /><path d="M 173.72905801456457 55.72781907015455 a86.0,86.0 0 0,1 12.242430191666344,42.057860355516425" fill="none" id="id27" stroke="none" /><text fill="#e1ed5e" style="font-size:6.75px; font-family:Arial;" text-anchor="middle"><textPath startOffset="22.145653131862474" xlink:href="#id27">March</textPath></text><path d="M 118.00360718960297 89.18935116829356 l 33.1595725274804 -19.911370550847728 a59.67841681633827,59.67841681633827 0 0,0 0.5198453035020019,0.8828109743850313 l -33.49649154111217 19.33920840816914" fill="#4dff2c" stroke="none" /><path d="M 118.36410011445183 89.81374322990088 l 16.04584041617648 -8.900357194338167 a39.348987788109994,39.348987788109994 0 0,0 0.32257672550725147,0.5935048423595571 l -16.196262491299073 8.623597518504006" fill="#ffaf10" stroke="none" /><path d="M 118.8641267826498 90.77261029715802 l 34.81584711545437 -17.03017546851629 a59.757839037479194,59.757839037479194 0 0,0 0.44283615493926914,0.9253572456473401 l -35.10306252835355 16.430005720803848" fill="#4cff2c" stroke="none" /><path d="M 119.0197475246899 91.09779779509293 l 38.11314344751313 -17.83887557886618 a63.08131634548736,63.08131634548736 0 0,0 0.4506274966293371,0.9847024054500804 l -38.413755408997524 17.181984191201412" fill="#30ff39" stroke="none" /><path d="M 119.58574465831526 92.42381321644754 l 28.903096056356674 -11.180338463819853 a51.99014246189505,51.99014246189505 0 0,0 0.3148357554890004,0.8351392461724667 l -29.090762495660115 10.68253093745323" fill="#a7ff21" stroke="none" /><path d="M 119.94978838288452 93.4421083053983 l 17.30026943674345 -5.686942190871862 a39.211003104338815,39.211003104338815 0 0,0 0.20470997476204938,0.641251080288243 l -17.395344127282755 5.389122076892231" fill="#ffad10" stroke="none" /><path d="M 120.35273937422433 94.82641323984039 l 35.74883827837828 -9.087214895619116 a57.88572776580131,57.88572776580131 0 0,0 0.23653892757085768,0.9651595435960383 l -35.89956473246543 8.472199527414983" fill="#61ff29" stroke="none" /><path d="M 120.51834098615036 95.52812308129327 l 44.03486102503923 -9.597193007429265 a66.06855998494258,66.06855998494258 0 0,0 0.2320022312298716,1.1102146621880793 l -44.19312096709346 8.839861893955781" fill="#34ff60" stroke="none" /><path d="M 120.592083275326 95.88100663000786 l 39.557278609398765 -7.912563588079497 a61.34088439185486,61.34088439185486 0 0,0 0.19767452768992327,1.0343166581782761 l -39.68727942937085 7.232344364867906" fill="#3aff2e" stroke="none" /><path d="M 120.7213421655516 96.59031103205396 l 52.233456376020555 -8.594995369512887 a73.93588490228146,73.93588490228146 0 0,0 0.19532631294359723,1.2541350467404468 l -52.37330418110241 7.697072140840999" fill="#3fffc0" stroke="none" /><path d="M 120.82617615685814 97.30363454192243 l 24.069636924783794 -3.116296390832337 a45.27053202726364,45.27053202726364 0 0,0 0.093166568958734,0.7715528410285144 l -24.11958558000219 2.70264987288041" fill="#fdff18" stroke="none" /><path d="M 120.86939407059847 97.66154086499901 l 34.6655665141252 -3.884349033360106 a55.88251236878164,55.88251236878164 0 0,0 0.0986395731249733,0.9542483913768213 l -34.72713847973184 3.2886961197003535" fill="#78ff26" stroke="none" /><path d="M 120.93736805541906 98.37931529534042 l 26.34771286874712 -2.0394796106232036 a47.426529293421986,47.426529293421986 0 0,0 0.055864022400391296,0.8122506252341104 l -26.378840852312578 1.586885561234759" fill="#e0ff1b" stroke="none" /><path d="M 120.98066250479742 99.09900007780936 l 26.021246991582988 -1.1174643083534088 a47.045230301869296,47.045230301869296 0 0,0 0.027723783347190348,0.807147702852464 l -26.03659546192703 0.6706103409368248" fill="#e5ff1a" stroke="none" /><path d="M 120.99303781780057 99.45929381324524 l 24.426175670003495 -0.6291316396491519 a45.4342764264031,45.4342764264031 0 0,0 0.013389196544281485,0.7798535742195688 l -24.43337629814644 0.2097311494605167" fill="#fbff18" stroke="none" /><line stroke="#e1ed5e" stroke-width="0.3" x1="184.99686870605535" x2="189.99668451229388" y1="99.2704041080226" y2="99.22748670261217" /><path d="M 185.99683186730306 99.26182062694052 a86.0,86.0 0 0,1 -10.086455211305974,41.156179273409016" fill="none" id="id28" stroke="none" /><text fill="#e1ed5e" style="font-size:6.75px; font-family:Arial;" text-anchor="middle"><textPath startOffset="21.40746469413373" xlink:href="#id28">April</textPath></text><path d="M 120.99922638620191 99.81974689727618 l 44.95181463321113 -0.3858572650098568 a65.95347066298146,65.95347066298146 0 0,0 0.0,1.132220735467362 l -44.95181463321113 -0.3858572650098513" fill="#34ff5e" stroke="none" /><path d="M 120.99922638620191 100.18025310272382 l 37.16414806003153 0.31900951371761244 a58.16551719131307,58.16551719131307 0 0,0 -0.01714101341606059,0.9983780978982293 l -37.1531956150168 -0.9569345275849128" fill="#5eff2a" stroke="none" /><path d="M 120.98066250479742 100.90099992219065 l 59.3066933863445 2.546884595005629 a80.361355287444,80.361355287444 0 0,0 -0.07101804872621953,1.377731172664469 l -59.25423374816171 -3.5645875610468285" fill="#48f7ff" stroke="none" /><path d="M 120.93736805541906 101.62068470465957 l 53.85355688427576 4.168605896540558 a75.01465416170502,75.01465416170502 0 0,0 -0.11040148593905448,1.2830326149180238 l -53.77406177563897 -5.092459558834238" fill="#41ffcc" stroke="none" /><path d="M 120.82617615685814 102.69636545807757 l 23.923795550111244 3.097414305034936 a45.12347340041557,45.12347340041557 0 0,0 -0.10605194497074397,0.7673390440909936 l -23.867099088585288 -3.507641657326015" fill="#ffff18" stroke="none" /><path d="M 120.77682067341334 103.0534771498775 l 21.245504672923886 3.1223575577856106 a42.4737184839024,42.4737184839024 0 0,0 -0.11220850118219959,0.720459070537268 l -21.18877467960342 -3.4866048102543292" fill="#ffdb14" stroke="none" /><path d="M 120.7213421655516 103.40968896794604 l 45.921743742049934 7.556405457481351 a67.53929320207126,67.53929320207126 0 0,0 -0.198067604680717,1.1424013093807086 l -45.78526131987698 -8.343599799782648" fill="#36ff72" stroke="none" /><path d="M 120.592083275326 104.11899336999214 l 54.13176735394521 10.827869519351827 a76.20408495020777,76.20408495020777 0 0,0 -0.26759350803632936,1.280531805894165 l -53.937916135084514 -11.755517776531402" fill="#42ffd9" stroke="none" /><path d="M 120.43855184770803 104.8234425847677 l 35.39984157131249 8.354266222058518 a57.37227718170877,57.37227718170877 0 0,0 -0.23444081020738605,0.9565985087688076 l -35.25121323458881 -8.960720555435424" fill="#67ff28" stroke="none" /><path d="M 120.35273937422433 105.17358676015961 l 37.21667575525408 9.460333442307135 a59.400245612643566,59.400245612643566 0 0,0 -0.25969368523920705,0.9860992221719718 l -37.048792589210144 -10.09781316885191" fill="#50ff2b" stroke="none" /><path d="M 120.05942366710727 106.21446072829308 l 34.091374830268954 10.561595067341097 a56.68990232803081,56.68990232803081 0 0,0 -0.29596255020444384,0.9270984731646051 l -33.90504756428725 -11.145262574197085" fill="#6eff28" stroke="none" /><path d="M 119.71291397450082 107.23885506374661 l 44.8577473038973 16.47238615453377 a68.7865776008743,68.7865776008743 0 0,0 -0.41654962077371904,1.1049473581743272 l -44.568366999309134 -17.240001792902255" fill="#38ff82" stroke="none" /><path d="M 119.58574465831526 107.57618678355244 l 58.75723397494581 22.728560350657347 a84.0,84.0 0 0,0 -0.5317653001355023,1.3403959311457434 l -58.358409999844184 -23.733857299016655" fill="#4dd2ff" stroke="none" /><line stroke="#e1ed5e" stroke-width="0.3" x1="174.33088141563837" x2="178.70328620479359" y1="141.23008692659167" y2="143.65538615756765" /><path d="M 175.20536237346943 141.71514677278685 a86.0,86.0 0 0,1 -30.301960400862466,31.631185727798858" fill="none" id="id29" stroke="none" /><text fill="#e1ed5e" style="font-size:6.75px; font-family:Arial;" text-anchor="middle"><textPath startOffset="22.145653131862474" xlink:href="#id29">May</textPath></text><path d="M 118.00360718960297 110.81064883170644 l 28.93033912771696 17.37183741003525 a54.74529977708616,54.74529977708616 0 0,0 -0.4907056768352385,0.8015308451470741 l -28.627865486426316 -17.865905371306884" fill="#85ff25" stroke="none" /><path d="M 117.423217284605 111.72311816256416 l 31.153801535716987 20.96166802321795 a58.54931259613736,58.54931259613736 0 0,0 -0.5682357528333731,0.8290729453151044 l -30.78937604606829 -21.4933757036031" fill="#59ff2a" stroke="none" /><path d="M 116.79662413953412 112.60449989151573 l 48.21815562395297 36.183802904817604 a81.28480840502385,81.28480840502385 0 0,0 -0.8470961709796994,1.1088760799648332 l -47.589907475618965 -37.00619989802332" fill="#49eeff" stroke="none" /><path d="M 116.35404254752997 113.17365903436017 l 46.95884072712457 37.82671804785036 a81.29919834215892,81.29919834215892 0 0,0 -0.8848185892595294,1.079334809406456 l -46.30257531862641 -38.62725513895531" fill="#49edff" stroke="none" /><path d="M 115.89218393027572 113.72728997021213 l 46.923703557722 40.53157753768514 a83.00518311614243,83.00518311614243 0 0,0 -0.9406816769396913,1.0703230698036532 l -46.22101081682372 -41.33111288530009" fill="#4cdcff" stroke="none" /><path d="M 115.41159269507618 114.26474011684316 l 28.51433534530729 26.39244310130745 a59.85393639054339,59.85393639054339 0 0,0 -0.7044072003258941,0.7480560362684262 l -28.05707231124514 -26.87804059752037" fill="#4bff2c" stroke="none" /><path d="M 114.13192950727249 115.5334660781643 l 8.120859481353754 8.926247135200569 a33.067570038519335,33.067570038519335 0 0,0 -0.42316250225321744,0.37839451886430375 l -7.966431952277159 -9.06433718394826" fill="#ff5207" stroke="none" /><path d="M 112.45986205192187 116.90419585922612 l 5.038122847343371 6.835181241930198 a29.491312291687176,29.491312291687176 0 0,0 -0.4100963437221081,0.2968781271265886 l -4.920045493247295 -6.920660140429864" fill="#ff1a02" stroke="none" /><line stroke="#e1ed5e" stroke-width="0.3" x1="143.1302829299769" x2="145.66735839644613" y1="173.24464959558577" y2="177.55315839532614" /><path d="M 143.63769802327073 174.10635135553383 a86.0,86.0 0 0,1 -40.68552437913181,11.842963189579606" fill="none" id="id30" stroke="none" /><text fill="#e1ed5e" style="font-size:6.75px; font-family:Arial;" text-anchor="middle"><textPath startOffset="21.407464694133747" xlink:href="#id30">June</textPath></text><path d="M 110.34350942703117 118.27599006163325 l 18.543501081591003 32.76458960721569 a58.648104394407866,58.648104394407866 0 0,0 -0.8804359887602465,0.48836300146774936 l -17.97832090467466 -33.07808552411658" fill="#58ff2a" stroke="none" /><path d="M 109.71004243097381 118.62028667847754 l 18.018999653856714 34.553807730431394 a59.969859856013194,59.969859856013194 0 0,0 -0.9168899770198697,0.46817055536608343 l -17.423182455123264 -34.858036237470316" fill="#49ff2c" stroke="none" /><path d="M 109.3889696526874 118.78422872680471 l 19.134846186888435 38.28251029907837 a63.79828189769912,63.79828189769912 0 0,0 -0.9838295098694815,0.4812403136026052 l -18.474856427756887 -38.6053443627782" fill="#31ff42" stroke="none" /><path d="M 108.73861861582097 119.09545874513695 l 15.267832200319372 33.36296876271012 a57.69052172916979,57.69052172916979 0 0,0 -0.9040560706350476,0.40437278126607484 l -14.692862726828697 -33.62014529488604" fill="#63ff29" stroke="none" /><path d="M 107.407793817531 119.65005319985036 l 21.274836554757364 56.43403156412895 a81.31101548649917,81.31101548649917 0 0,0 -1.3103109395547905,0.4811643267021866 l -20.30293646354845 -56.79092673983986" fill="#49edff" stroke="none" /><path d="M 106.72888874123015 119.89276391827305 l 19.298272105181006 57.051912400735866 a81.2274357317896,81.2274357317896 0 0,0 -1.3246928484437102,0.4354528510267416 l -18.31605651908956 -57.37478617316463" fill="#49eeff" stroke="none" /><path d="M 105.69591212413111 120.21278271476187 l 8.417069190948169 29.869209170375836 a52.03251053699769,52.03251053699769 0 0,0 -0.8618035676585358,0.23488839463557634 l -7.903084222354939 -30.009298059155554" fill="#a6ff21" stroke="none" /><path d="M 105.3480935250658 120.30758222061773 l 8.135614279893302 30.892252562492736 a52.94557071169715,52.94557071169715 0 0,0 -0.8809001025632103,0.22392136133850957 l -7.604108884104694 -31.027359155666517" fill="#9bff22" stroke="none" /><path d="M 104.9986988182912 120.39639698878246 l 1.6285103027645496 6.644877765782821 a27.84152368470688,27.84152368470688 0 0,0 -0.46517597389777365,0.10978026323136612 l -1.5142021751268968 -6.671854172660412" fill="#ff0000" stroke="none" /><path d="M 104.64783097203109 120.47920084513623 l 9.759382676871816 43.00164080124914 a65.09519998631689,65.09519998631689 0 0,0 -1.091855996803539,0.2379649326401675 l -9.01976426344914 -43.16283719202303" fill="#33ff53" stroke="none" /><path d="M 104.29559338865022 120.5559693870025 l 12.322773304257646 58.96893115502426 a81.24272224488296,81.24272224488296 0 0,0 -1.3675994208856328,0.27355818603272564 l -11.308677397841056 -59.17177873771984" fill="#49eeff" stroke="none" /><path d="M 103.58742460773223 120.69131181640829 l 2.7169550228740476 15.670674569236754 a36.90446119965225,36.90446119965225 0 0,0 -0.62513081363911,0.10286503749413844 l -2.4475467061818654 -15.715005605226562" fill="#ff8c0c" stroke="none" /><path d="M 102.875027216393 120.80226474461374 l 7.246204743984661 52.42992783461722 a73.92829881958153,73.92829881958153 0 0,0 -1.2586193532326861,0.16295347371327018 l -6.3451075688611995 -52.54659290453088" fill="#3fffc0" stroke="none" /><line stroke="#e1ed5e" stroke-width="0.3" x1="101.45913802915013" x2="101.54496967792366" y1="184.9874750549273" y2="189.98673829345242" /><path d="M 101.47630435890484 185.9873277026323 a86.0,86.0 0 0,1 -42.54439059252881,-10.42667462771756" fill="none" id="id31" stroke="none" /><text fill="#e1ed5e" style="font-size:6.75px; font-family:Arial;" text-anchor="middle"><textPath startOffset="22.145653131862474" xlink:href="#id31">July</textPath></text><line stroke="#e1ed5e" stroke-width="0.3" x1="58.13341422392154" x2="55.67067388415222" y1="173.97424548756322" y2="178.32567169271397" /><path d="M 57.64086615596768 174.84453072859336 a86.0,86.0 0 0,1 -31.369924170532247,-30.572349798747897" fill="none" id="id32" stroke="none" /><text fill="#e1ed5e" style="font-size:6.75px; font-family:Arial;" text-anchor="middle"><textPath startOffset="22.145653131862474" xlink:href="#id32">August</textPath></text><line stroke="#e1ed5e" stroke-width="0.3" x1="26.387840678322732" x2="22.057713659400548" y1="142.50000000000003" y2="145.00000000000006" /><path d="M 25.521815274538298 143.00000000000003 a86.0,86.0 0 0,1 -11.493303480769221,-40.785679425670985" fill="none" id="id33" stroke="none" /><text fill="#e1ed5e" style="font-size:6.75px; font-family:Arial;" text-anchor="middle"><textPath startOffset="21.40746469413373" xlink:href="#id33">September</textPath></text><line stroke="#e1ed5e" stroke-width="0.3" x1="15.003131293944662" x2="10.003315487706104" y1="100.72959589197737" y2="100.7725132973878" /><path d="M 14.003168132696942 100.73817937305945 a86.0,86.0 0 0,1 10.791469493833604,-42.45332614584628" fill="none" id="id34" stroke="none" /><text fill="#e1ed5e" style="font-size:6.75px; font-family:Arial;" text-anchor="middle"><textPath startOffset="22.145653131862435" xlink:href="#id34">October</textPath></text><line stroke="#e1ed5e" stroke-width="0.3" x1="26.387840678322718" x2="22.05771365940052" y1="57.49999999999999" y2="54.99999999999999" /><path d="M 25.521815274538284 56.99999999999999 a86.0,86.0 0 0,1 29.574782752854787,-30.34633250058573" fill="none" id="id35" stroke="none" /><text fill="#e1ed5e" style="font-size:6.75px; font-family:Arial;" text-anchor="middle"><textPath startOffset="21.40746469413373" xlink:href="#id35">November</textPath></text><line stroke="#e1ed5e" stroke-width="0.3" x1="56.869717070023135" x2="54.33264160355391" y1="26.7553504044142" y2="22.446841604673864" /><path d="M 56.362301976729285 25.89364864446614 a86.0,86.0 0 0,1 42.16139366436587,-11.88097634709845" fill="none" id="id36" stroke="none" /><text fill="#e1ed5e" style="font-size:6.75px; font-family:Arial;" text-anchor="middle"><textPath startOffset="22.145653131862474" xlink:href="#id36">December</textPath></text></svg>