<?xml version="1.0" encoding="utf-8" ?>
<svg baseProfile="full" height="200mm" version="1.1" viewBox="0,0,200,200" width="200mm" xmlns="http://www.w3.org/2000/svg" xmlns:ev="http://www.w3.org/2001/xml-events" xmlns:xlink="http://www.w3.org/1999/xlink"><defs /><rect fill="#1a1a1a" height="200" width="200" x="0" y="0" /><text alignment-baseline="middle" fill="#e1ed5e" style="dominant-baseline: central; font-size:9.0px; font-family:Arial;" text-anchor="middle" x="100.0" y="100.0">2023</text><line stroke="#e1ed5e" stroke-width="0.3" x1="100.0" x2="100.0" y1="15.0" y2="10.0" /><path d="M 100.0 14.0 a86.0,86.0 0 0,1 42.46469731375804,11.215312516191453" fill="none" id="id13" stroke="none" /><text fill="#e1ed5e" style="font-size:6.75px; font-family:Arial;" text-anchor="middle"><textPath startOffset="22.20632615414155" xlink:href="#id13">January</textPath></text><path d="M 102.88285421437855 79.19881850522331 l 0.8112374615179133 -5.853468964275603 a26.909416649273236,26.909416649273236 0 0,0 0.45826867201665206,0.06753688978225507 l -0.9118751139632212 5.838637590332379" fill="#ff2b04" stroke="none" /><path d="M 104.66035177308747 79.52364482259891 l 1.64478889229293 -7.2267681047007475 a28.41157930129134,28.41157930129134 0 0,0 0.4759295530561976,0.11263714854125652 l -1.768942132311651 7.197385044018622" fill="#ff4106" stroke="none" /><path d="M 105.01212808612495 79.60689891045804 l 3.3927650346977503 -13.804316078272242 a35.215132675058406,35.215132675058406 0 0,0 0.5874070457071665,0.1497431351142151 l -3.6298809690899416 13.74386994698916" fill="#ffa10e" stroke="none" /><path d="M 106.0581310904928 79.89281104454417 l 2.8890699001902256 -9.588943111483486 a31.014716914793535,31.014716914793535 0 0,0 0.509844473343954,0.15841115966369343 l -3.053699746244898 9.537791816937272" fill="#ff6709" stroke="none" /><path d="M 109.41281617654863 81.2277094730956 l 4.386677820459221 -8.74849661876459 a30.786681530991203,30.786681530991203 0 0,0 0.47168056688292254,0.24161310653004475 l -4.536618874930899 8.671690986922044" fill="#ff6309" stroke="none" /><path d="M 110.36928655335952 81.73862282372117 l 4.990230871967317 -8.788308402971222 a31.1062737317604,31.1062737317604 0 0,0 0.4633401935296466,0.2683965466324807 l -5.140767797962292 8.701107698948691" fill="#ff6809" stroke="none" /><line stroke="#e1ed5e" stroke-width="0.3" x1="143.23703022742887" x2="145.7803849466894" y1="26.81831364943548" y2="22.513508569990506" /><path d="M 143.74570117128098 25.957352633546492 a86.0,86.0 0 0,1 28.547481713284135,27.462654790039103" fill="none" id="id14" stroke="none" /><text fill="#e1ed5e" style="font-size:6.75px; font-family:Arial;" text-anchor="middle"><textPath startOffset="19.985693538727396" xlink:href="#id14">February</textPath></text><path d="M 110.99172775467656 82.1063720568725 l 3.170438476774434 -5.161212848984627 a27.057210431175047,27.057210431175047 0 0,0 0.394752907921212,0.2471942347255616 l -3.2588105370679092 5.105874272936121" fill="#ff2e04" stroke="none" /><path d="M 111.90073688211348 82.69761687909136 l 9.92711758651344 -14.432954317838998 a38.51735807470099,38.51735807470099 0 0,0 0.5430376338773896,0.3804325657800905 l -10.174086359974481 14.259936909294973" fill="#ffcd13" stroke="none" /><path d="M 112.77801427241765 83.33499621200491 l 7.159167951450531 -9.336940661222375 a32.765719130944106,32.765719130944106 0 0,0 0.4446268218623292,0.3470382870173338 l -7.31882732847229 9.212323984981818" fill="#ff7f0b" stroke="none" /><path d="M 113.34407831869373 83.78471172551755 l 7.876158154609941 -9.570850224515024 a33.39496031847331,33.39496031847331 0 0,0 0.4407219788482967,0.3690919827998564 l -8.039737670417356 9.433857084321348" fill="#ff880c" stroke="none" /><path d="M 113.6212207817346 84.01681056812373 l 5.889814481812903 -6.911129486107315 a30.080397865948107,30.080397865948107 0 0,0 0.391197295064908,0.33924243935812987 l -6.007905575524575 6.808722053329514" fill="#ff5908" stroke="none" /><path d="M 114.16331599549186 84.49514656593476 l 4.063947365936803 -4.448881059538729 a27.02562950031174,27.02562950031174 0 0,0 0.3407701727220935,0.316708737070125 l -4.139925422453744 4.378267736393963" fill="#ff2d04" stroke="none" /><path d="M 114.42810811169701 84.74124197986012 l 12.638080968845124 -13.365676071293384 a39.394629309062736,39.394629309062736 0 0,0 0.48871243079467547,0.47014097121812637 l -12.866276643252217 13.146152013312957" fill="#ffd814" stroke="none" /><path d="M 114.94478906791727 85.2469230424477 l 8.267801744842652 -8.161742187000806 a32.61768398688361,32.61768398688361 0 0,0 0.3910017473684503,0.40296167068710975 l -8.407067755914213 8.018216320763583" fill="#ff7d0b" stroke="none" /><path d="M 115.19652480421416 85.50635884689758 l 8.962997172093196 -8.548432377945124 a33.385920007300676,33.385920007300676 0 0,0 0.393051924375469,0.4192803881708583 l -9.108816418439128 8.39288257289621" fill="#ff880c" stroke="none" /><path d="M 115.4437574822437 85.77008943001954 l 9.063630926047722 -8.351248565334934 a33.32447800775422,33.32447800775422 0 0,0 0.38506650055869646,0.425200047517855 l -9.206041067222454 8.193995730547531" fill="#ff870c" stroke="none" /><path d="M 115.9244219780498 86.31012108654704 l 37.63674212235896 -32.35548788283543 a70.63267022558085,70.63267022558085 0 0,0 0.7846596335567866,0.9287895117425156 l -38.188112369402866 31.70283942146381" fill="#3cffa3" stroke="none" /><path d="M 116.60985879189232 87.15038557335679 l 7.9351259390676985 -6.138722190320236 a31.03245402674715,31.03245402674715 0 0,0 0.32321639664469964,0.42531489098427394 l -8.039618275936512 6.001222523454928" fill="#ff6709" stroke="none" /><path d="M 116.82858285166822 87.43820079747576 l 14.044474844580503 -10.483584652229606 a38.52577589781744,38.52577589781744 0 0,0 0.3921142233945238,0.534843360043303 l -14.222851680488652 10.240278848514809" fill="#ffcd13" stroke="none" /><path d="M 117.2510076193507 88.02491185347247 l 6.203793588128934 -4.306471639220255 a28.55200323513689,28.55200323513689 0 0,0 0.2767852054676688,0.4061481355233258 l -6.277003259265337 4.199045480426522" fill="#ff4306" stroke="none" /><path d="M 117.45458315368197 88.32363383020206 l 14.56369667679889 -9.742487327650771 a38.52190971964069,38.52190971964069 0 0,0 0.363946500038808,0.5543154884932515 l -14.72923981219562 9.490353775179846" fill="#ffcd13" stroke="none" /><line stroke="#e1ed5e" stroke-width="0.3" x1="172.23445277983987" x2="176.4835382374775" y1="55.19839476539836" y2="52.563006222186495" /><path d="M 173.08426987136738 54.67131705675599 a86.0,86.0 0 0,1 12.851231095245387,41.99856678651699" fill="none" id="id15" stroke="none" /><text fill="#e1ed5e" style="font-size:6.75px; font-family:Arial;" text-anchor="middle"><textPath startOffset="22.20632615414155" xlink:href="#id15">March</textPath></text><path d="M 117.84615892207809 88.93136811851018 l 9.318008527201766 -5.779260775750709 a31.96472243274473,31.96472243274473 0 0,0 0.2859841122513654,0.4700826860820053 l -9.416108437739354 5.618010316461622" fill="#ff740a" stroke="none" /><path d="M 118.3937258080291 89.86733742301442 l 25.407435229767277 -13.996346950951615 a50.00750752695295,50.00750752695295 0 0,0 0.40885162003092756,0.7575399581175686 l -25.64459494901667 13.556926009501588" fill="#a4ff21" stroke="none" /><path d="M 119.196687751892 91.48605970444005 l 16.337370895944883 -7.245802098374199 a38.872082582633475,38.872082582633475 0 0,0 0.2660133045184262,0.6139953830647497 l -16.45967491030599 6.963507570722847" fill="#ffd113" stroke="none" /><path d="M 119.47837535516314 92.15188598940014 l 9.761703522239117 -3.933128958822506 a31.524274752343924,31.524274752343924 0 0,0 0.19846249797911084,0.505065410017372 l -9.827959570099928 3.7645145439093493" fill="#ff6e0a" stroke="none" /><path d="M 119.61058180528143 92.48833698450437 l 11.193436230088958 -4.287548517465388 a32.98649602372135,32.98649602372135 0 0,0 0.19854008280036964,0.5319887139861105 l -11.265580901390953 4.0942366664499446" fill="#ff820c" stroke="none" /><path d="M 119.7369772167798 92.82701384747503 l 17.025049394801528 -6.1873934500538255 a39.11452855034325,39.11452855034325 0 0,0 0.2245302815390774,0.6347773414838539 l -17.129032757150412 5.893418482143357" fill="#ffd413" stroke="none" /><path d="M 119.85752413597 93.16781622104841 l 13.784093566191077 -4.742558026148474 a35.57714279524268,35.57714279524268 0 0,0 0.19425578441765232,0.5808000700658476 l -13.863686644380499 4.5045848531603125" fill="#ffa60f" stroke="none" /><path d="M 120.08093135843002 93.85539295169968 l 28.027859128388776 -8.576304439025314 a50.310644570729785,50.310644570729785 0 0,0 0.24626845592286545,0.8302948067645327 l -28.171333481423343 8.092580245514252" fill="#a1ff22" stroke="none" /><path d="M 120.28053869075195 94.5502522615342 l 15.383674270820086 -4.133871656226098 a36.92941709356753,36.92941709356753 0 0,0 0.15968221590416556,0.6153207163541268 l -15.452552818594555 3.868454514323121" fill="#ffb811" stroke="none" /><path d="M 120.37134235888165 94.90015583598534 l 19.03297634311079 -4.7647922074670355 a40.62033213933326,40.62033213933326 0 0,0 0.16396532418698656,0.6797421242219893 l -19.112174467558596 4.43646485158564" fill="#ffe815" stroke="none" /><path d="M 120.45610955862082 95.25157060432595 l 11.47015460290611 -2.662540456839317 a32.77512498018065,32.77512498018065 0 0,0 0.1228374429833309,0.5506561708921924 l -11.514286432891478 2.464706116397161" fill="#ff7f0b" stroke="none" /><path d="M 120.53481517161879 95.60439243477599 l 28.82476027824572 -6.170122949046125 a50.477741133008784,50.477741133008784 0 0,0 0.17455852865236285,0.8512093789085664 l -28.92669810281308 5.673037913974147" fill="#9fff22" stroke="none" /><path d="M 120.67395015179393 96.31383870115 l 17.377257147001 -3.0983615760474903 a38.65131469349875,38.65131469349875 0 0,0 0.1111467116255448,0.6559941836685632 l -17.428015720146767 2.7987816040630893" fill="#ffce13" stroke="none" /><path d="M 120.73433829027371 96.67025291283417 l 17.476075996612014 -2.80649964952604 a38.69999074921081,38.69999074921081 0 0,0 0.09996411533801428,0.6586386211517217 l -17.521796005389326 2.5052619159822362" fill="#ffcf13" stroke="none" /><path d="M 120.78858239683441 97.02765380044208 l 31.66003015392104 -4.5267430221805744 a52.98200918854302,52.98200918854302 0 0,0 0.12131366570188733,0.9039277187055419 l -31.733259818680764 3.9810969614103686" fill="#83ff25" stroke="none" /><path d="M 120.87857604477298 97.74499172005257 l 28.586051684443657 -3.0874607109790806 a49.75230016098753,49.75230016098753 0 0,0 0.08463310312719008,0.8522437986497569 l -28.634961913253075 2.594941381624889" fill="#a7ff21" stroke="none" /><path d="M 120.94382443527127 98.46500227214037 l 17.349994914539828 -1.2716017007545108 a38.396531103065335,38.396531103065335 0 0,0 0.04263735299066959,0.6595809790265346 l -17.36931285853491 0.9727616574749411" fill="#ffcb12" stroke="none" /><path d="M 120.96714384426684 98.82574320788733 l 17.392610258413903 -0.9740664193561809 a38.41986501068254,38.41986501068254 0 0,0 0.0312964410709008,0.6606184066857662 l -17.4068003077183 0.6745369060474149" fill="#ffcb13" stroke="none" /><line stroke="#e1ed5e" stroke-width="0.3" x1="184.98032266829074" x2="189.97916517819016" y1="98.17113171792111" y2="98.06355123074" /><path d="M 185.9800911702706 98.14961562048488 a86.0,86.0 0 0,1 -9.607161424134198,41.387399972396054" fill="none" id="id16" stroke="none" /><text fill="#e1ed5e" style="font-size:6.75px; font-family:Arial;" text-anchor="middle"><textPath startOffset="21.466115282336823" xlink:href="#id16">April</textPath></text><path d="M 120.99513854157772 99.54816195383933 l 51.75777110773404 -1.1138831079698226 a72.76975570368097,72.76975570368097 0 0,0 0.0161721872340313,1.2525537236513575 l -51.769276302085785 0.22279312625800224" fill="#3fffba" stroke="none" /><path d="M 120.99824983174949 100.27111621757518 l 17.69362427392015 0.22844896726052735 a38.695099007275964,38.695099007275964 0 0,0 -0.014331812117905842,0.665942993344731 l -17.68707039911724 -0.5329817763953731" fill="#ffcf13" stroke="none" /><path d="M 120.9904718944345 100.63252640178507 l 6.1849924769023055 0.1863784223698198 a27.18780000126565,27.18780000126565 0 0,0 -0.01812243868979877,0.4676596173376088 l -6.180867905361303 -0.29281528672143475" fill="#ff2f04" stroke="none" /><path d="M 120.9764740272857 100.99374915477107 l 29.249126569892606 1.3856616116137488 a50.281930660451636,50.281930660451636 0 0,0 -0.04839910966990245,0.8641986158389554 l -29.220941109335175 -1.8889319437881273" fill="#a1ff22" stroke="none" /><path d="M 120.95626037817324 101.35467743843564 l 17.502033740766464 1.1313855529324381 a38.538563747705,38.538563747705 0 0,0 -0.048491498968960274,0.6616279767561599 l -17.479965683133166 -1.4324866661853684" fill="#ffcd13" stroke="none" /><path d="M 120.89721153311464 102.0752229133903 l 17.641866970632016 1.751946976965035 a38.72864316352421,38.72864316352421 0 0,0 -0.07158841874262052,0.6628198476848586 l -17.609096250388344 -2.055363146534685" fill="#ffcf13" stroke="none" /><path d="M 120.8583938346157 102.4346265915055 l 18.296585149744285 2.135607999949961 a39.42079937655512,39.42079937655512 0 0,0 -0.0844703083917986,0.6733114689604215 l -18.25711333210564 -2.4502372231977776" fill="#ffd814" stroke="none" /><path d="M 120.81339534386255 102.79330883721812 l 18.346566943918525 2.462242547666459 a39.51105499400893,39.51105499400893 0 0,0 -0.0962676487668438,0.6732957112589122 l -18.30146524413508 -2.7776837309057805" fill="#ffda14" stroke="none" /><path d="M 120.76222939487914 103.15116336523771 l 26.563395902877915 4.031628705831542 a47.86760190107625,47.86760190107625 0 0,0 -0.13065176018580693,0.8135686353938639 l -26.49006238833082 -4.488276570918611" fill="#bdff1f" stroke="none" /><path d="M 120.41448212921028 104.9243191809786 l 8.725390673071168 2.1047121539006324 a29.975647923603866,29.975647923603866 0 0,0 -0.12531060639843672,0.5005535820396728 l -8.687868752377671 -2.2545935753377013" fill="#ff5808" stroke="none" /><path d="M 120.32669344350535 105.2749913415812 l 15.669594003449097 4.066424916773505 a37.18863761521285,37.18863761521285 0 0,0 -0.1661303634719838,0.6182328844914124 l -15.597275563635336 -4.335548734440465" fill="#ffbb11" stroke="none" /><path d="M 120.23288151984713 105.62410040840565 l 10.351227027734481 2.8773133523801238 a31.743688058924914,31.743688058924914 0 0,0 -0.1508692286034052,0.5251955769518061 l -10.300165162244976 -3.055066404836512" fill="#ff710a" stroke="none" /><path d="M 120.13307415673323 105.97154293290107 l 16.760420209789178 4.97120152029772 a38.482120299440794,38.482120299440794 0 0,0 -0.19382752689900573,0.6334395726916018 l -16.67236591038404 -5.258968065541379" fill="#ffcc13" stroke="none" /><path d="M 120.02730092923936 106.31721596034902 l 29.57542207444583 9.328981924367772 a52.01186054764851,52.01186054764851 0 0,0 -0.27667275534450886,0.8515111843087176 l -29.410457068085073 -9.836692008654286" fill="#8dff24" stroke="none" /><path d="M 119.9155931802556 106.66101706037122 l 19.22661046783849 6.430578249928907 a41.273502083025896,41.273502083025896 0 0,0 -0.2311496325736909,0.6718290310037558 l -19.11307000432157 -6.7605799840219625" fill="#fff016" stroke="none" /><path d="M 119.79798401119884 107.00284435728193 l 16.65698058545101 5.891824260298351 a38.66829350385407,38.66829350385407 0 0,0 -0.22736171981215106,0.6256018049499015 l -16.553094604633632 -6.177673862254383" fill="#ffcf13" stroke="none" /><path d="M 119.67450827220406 107.3425965602758 l 16.26328953105634 6.069517576620277 a38.358963966316345,38.358963966316345 0 0,0 -0.23619206998625003,0.6166229636059539 l -16.156403181476584 -6.348564107059375" fill="#ffcb12" stroke="none" /><path d="M 119.41010516605496 108.01547362559984 l 56.723069777901344 23.423998266787127 a82.3692947640032,82.3692947640032 0 0,0 -0.5524587784472065,1.3058493585642552 l -56.311460018261826 -24.39692215101755" fill="#4be1ff" stroke="none" /><path d="M 119.12269723197855 108.67885076344098 l 9.102796556411299 4.131311178788359 a30.99643122336142,30.99643122336142 0 0,0 -0.22468779140828604,0.48395751352914745 l -9.030334148163183 -4.287388759596337" fill="#ff6609" stroke="none" /><path d="M 118.97047184881838 109.00673069616215 l 15.896618663494568 7.547338011552877 a38.59729513286615,38.59729513286615 0 0,0 -0.29011701620017427,0.5977269831940855 l -15.764348390679679 -7.819853950712238" fill="#ffce13" stroke="none" /><line stroke="#e1ed5e" stroke-width="0.3" x1="174.80103733775053" x2="179.2010983576182" y1="140.37084112569926" y2="142.7455964860345" /><path d="M 175.68104954172406 140.8457921977663 a86.0,86.0 0 0,1 -30.038265399797805,32.042727171017184" fill="none" id="id17" stroke="none" /><text fill="#e1ed5e" style="font-size:6.75px; font-family:Arial;" text-anchor="middle"><textPath startOffset="22.206326154141568" xlink:href="#id17">May</textPath></text><path d="M 118.30583269289576 110.29060199501025 l 17.627607645612514 9.909338594337546 a41.22195694498642,41.22195694498642 0 0,0 -0.3530326986308744,0.6155422672776542 l -17.45442295082926 -10.211300707473516" fill="#fff016" stroke="none" /><path d="M 118.12598468904814 110.60418214915192 l 18.90025609156629 11.057151470600306 a42.89703813237277,42.89703813237277 0 0,0 -0.37835008752465904,0.6341365093477024 l -18.707125128343407 -11.380850073834113" fill="#f9ff18" stroke="none" /><path d="M 117.75023020441432 111.22182372390056 l 18.7171220088025 11.833099705337109 a43.143913496237474,43.143913496237474 0 0,0 -0.40225563987831137,0.6243096860173275 l -18.51066150554714 -12.15353099127589" fill="#f6ff19" stroke="none" /><path d="M 116.498646956653 112.99209946851258 l 6.766684261847114 5.3285239227745045 a29.612849882304324,29.612849882304324 0 0,0 -0.3188064253046445,0.39776003429636364 l -6.673959924487616 -5.444211790649118" fill="#ff5307" stroke="none" /><path d="M 116.0416608686014 113.55231037782055 l 34.56852449229315 29.20416888626654 a66.25335750982296,66.25335750982296 0 0,0 -0.743480950632137,0.864836311946716 l -34.060701032090236 -29.794882297374784" fill="#36ff71" stroke="none" /><path d="M 115.07121518719521 114.62390073753431 l 10.315437215474487 10.009274503062834 a35.373371943425795,35.373371943425795 0 0,0 -0.4277809251633557,0.4333398186859017 l -10.141615665255596 -10.1853548157294" fill="#ffa30f" stroke="none" /><path d="M 114.55890576462653 115.13401014063108 l 19.87694238611561 20.662119289699927 a49.67082161645789,49.67082161645789 0 0,0 -0.6212735673814261,0.5874529359000048 l -19.518332984343374 -21.001206862345853" fill="#a8ff21" stroke="none" /><path d="M 113.48314897796784 116.09983520530334 l 8.872434910033846 10.594315923879574 a34.818814389366246,34.818814389366246 0 0,0 -0.46280815165381234,0.38085960099254 l -8.688756629835341 -10.745470643729291" fill="#ff9b0e" stroke="none" /><path d="M 112.92097659922987 116.55440617244103 l 12.996006220576769 16.650534419187867 a42.12194295347447,42.12194295347447 0 0,0 -0.5754083492089402,0.4411985855026742 l -12.707469142874334 -16.871772346517915" fill="#fffb17" stroke="none" /><path d="M 111.45004920935366 117.60387380957326 l 9.293978840673333 14.289024239861131 a38.04565212651668,38.04565212651668 0 0,0 -0.5520572645686443,0.35234906593315557 l -9.046639774057759 -14.446887734618095" fill="#ffc612" stroke="none" /><line stroke="#e1ed5e" stroke-width="0.3" x1="143.8653032363475" x2="146.44561519142675" y1="172.8068346515853" y2="177.08958963109032" /><path d="M 144.38136562736335 173.6633856474863 a86.0,86.0 0 0,1 -40.68145358897372,12.25698825130547" fill="none" id="id18" stroke="none" /><text fill="#e1ed5e" style="font-size:6.75px; font-family:Arial;" text-anchor="middle"><textPath startOffset="21.466115282336833" xlink:href="#id18">June</textPath></text><path d="M 110.21172684928248 118.3499491758327 l 14.256264867547618 25.617776465993998 a50.31742756510722,50.31742756510722 0 0,0 -0.7604573178388893,0.414661962835353 l -13.813184737840078 -25.85937908058912" fill="#a1ff22" stroke="none" /><path d="M 109.57404056367764 118.69057910512821 l 10.583391127290898 20.661047731048967 a44.21394109361664,44.21394109361664 0 0,0 -0.6803601090641349,0.3411466827289351 l -10.226177110544002 -20.840162254687204" fill="#e9ff1a" stroke="none" /><path d="M 108.2653958097858 119.30500536409082 l 3.5229849863064833 8.228431598851719 a29.950894357030606,29.950894357030606 0 0,0 -0.47568943245934026,0.19883822134755952 l -3.380824094349682 -8.287854863219252" fill="#ff5708" stroke="none" /><path d="M 107.2578585660854 119.70592522655815 l 4.195091683848499 11.390158996314295 a33.13814302919579,33.13814302919579 0 0,0 -0.5369648509471159,0.19253649125531822 l -3.9984072722716486 -11.460683028609573" fill="#ff840c" stroke="none" /><path d="M 106.91757812671514 119.82793768551818 l 5.8187414607181 16.67832888589949 a38.664212595327,38.664212595327 0 0,0 -0.6302823915966727,0.21382600784558325 l -5.530789336184201 -16.776017880643195" fill="#ffcf13" stroke="none" /><path d="M 105.53697534728816 120.25689768951611 l 4.641315968933065 16.980148335578544 a38.60304665169424,38.60304665169424 0 0,0 -0.6424825591124173,0.16968548329469982 l -4.34834296700915 -17.057525168176827" fill="#ffce13" stroke="none" /><line stroke="#e1ed5e" stroke-width="0.3" x1="102.19456741930631" x2="102.32365962044197" y1="184.97166512339345" y2="189.96999836594603" /><path d="M 102.22038585953345 185.97133177190398 a86.0,86.0 0 0,1 -42.740103519485714,-10.115201625700543" fill="none" id="id19" stroke="none" /><text fill="#e1ed5e" style="font-size:6.75px; font-family:Arial;" text-anchor="middle"><textPath startOffset="22.20632615414155" xlink:href="#id19">July</textPath></text><path d="M 95.16358092515715 120.4354850818985 l -5.737192664436308 24.24155419366243 a45.91120891071195,45.91120891071195 0 0,0 -0.767475194360651,-0.18862673019513918 l 6.15362114354017 -24.13920620515326" fill="#d4ff1c" stroke="none" /><path d="M 93.08242187328487 119.8279376855182 l -5.794237376393592 16.60809253321553 a38.589824455231096,38.589824455231096 0 0,0 -0.6253029724213217,-0.22421139869614842 l 6.07925990944464 -16.505893593479424" fill="#ffce13" stroke="none" /><line stroke="#e1ed5e" stroke-width="0.3" x1="58.666819895761336" x2="56.23545636021788" y1="174.27360380694188" y2="178.64263932499728" /><path d="M 58.180547188652646 175.14741091055294 a86.0,86.0 0 0,1 -31.652253787137756,-30.449443065178592" fill="none" id="id20" stroke="none" /><text fill="#e1ed5e" style="font-size:6.75px; font-family:Arial;" text-anchor="middle"><textPath startOffset="22.20632615414155" xlink:href="#id20">August</textPath></text><path d="M 89.4739219176387 118.17145234162733 l -4.408786766652469 7.611007441496273 a29.79572822615169,29.79572822615169 0 0,0 -0.4415899014326152,-0.26089909741772377 l 4.539144539113466 -7.5339897717848" fill="#ff5507" stroke="none" /><path d="M 89.1626897886671 117.98757091392108 l -4.554113809566552 7.558835495359545 a29.824734932925303,29.824734932925303 0 0,0 -0.43745898646887965,-0.2687230391950488 l 4.68355199596774 -7.479323989336118" fill="#ff5607" stroke="none" /><path d="M 88.8546689885994 117.79835938074946 l -4.99312646148587 7.97369401627915 a30.408034232805296,30.408034232805296 0 0,0 -0.4412324473674234,-0.281615424100593 l 5.129640710900217 -7.886564163354753" fill="#ff5e08" stroke="none" /><path d="M 88.54995079064634 117.60387380957326 l -6.594417351093857 10.138584452674984 a33.09451259474439,33.09451259474439 0 0,0 -0.47486733226978484,-0.31471617410422575 l 6.767959382103604 -10.023570257479438" fill="#ff840c" stroke="none" /><path d="M 87.65650970185807 116.9893568818739 l -5.32830282514919 7.333779675330824 a30.065050210715235,30.065050210715235 0 0,0 -0.4160645455406837,-0.30779460409253123 l 5.453752341108438 -7.240975122498527" fill="#ff5908" stroke="none" /><path d="M 87.07902340077011 116.55440617244103 l -7.065026610129367 9.051739953631419 a32.482534441054526,32.482534441054526 0 0,0 -0.4378065710043258,-0.34782001823587966 l 7.219790673851051 -8.928786021390408" fill="#ff7b0b" stroke="none" /><path d="M 85.97065885151581 115.62618273729859 l -5.883157157761085 6.552787322400642 a29.8062795683268,29.8062795683268 0 0,0 -0.3788242593096814,-0.3460469790428964 l 5.995080966537621 -6.45054757677117" fill="#ff5507" stroke="none" /><path d="M 85.70375840098266 115.38237550388516 l -11.966114122362567 12.875220349184378 a38.57723488576791,38.57723488576791 0 0,0 -0.4825170101323664,-0.45624995027339516 l 12.18596696688575 -12.667335762165052" fill="#ffcd13" stroke="none" /><path d="M 85.44109423537348 115.13401014063109 l -10.170271231616857 10.572016224339274 a35.669762914660424,35.669762914660424 0 0,0 -0.43882309274984044,-0.42948075627372523 l 10.35074427674249 -10.39538536514298" fill="#ffa70f" stroke="none" /><path d="M 83.95833913139862 113.55231037782056 l -11.157494773919359 9.426070869696016 a35.60618025599334,35.60618025599334 0 0,0 -0.3915052118866975,-0.47159324835156213 l 11.318095985699593 -9.232616364230692" fill="#ffa60f" stroke="none" /><path d="M 83.50135304334701 112.99209946851258 l -6.921216626672382 5.450212680658065 a29.80954356693536,29.80954356693536 0 0,0 -0.3139841818498612,-0.4058668805345973 l 7.0140076257403114 -5.330267806010214" fill="#ff5507" stroke="none" /><path d="M 83.28015986056508 112.70617746262583 l -14.046138505890138 10.674308308697384 a38.641849812187374,38.641849812187374 0 0,0 -0.3978983169498173,-0.5330498191679214 l 14.22779808953504 -10.430945610020155" fill="#ffce13" stroke="none" /><path d="M 82.44556493220864 111.52570212397912 l -7.366158800761705 4.8363932993366605 a29.811980232836866,29.811980232836866 0 0,0 -0.2779543210804337,-0.431391278872756 l 7.448317985219185 -4.708880420542456" fill="#ff5507" stroke="none" /><path d="M 82.24976979558568 111.22182372390057 l -7.493885187348177 4.737688334805772 a29.86589002632624,29.86589002632624 0 0,0 -0.27097657703825107,-0.43690052300614224 l 7.574326404054384 -4.607991480434366" fill="#ff5608" stroke="none" /><line stroke="#e1ed5e" stroke-width="0.3" x1="26.63291911575756" x2="22.317208475507996" y1="142.92168965132927" y2="145.44649492493687" /><path d="M 25.769776987707644 143.4266507060508 a86.0,86.0 0 0,1 -11.730757126820373,-40.83630448921669" fill="none" id="id21" stroke="none" /><text fill="#e1ed5e" style="font-size:6.75px; font-family:Arial;" text-anchor="middle"><textPath startOffset="21.46611528233685" xlink:href="#id21">September</textPath></text><path d="M 81.87401531095188 110.60418214915194 l -7.6591248797724365 4.480791345767902 a29.873538471672823,29.873538471672823 0 0,0 -0.25584267914264386,-0.44608327612880766 l 7.735119555067458 -4.348288223780788" fill="#ff5608" stroke="none" /><path d="M 80.73074385275274 108.34839909993369 l -5.399980105890202 2.339539664177111 a26.885000508433954,26.885000508433954 0 0,0 -0.18032028296463146,-0.42622388317790166 l 5.43945137004714 -2.24624125533305" fill="#ff2b04" stroke="none" /><path d="M 80.20201598880116 107.00284435728193 l -8.345085511424154 2.9517821083023046 a29.85174953372919,29.85174953372919 0 0,0 -0.16718283131203607,-0.4859115643414282 l 8.394659173679418 -2.8076978408715796" fill="#ff5608" stroke="none" /><path d="M 79.58551787078972 104.9243191809786 l -8.575720503373027 2.0686091715766137 a29.821684989654948,29.821684989654948 0 0,0 -0.11607655495484064,-0.5000547607397651 l 8.610057624258422 -1.9206857534882742" fill="#ff5607" stroke="none" /><path d="M 79.35854240842038 103.8639653848113 l -8.701715681163046 1.6289124947358227 a29.852864604821725,29.852864604821725 0 0,0 -0.09020335550202133,-0.5059083214169611 l 8.728465479004255 -1.478885422585648" fill="#ff5608" stroke="none" /><path d="M 79.1416061653843 102.43462659150553 l -17.485050344784078 2.040884301099812 a38.6037551190111,38.6037551190111 0 0,0 -0.07135756795890466,-0.6606824561348457 l 17.517590214244034 -1.7396055230801843" fill="#ffce13" stroke="none" /><line stroke="#e1ed5e" stroke-width="0.3" x1="15.007084014347285" x2="10.007500721073583" y1="101.09737516637583" y2="101.16192664675087" /><path d="M 14.007167355692545 101.11028546245083 a86.0,86.0 0 0,1 10.666146001902534,-42.60595125391555" fill="none" id="id22" stroke="none" /><text fill="#e1ed5e" style="font-size:6.75px; font-family:Arial;" text-anchor="middle"><textPath startOffset="22.20632615414155" xlink:href="#id22">October</textPath></text><path d="M 79.08570108090925 98.10471618934814 l -8.82031187402929 -0.7993093320708259 a29.856455101420522,29.856455101420522 0 0,0 0.05078849491248704,-0.5114332126859763 l 8.805246253434575 0.9510180754612325" fill="#ff5608" stroke="none" /><path d="M 79.12142395522702 97.74499172005258 l -17.509072904133465 -1.8910822408747918 a38.610900772079,38.610900772079 0 0,0 0.07705567721768034,-0.6601659852920188 l 17.473926873912195 2.1921919644916725" fill="#ffce13" stroke="none" /><path d="M 79.21141760316559 97.0276538004421 l -14.800955346219327 -2.1162368137165704 a35.951479438922014,35.951479438922014 0 0,0 0.09286456579522005,-0.6118614601089609 l 14.762334886984805 2.3706973862176235" fill="#ffab0f" stroke="none" /><path d="M 79.3925641242962 95.95851677861259 l -18.726621386070192 -3.6726221826708723 a40.08335668151354,40.08335668151354 0 0,0 0.13861340877628192,-0.6759282087432991 l 18.660628681378913 3.9944260475775737" fill="#ffe115" stroke="none" /><path d="M 80.02781315780177 93.51064311812611 l -16.884427793608058 -5.486083149765567 a38.75333800285755,38.75333800285755 0 0,0 0.211598219561184,-0.6326517437581954 l 16.787492280275103 5.775907996446085" fill="#ffd013" stroke="none" /><path d="M 80.2630227832202 92.82701384747504 l -22.81696331778108 -8.292341837531723 a45.27708277770306,45.27708277770306 0 0,0 0.27251502424445945,-0.7302047790293001 l 22.670843705034994 8.683869753590365" fill="#dcff1b" stroke="none" /><path d="M 80.38941819471856 92.48833698450439 l -9.055885391596533 -3.468778236365358 a30.69749878467708,30.69749878467708 0 0,0 0.19325749246825039,-0.49181923872931893 l 8.994834349246592 3.6241464799904404" fill="#ff6209" stroke="none" /><path d="M 80.52162464483688 92.15188598940014 l -8.414939689133307 -3.3904986873114296 a30.072303528895596,30.072303528895596 0 0,0 0.19758693868396177,-0.4784724444786021 l 8.355331063563145 3.534845702243343" fill="#ff5908" stroke="none" /><path d="M 80.65960295795068 91.81776055985345 l -16.319574415101762 -6.904235995534818 a38.71996003867059,38.71996003867059 0 0,0 0.2649722843846247,-0.6115925650666537 l 16.198311420874457 7.184127705188071" fill="#ffcf13" stroke="none" /><path d="M 81.6062741919709 89.86733742301443 l -14.820341832109186 -8.164171012856759 a37.92029019691258,37.92029019691258 0 0,0 0.3198709356360292,-0.5690147023383566 l 14.677613255180725 8.4180692251299" fill="#ffc512" stroke="none" /><line stroke="#e1ed5e" stroke-width="0.3" x1="26.266209847984243" x2="21.928928074336255" y1="57.711370442889674" y2="55.22380399835377" /><path d="M 25.398753493254645 57.213857153982495 a86.0,86.0 0 0,1 29.58750427330803,-30.492523968695096" fill="none" id="id23" stroke="none" /><text fill="#e1ed5e" style="font-size:6.75px; font-family:Arial;" text-anchor="middle"><textPath startOffset="21.46611528233685" xlink:href="#id23">November</textPath></text><path d="M 81.78341655067845 89.55222093294921 l -11.261863694974625 -6.459030261940655 a33.98262861707338,33.98262861707338 0 0,0 0.29539048048164884,-0.5049180833742233 l 11.149013540022652 6.65192775766877" fill="#ff900d" stroke="none" /><path d="M 81.96595687620814 89.24020034530311 l -13.571806314655758 -8.097458561879144 a36.80388438972773,36.80388438972773 0 0,0 0.3292794494538265,-0.5412488367004289 l 13.430411066915715 8.329875171786648" fill="#ffb610" stroke="none" /><path d="M 82.54541684631803 88.32363383020206 l -7.376613955453593 -4.934637789900386 a29.87496949658452,29.87496949658452 0 0,0 0.28961013706653693,-0.42496714013122666 l 7.290579352718316 5.060882953302029" fill="#ff5608" stroke="none" /><path d="M 82.7489923806493 88.02491185347247 l -5.857057703071648 -4.065778870499443 a28.12991463910408,28.12991463910408 0 0,0 0.27954086624643637,-0.395390730923451 l 5.786204217021333 4.16599610175468" fill="#ff3d05" stroke="none" /><path d="M 83.17141714833178 87.43820079747576 l -10.74370638197657 -8.019705726313681 a34.406823141922644,34.406823141922644 0 0,0 0.3583619067424954,-0.47156226256258793 l 10.604068535009967 8.203452764757296" fill="#ff960d" stroke="none" /><path d="M 83.39014120810768 87.1503855733568 l -8.212533815331042 -6.353328725725451 a31.383183402265608,31.383183402265608 0 0,0 0.33422480504227237,-0.4244315613433287 l 8.101954929694799 6.493752681021827" fill="#ff6c09" stroke="none" /><path d="M 83.6137871275137 86.86637796730984 l -24.286673004134222 -19.465875742613896 a52.124954683286305,52.124954683286305 0 0,0 0.5671728926466965,-0.6952869031071346 l 23.948001619411134 19.88104681532911" fill="#8cff24" stroke="none" /><path d="M 84.07557802195018 86.31012108654704 l -2.274343203461786 -1.9552033415054964 a23.99924275672495,23.99924275672495 0 0,0 0.2720007163843353,-0.31094383890543115 l 2.240350623499607 1.9940627366138708" fill="#ff0000" stroke="none" /><path d="M 84.5562425177563 85.77008943001954 l -12.147147823425387 -11.192407508756325 a37.51736014277745,37.51736014277745 0 0,0 0.44169130574751175,-0.471165488935757 l 11.95268919570742 11.399842414570132" fill="#ffc011" stroke="none" /><path d="M 84.80347519578584 85.50635884689758 l -8.775723232429945 -8.369820404893613 a33.12712710671345,33.12712710671345 0 0,0 0.397108653981376,-0.4092553747639766 l 8.630350314745451 8.519639975207713" fill="#ff840c" stroke="none" /><path d="M 85.05521093208273 85.24692304244772 l -21.061800502280857 -20.791619223439877 a50.595453541555884,50.595453541555884 0 0,0 0.617178279602121,-0.6145279199308983 l 20.700786422511424 21.151082994020882" fill="#9dff22" stroke="none" /><path d="M 85.57189188830299 84.74124197986013 l -8.126524833043371 -8.594382230303477 a32.82809417373005,32.82809417373005 0 0,0 0.4139343108211302,-0.38470682971735953 l 7.977382638427384 8.732993646095485" fill="#ff800b" stroke="none" /><path d="M 85.83668400450813 84.49514656593479 l -41.859586384057856 -45.8244913763127 a83.06536056563402,83.06536056563402 0 0,0 1.063984252549259,-0.9552555673113275 l 41.06459114391262 46.538245952393304" fill="#4cdbff" stroke="none" /><path d="M 86.37877921826538 84.01681056812374 l -10.411590712000354 -12.216997969830517 a37.051674696088725,37.051674696088725 0 0,0 0.4889805897649445,-0.4095071815991982 l 10.1997525852763 12.394406308823529" fill="#ffb911" stroke="none" /><path d="M 86.93701828274178 83.55741782278169 l -11.998722887819246 -15.102982716724425 a40.289101531184755,40.289101531184755 0 0,0 0.5467182056316282,-0.42672223139596555 l 11.736972127028192 15.307283337343613" fill="#ffe415" stroke="none" /><path d="M 87.22198572758235 83.33499621200491 l -11.589948547244951 -15.115536132983296 a40.047475946048834,40.047475946048834 0 0,0 0.5506601291280935,-0.4147457928775697 l 11.328042264358468 15.312798515366719" fill="#ffe115" stroke="none" /><path d="M 87.80319425747018 82.90503203632743 l -20.94137197462208 -29.35129824796745 a57.05606424751077,57.05606424751077 0 0,0 0.8044059010286656,-0.5635377398651448 l 20.433034934009754 29.707420830596536" fill="#57ff2a" stroke="none" /><path d="M 88.39885842347998 82.49532879139004 l -6.501142520979205 -9.809410699752116 a32.768151611637876,32.768151611637876 0 0,0 0.4728490686869538,-0.30755418742653773 l 6.331326426507965 9.919863811338189" fill="#ff7f0b" stroke="none" /><path d="M 88.70189139769569 82.29822771554957 l -10.226755035755788 -16.02318540422626 a40.008655635251166,40.008655635251166 0 0,0 0.5837088488559675,-0.3655184276040558 l 9.949427034527579 16.19684817315325" fill="#ffe015" stroke="none" /><path d="M 89.00827224532344 82.1063720568725 l -8.604037064094133 -14.00666405409072 a37.43825087180697,37.43825087180697 0 0,0 0.5520144116367431,-0.3325825064797331 l 8.36166058623974 14.152693170029073" fill="#ffbe11" stroke="none" /><line stroke="#e1ed5e" stroke-width="0.3" x1="56.762969772571076" x2="54.21961505331055" y1="26.818313649435495" y2="22.513508569990535" /><path d="M 56.25429882871897 25.957352633546506 a86.0,86.0 0 0,1 42.265352541879196,-11.944610805530505" fill="none" id="id24" stroke="none" /><text fill="#e1ed5e" style="font-size:6.75px; font-family:Arial;" text-anchor="middle"><textPath startOffset="22.20632615414155" xlink:href="#id24">December</textPath></text><path d="M 89.63071344664047 81.73862282372117 l -8.478803235630624 -14.932042150878702 a38.171371148052174,38.171371148052174 0 0,0 0.5741626967980961,-0.31952091913538055 l 8.220516449760483 15.075778467574267" fill="#ffc812" stroke="none" /><path d="M 89.94658935756843 81.56283822128135 l -29.784357635668666 -54.62216154648384 a83.21485748420221,83.21485748420221 0 0,0 1.263498548156143,-0.6749171666992736 l 28.839714040984216 55.126757439684866" fill="#4cd9ff" stroke="none" /><path d="M 90.91171255644093 81.06846463323043 l -7.663330563172374 -15.963250995847643 a38.70740008236338,38.70740008236338 0 0,0 0.6031383186139346,-0.28318152779114614 l 7.387414033258831 16.092797506278796" fill="#ffcf13" stroke="none" /><path d="M 91.23893434514133 80.91482961587045 l -3.7526924351504025 -8.174893026210839 a29.9950862421005,29.9950862421005 0 0,0 0.4710912286083804,-0.2113649022968687 l 3.6114190880752477 8.238278259024236" fill="#ff5808" stroke="none" /><path d="M 91.90106846888425 80.62456947434976 l -5.770849606136874 -13.805857623082913 a35.96343576473955,35.96343576473955 0 0,0 0.5732162883562126,-0.233829316624352 l 5.5323494481922815 13.903147825890843" fill="#ffab0f" stroke="none" /><path d="M 92.23578459929587 80.48803036053334 l -4.455389845100072 -11.196679497286574 a33.0505655650172,33.0505655650172 0 0,0 0.5304093810329895,-0.20579059943665226 l 4.2619972990674055 11.271712800613777" fill="#ff830c" stroke="none" /><path d="M 92.57280143429618 80.3572730644239 l -5.332410927980024 -14.10263787079294 a36.07710188396842,36.07710188396842 0 0,0 0.5827614568545628,-0.21463596268578022 l 5.088867145352891 14.192337101285043" fill="#ffac0f" stroke="none" /><path d="M 93.25333710446033 80.11325718540243 l -6.789663418754615 -20.013492936740796 a42.133845576916386,42.133845576916386 0 0,0 0.6888225215019561,-0.22709395540417698 l 6.444158075010249 20.127400616404206" fill="#fffb17" stroke="none" /><path d="M 93.94186890950719 79.89281104454417 l -8.5919463982227 -28.5170273048942 a50.78325686049149,50.78325686049149 0 0,0 0.8391565193549868,-0.24497279918660667 l 8.09979966114429 28.660698432999506" fill="#9bff22" stroke="none" /><path d="M 94.63758080256005 79.69619591428918 l -3.057554906042612 -11.576863633344912 a32.97382201256262,32.97382201256262 0 0,0 0.5500207979563614,-0.14021254812300132 l 2.8578252194012514 11.627779177636777" fill="#ff820c" stroke="none" /><path d="M 94.98787191387505 79.60689891045804 l -5.828992545514229 -23.716719163648044 a45.42252898417792,45.42252898417792 0 0,0 0.7608842749948355,-0.1800767247063135 l 5.4198845835568585 23.813541800495226" fill="#daff1b" stroke="none" /><path d="M 95.33964822691252 79.52364482259891 l -5.887344772729188 -25.86743844410553 a47.528950226734764,47.528950226734764 0 0,0 0.7992949802817401,-0.1746949241512975 l 5.441207068293927 25.964946866352697" fill="#c1ff1e" stroke="none" /><path d="M 96.04723909329186 79.375362276772 l -5.5485463058579105 -28.951095234388312 a50.47799656318033,50.47799656318033 0 0,0 0.8547724692770623,-0.15620420519226028 l 5.049378715477955 29.04231492093131" fill="#9fff22" stroke="none" /><path d="M 96.75951476605007 79.25152402106235 l -2.8539958517883735 -18.273826325274936 a39.49535133184381,39.49535133184381 0 0,0 0.6726077507207631,-0.09912489834231379 l 2.539019120638961 18.320245707778216" fill="#ffd914" stroke="none" /><path d="M 97.11714578562143 79.19881850522333 l -2.1251581707409244 -15.334039645226607 a36.48060299510482,36.48060299510482 0 0,0 0.6227504223284385,-0.08085087787502834 l 1.8608930199046283 15.368348846265771" fill="#ffb210" stroke="none" /><path d="M 97.83486435360386 79.11191278185805 l -3.049111092076797 -29.416216270382858 a50.57382048565526,50.57382048565526 0 0,0 0.8666784390398281,-0.08230156080401314 l 2.5423075259467325 29.46434337570205" fill="#9eff22" stroke="none" /><path d="M 98.55514903715128 79.0497635885617 l -1.0369157833126303 -15.035205261807986 a36.070918737966224,36.070918737966224 0 0,0 0.619797924470485,-0.03738790339876993 l 0.7779558100025223 15.050826434587064" fill="#ffac0f" stroke="none" /><path d="M 99.27714615592234 79.0124445844662 l -0.2590333421387693 -7.520851783731073 a28.525311277627686,28.525311277627686 0 0,0 0.49087084373856105,-0.012677745683713897 l 0.1295358632053292 7.524196321557147" fill="#ff4306" stroke="none" /><path d="M 99.63851952072746 79.00311137660856 l -1.0844414378176228 -62.990665870174325 a84.0,84.0 0 0,0 1.445921917090143,-0.012445506434235476 l 1.543054966925665e-14 63.0" fill="#4dd2ff" stroke="none" /></svg>